<?xml version="1.0" standalone="no"?>
<!DOCTYPE svg PUBLIC "-//W3C//DTD SVG 1.1//EN" "http://www.w3.org/Graphics/SVG/1.1/DTD/svg11.dtd" >
<svg xmlns="http://www.w3.org/2000/svg" xmlns:xlink="http://www.w3.org/1999/xlink" version="1.1">
<metadata></metadata>
<defs>
<font id="concourse_t8regular" horiz-adv-x="560" >
<font-face units-per-em="1000" ascent="742" descent="-258" />
<missing-glyph horiz-adv-x="240" />
<glyph unicode="&#xfb01;" horiz-adv-x="700" d="M15 312v132l70 41v9q0 31 10 59t27 52t39.5 42.5t47.5 29.5l184 15l10 -124q-47 -3 -70 -27t-23 -53v-12h80v-164h-75v-312h-230v312h-70zM426 602q0 35 29.5 62t94.5 27q64 0 94 -27t30 -62q0 -34 -30.5 -59.5t-93.5 -25.5q-34 0 -57.5 7t-38.5 19t-21.5 27t-6.5 32z M435 0v466l230 15v-481h-230z" />
<glyph unicode="&#xfb02;" horiz-adv-x="700" d="M15 312v132l70 41v9q0 31 10 59t27 52t39.5 42.5t47.5 29.5l184 15l10 -124q-47 -3 -70 -27t-23 -53v-12h80v-164h-75v-312h-230v312h-70zM435 0v677l230 15v-692h-230z" />
<glyph horiz-adv-x="0" />
<glyph unicode="&#xd;" horiz-adv-x="240" />
<glyph horiz-adv-x="0" />
<glyph horiz-adv-x="0" />
<glyph unicode=" "  horiz-adv-x="240" />
<glyph unicode="&#x09;" horiz-adv-x="240" />
<glyph unicode="&#xa0;" horiz-adv-x="240" />
<glyph unicode="!" horiz-adv-x="380" d="M68 680h244l-22 -235l-25 -187h-147l-26 186zM79 101q0 23 8.5 43.5t23.5 35.5t35.5 24t43.5 9t43.5 -9t35.5 -24t23.5 -35.5t8.5 -43.5t-8.5 -43.5t-23.5 -35.5t-35.5 -23.5t-43.5 -8.5t-43.5 8.5t-35.5 23.5t-23.5 35.5t-8.5 43.5z" />
<glyph unicode="&#x22;" horiz-adv-x="540" d="M64 680h192l-29 -324h-135zM284 680h192l-29 -324h-135z" />
<glyph unicode="#" d="M29 219l17 103l103 -18l30 125l-89 16l20 108l95 -17l48 196l77 -17l-47 -193l74 -13l51 210l77 -17l-50 -206l96 -17l-20 -108l-102 18l-30 -126l88 -15l-17 -103l-96 17l-54 -225l-77 18l53 220l-74 13l-57 -238l-77 18l56 234zM227 290l74 -13l30 125l-74 13z" />
<glyph unicode="$" horiz-adv-x="570" d="M29 86l39 147q35 -20 81 -35.5t101 -18.5l9 99q-5 2 -9 4t-9 4q-35 15 -70.5 33t-64 42.5t-46.5 57t-18 76.5q0 34 15.5 64.5t46.5 53.5t77 37t107 15l9 84l71 -6l-8 -82q50 -5 92.5 -17.5t74.5 -28.5l-34 -156q-42 20 -78.5 34t-78.5 19l-9 -83l12 -4q61 -25 100 -50.5 t61.5 -52.5t31.5 -55t9 -57q0 -47 -21.5 -80.5t-56 -55.5t-78.5 -32.5t-88 -12.5l-10 -97l-71 6l9 93q-58 6 -110 22t-86 33zM235 490q0 -11 8 -19.5t33 -19.5l7 64q-25 -1 -36.5 -8t-11.5 -17zM302 181q23 3 34 12t11 21q0 11 -7 20t-30 21z" />
<glyph unicode="%" horiz-adv-x="670" d="M42 528q0 35 11 65t30 51.5t45 34t57 12.5q34 0 61.5 -12.5t47 -34t30 -51.5t10.5 -65t-11.5 -63.5t-31 -49.5t-46.5 -32.5t-57 -11.5q-31 0 -58 11.5t-46.5 32.5t-30.5 49.5t-11 63.5zM51 25l254 316l255 343l60 -31l-267 -334l-242 -327zM145 529q0 -32 12.5 -51 t33.5 -19q16 0 28 18.5t12 51.5t-11.5 53.5t-31.5 20.5q-19 0 -31 -21t-12 -53zM340 146q0 35 11 65t30 51.5t45 34t57 12.5q34 0 61.5 -12.5t47 -34t30 -51.5t10.5 -65t-11.5 -63.5t-31 -49.5t-46.5 -32.5t-57 -11.5q-31 0 -58 11.5t-46.5 32.5t-30.5 49.5t-11 63.5z M443 147q0 -32 12.5 -51t33.5 -19q16 0 28 18.5t12 51.5t-11.5 53.5t-31.5 20.5q-19 0 -31 -21t-12 -53z" />
<glyph unicode="&#x26;" horiz-adv-x="760" d="M40 204q0 37 11.5 68t29.5 55t40.5 40.5t45.5 25.5v5q-46 29 -61.5 62t-15.5 72q0 35 18.5 65t51.5 51.5t77.5 34t96.5 12.5q72 0 122 -14.5t85 -30.5l-34 -158h-5q-28 14 -55 20.5t-60 6.5q-41 0 -59.5 -14.5t-18.5 -34.5q0 -15 13.5 -31.5t45.5 -26.5v-73 q-55 -10 -80.5 -31t-25.5 -52q0 -24 11 -41.5t28.5 -28t40 -15.5t45.5 -5q31 0 57 6.5t45 18.5t29.5 28t10.5 34q0 5 -0.5 10t-1.5 10l-61 -12l-26 130l273 52l25 -128l-58 -12q15 -33 15 -67q0 -55 -25 -101t-70 -79.5t-106.5 -52t-133.5 -18.5q-74 0 -133 17.5 t-100.5 47.5t-64 70t-22.5 84z" />
<glyph unicode="'" horiz-adv-x="320" d="M64 680h192l-29 -324h-135z" />
<glyph unicode="(" horiz-adv-x="510" d="M72 284q0 86 24.5 158.5t65.5 132.5t95.5 109t113.5 88l92 -116q-39 -32 -73 -71t-59 -85.5t-39.5 -100.5t-14.5 -115q0 -68 13 -122.5t37 -100t58.5 -84t77.5 -73.5l-92 -116q-68 48 -123 97t-94 107t-60.5 129t-21.5 163z" />
<glyph unicode=")" horiz-adv-x="510" d="M47 -96q43 35 77.5 73.5t58.5 84t37 100t13 122.5q0 61 -14.5 115t-39.5 100.5t-59 85.5t-73 71l92 116q59 -39 113 -88t95.5 -109t66 -132.5t24.5 -158.5q0 -92 -21.5 -163t-60.5 -129t-94.5 -107t-122.5 -97z" />
<glyph unicode="*" horiz-adv-x="550" d="M53 422l42 158l144 -91l-47 191h173l-58 -189l146 106l44 -174l-175 1l163 -115l-124 -109l-88 172l-86 -177l-123 118l156 109h-167z" />
<glyph unicode="+" horiz-adv-x="550" d="M33 236v130h177v177h130v-177h177v-130h-177v-177h-130v177h-177z" />
<glyph unicode="," horiz-adv-x="340" d="M20 -148l79 276h210v-7l-161 -277h-128v8z" />
<glyph unicode="-" horiz-adv-x="380" d="M40 155v159h300v-159h-300z" />
<glyph unicode="." horiz-adv-x="340" d="M59 101q0 23 8.5 43.5t23.5 35.5t35.5 24t43.5 9t43.5 -9t35.5 -24t23.5 -35.5t8.5 -43.5t-8.5 -43.5t-23.5 -35.5t-35.5 -23.5t-43.5 -8.5t-43.5 8.5t-35.5 23.5t-23.5 35.5t-8.5 43.5z" />
<glyph unicode="/" horiz-adv-x="570" d="M10 -160l390 860h160l-390 -860h-160z" />
<glyph unicode="0" horiz-adv-x="670" d="M30 347q0 89 24.5 154.5t66.5 108.5t98 64t118 21q66 0 122 -22t96 -65.5t62.5 -109t22.5 -151.5q0 -90 -22.5 -158t-62.5 -113.5t-96 -68t-122 -22.5q-62 0 -118 21t-98 65.5t-66.5 112.5t-24.5 163zM249 344q0 -93 25.5 -136t63.5 -43q40 0 62 44.5t22 134.5 q0 35 -5.5 66t-16.5 54t-27 36.5t-37 13.5q-20 0 -36 -12.5t-27.5 -35t-17.5 -54t-6 -68.5z" />
<glyph unicode="1" d="M53 655l369 33l13 -12v-676h-230v471l-136 -14z" />
<glyph unicode="2" horiz-adv-x="620" d="M32 125q93 61 154.5 108t98.5 84.5t52 67t15 56.5q0 28 -17 46t-57 18t-89.5 -15t-96.5 -45l-46 175q54 33 128.5 54t165.5 21q48 0 92.5 -11.5t79 -36t55.5 -62.5t21 -92q0 -43 -20 -86t-54 -82.5t-77.5 -75t-90.5 -62.5l3 -6l239 8v-189h-524z" />
<glyph unicode="3" horiz-adv-x="600" d="M29 196h6q35 -20 86.5 -30t102.5 -10q56 0 84.5 15.5t28.5 41.5q0 25 -24 39.5t-69 12.5l-150 -7l8 168l138 -7q35 -2 57 9.5t22 38.5q0 28 -28 42.5t-75 14.5q-49 0 -88 -8.5t-68 -16.5h-6l9 165q38 14 87 22.5t117 8.5q66 0 120 -13t93 -37t60 -58t21 -76 q0 -63 -36.5 -103.5t-96.5 -55.5v-5q65 -16 105 -57.5t40 -95.5q0 -100 -91 -154.5t-257 -54.5q-56 0 -103.5 8.5t-88.5 23.5z" />
<glyph unicode="4" horiz-adv-x="660" d="M27 251l340 429h189v-362l66 3v-166h-66v-155h-213v155h-290zM232 310l5 -9l106 4v151l-5 1z" />
<glyph unicode="5" horiz-adv-x="600" d="M46 292l43 388h463l-9 -179l-305 10l-9 -73q14 1 27 1.5t27 0.5q75 0 130.5 -14.5t91.5 -41.5t53.5 -65.5t17.5 -85.5q0 -56 -25.5 -102t-78 -78.5t-132 -50t-188.5 -17.5q-29 0 -55.5 2t-49.5 6l16 181q9 -2 22.5 -4t27 -3t25.5 -1.5t20 -0.5q38 0 72 3.5t59 11.5 t39.5 21t14.5 31t-14.5 29.5t-40 19t-60.5 10.5t-77 3q-29 0 -53.5 -1t-44.5 -4z" />
<glyph unicode="6" horiz-adv-x="640" d="M32 266q0 104 45 183t119.5 132.5t170 82t197.5 31.5l-15 -165q-48 -1 -92 -11.5t-80 -27.5t-62.5 -38t-39.5 -42l4 -3q29 11 55.5 16.5t62.5 5.5q39 0 78 -12t70.5 -37.5t51.5 -65.5t20 -96q0 -58 -25.5 -102t-65.5 -73t-89.5 -44t-98.5 -15q-83 0 -141 23t-94.5 61.5 t-53.5 89.5t-17 107zM255 230q0 -23 8.5 -42t25 -31t42.5 -12q30 0 49 20t19 57q0 38 -21 57t-53 19q-20 0 -35 -6t-27 -17q-8 -22 -8 -45z" />
<glyph unicode="7" horiz-adv-x="590" d="M42 492l10 188h528l17 -27q-103 -163 -163.5 -325.5t-65.5 -327.5h-263q12 68 34.5 136t52.5 131.5t65.5 121t73.5 104.5l-3 8z" />
<glyph unicode="8" horiz-adv-x="640" d="M27 175q0 31 11 58.5t29 49t39.5 36.5t42.5 23v6q-58 40 -77.5 78.5t-19.5 77.5t17.5 73.5t52.5 61t87 41.5t121 15q52 0 99 -12t82.5 -34t56 -53.5t20.5 -70.5q0 -59 -27 -97.5t-80 -66.5v-7q39 -21 64.5 -42.5t40.5 -44t21 -45.5t6 -47q0 -40 -22 -74.5t-61.5 -60 t-94.5 -40.5t-120 -15q-66 0 -119.5 14t-91 39.5t-57.5 60.5t-20 76zM236 195q0 -29 21 -46.5t56 -17.5q30 0 49 16t19 39q0 11 -4 21.5t-15 21.5t-31 23t-51 27q-23 -16 -33.5 -39.5t-10.5 -44.5zM263 494q0 -20 18 -40.5t71 -44.5q42 32 42 82q0 26 -17 42t-49 16 q-35 0 -50 -18t-15 -37z" />
<glyph unicode="9" horiz-adv-x="640" d="M25 456q0 45 19 88t55.5 76.5t89 54t119.5 20.5q81 0 138 -23.5t93.5 -62.5t53.5 -91t17 -109q0 -100 -32 -173t-89.5 -124.5t-138.5 -84.5t-180 -52l-64 152l3 6q54 9 100.5 22.5t81.5 31.5t56.5 39.5t25.5 45.5l-4 3q-20 -11 -50.5 -18t-72.5 -7q-37 0 -76 12t-71.5 37 t-53 64t-20.5 93zM243 458q0 -38 21 -57t53 -19q37 0 63 24q7 19 7 42t-8 42t-24.5 32t-42.5 13q-32 0 -50.5 -21t-18.5 -56z" />
<glyph unicode=":" horiz-adv-x="360" d="M69 101q0 23 8.5 43.5t23.5 35.5t35.5 24t43.5 9t43.5 -9t35.5 -24t23.5 -35.5t8.5 -43.5t-8.5 -43.5t-23.5 -35.5t-35.5 -23.5t-43.5 -8.5t-43.5 8.5t-35.5 23.5t-23.5 35.5t-8.5 43.5zM69 371q0 23 8.5 43.5t23.5 35.5t35.5 24t43.5 9t43.5 -9t35.5 -24t23.5 -35.5 t8.5 -43.5t-8.5 -43.5t-23.5 -35.5t-35.5 -23.5t-43.5 -8.5t-43.5 8.5t-35.5 23.5t-23.5 35.5t-8.5 43.5z" />
<glyph unicode=";" horiz-adv-x="380" d="M31 -148l79 276h210v-7l-161 -277h-128v8zM89 371q0 23 8.5 43.5t23.5 35.5t35.5 24t43.5 9t43.5 -9t35.5 -24t23.5 -35.5t8.5 -43.5t-8.5 -43.5t-23.5 -35.5t-35.5 -23.5t-43.5 -8.5t-43.5 8.5t-35.5 23.5t-23.5 35.5t-8.5 43.5z" />
<glyph unicode="&#x3c;" horiz-adv-x="550" d="M50 280v82l404 210l60 -115l-279 -134l279 -138l-55 -115z" />
<glyph unicode="=" horiz-adv-x="550" d="M43 126v130h464v-130h-464zM43 338v130h464v-130h-464z" />
<glyph unicode="&#x3e;" horiz-adv-x="550" d="M36 185l279 138l-279 134l60 115l404 -210v-82l-409 -210z" />
<glyph unicode="?" horiz-adv-x="510" d="M59 101q0 23 8.5 43.5t23.5 35.5t35.5 24t43.5 9t43.5 -9t35.5 -24t23.5 -35.5t8.5 -43.5t-8.5 -43.5t-23.5 -35.5t-35.5 -23.5t-43.5 -8.5t-43.5 8.5t-35.5 23.5t-23.5 35.5t-8.5 43.5zM67 503l9 169q21 10 55.5 16.5t82.5 6.5q58 0 104.5 -14t79.5 -39.5t50.5 -60 t17.5 -76.5q0 -48 -21.5 -83.5t-54.5 -60.5t-71.5 -39.5t-72.5 -18.5v-52h-157v180q26 1 54.5 4t52.5 10t39.5 17.5t15.5 27.5q0 20 -18.5 29t-47.5 9q-62 0 -109 -25h-9z" />
<glyph unicode="@" horiz-adv-x="760" d="M47 290q0 89 32.5 164t89 130t133.5 85.5t166 30.5q54 0 102 -11t83.5 -33.5t54 -57t14.5 -82.5l-24 -263q-2 -28 6 -48.5t20 -33.5l-1 -10l-137 -34l-22 54h-7q-48 -46 -113 -46q-32 0 -60.5 10t-49.5 30.5t-33.5 50.5t-12.5 70q0 42 15.5 76.5t43.5 60t65 39.5t81 14 q17 0 38 -2t37 -6l2 20q3 32 -27.5 50.5t-85.5 18.5q-59 0 -106.5 -21t-81 -57.5t-51.5 -86.5t-18 -108q0 -66 19 -113t50.5 -77t72.5 -43.5t85 -13.5q42 0 78 10.5t58 25.5h5l49 -124q-51 -29 -101.5 -38.5t-104.5 -9.5q-32 0 -71.5 7t-80 23.5t-79 44.5t-68 70t-47.5 100 t-18 134zM432 307q0 -22 15.5 -32.5t35.5 -10.5q43 0 70 29l5 64q-12 2 -27.5 4.5t-27.5 2.5q-31 0 -51 -15t-20 -42z" />
<glyph unicode="A" horiz-adv-x="750" d="M10 0l257 680h215l258 -680h-236l-34 95h-191l-33 -95h-236zM324 254h99l-45 163h-7z" />
<glyph unicode="B" horiz-adv-x="640" d="M40 0v680h291q67 0 116 -13.5t80.5 -37t47 -55.5t15.5 -69q0 -19 -5 -40t-16.5 -41t-30 -37t-45.5 -28v-5q65 -18 98 -61t33 -94q0 -47 -21 -84t-58 -62.5t-87.5 -39t-109.5 -13.5h-308zM265 171h63q25 0 40.5 13.5t15.5 39.5t-16.5 38t-39.5 12h-63v-103zM265 406h47 q26 0 41.5 13.5t15.5 39.5t-18 38t-38 12h-48v-103z" />
<glyph unicode="C" horiz-adv-x="630" d="M27 334q0 74 28 139.5t76.5 115t115 78t143.5 28.5q61 0 112.5 -11.5t87.5 -33.5v-220h-5q-34 23 -74.5 39t-88.5 16q-30 0 -57.5 -8t-49.5 -26t-35 -46t-13 -67q0 -42 15.5 -69.5t38.5 -44t51 -23t53 -6.5q45 0 87.5 16t72.5 39h5v-220q-16 -9 -39 -17.5t-50 -14.5 t-55 -9.5t-53 -3.5q-85 0 -152.5 27.5t-115 74.5t-73 111t-25.5 136z" />
<glyph unicode="D" horiz-adv-x="700" d="M40 0v680h255q76 0 144.5 -21.5t120.5 -65t82.5 -108.5t30.5 -151q0 -74 -29.5 -135t-78.5 -105.5t-114 -69t-135 -24.5h-276zM265 200h45q22 0 44.5 9t39.5 26.5t28 44t11 61.5q0 39 -12 65.5t-30 43t-38.5 23.5t-38.5 7h-49v-280z" />
<glyph unicode="E" d="M40 0v680h480v-190h-255v-68h225v-164h-225v-68h262v-190h-487z" />
<glyph unicode="F" horiz-adv-x="530" d="M40 0v680h469v-190h-234v-84h199v-178h-199v-228h-235z" />
<glyph unicode="G" horiz-adv-x="720" d="M27 334q0 75 27.5 141t78 115t122 77t159.5 28q36 0 72.5 -6.5t70.5 -18.5t63.5 -28.5t51.5 -35.5l-83 -157h-5q-39 20 -79 33t-88 13q-30 0 -57.5 -9t-49.5 -28t-35 -48.5t-13 -71.5q0 -44 15.5 -73.5t39 -47t51 -25t51.5 -7.5q29 0 46.5 4t31.5 11v59h-143v158h331 v-339q-13 -15 -39.5 -31.5t-63.5 -30t-83.5 -22.5t-99.5 -9q-81 0 -149.5 26t-118 72.5t-77 110.5t-27.5 140z" />
<glyph unicode="H" horiz-adv-x="730" d="M40 0v680h240v-243h170v243h240v-680h-240v245h-170v-245h-240z" />
<glyph unicode="I" horiz-adv-x="330" d="M45 0v680h240v-680h-240z" />
<glyph unicode="J" horiz-adv-x="510" d="M15 14v200h6q19 -11 44.5 -17.5t52.5 -6.5q53 0 82.5 27t29.5 81v382h240v-412q0 -80 -30.5 -134t-75.5 -87t-97.5 -47.5t-96.5 -14.5q-95 0 -155 29z" />
<glyph unicode="K" horiz-adv-x="740" d="M40 0v680h240v-256h7l160 256h270v-5l-228 -326l256 -344v-5h-284l-174 257h-7v-257h-240z" />
<glyph unicode="L" horiz-adv-x="530" d="M40 0v680h240v-488h225v-192h-465z" />
<glyph unicode="M" horiz-adv-x="890" d="M15 0l122 680h186l120 -321h5l119 321h185l123 -680h-230l-46 269h-5l-87 -269h-125l-87 269h-5l-45 -269h-230z" />
<glyph unicode="N" horiz-adv-x="760" d="M40 0v680h207l236 -330h7v330h230v-680h-207l-236 327h-7v-327h-230z" />
<glyph unicode="O" horiz-adv-x="790" d="M27 335q0 81 30 147t81 113.5t117.5 73.5t140.5 26q73 0 139.5 -25.5t117 -72.5t80.5 -113.5t30 -148.5q0 -83 -31.5 -148t-83 -110t-117.5 -68.5t-136 -23.5q-68 0 -133.5 23t-118 67t-84.5 109.5t-32 150.5zM267 339q0 -39 11 -66.5t29 -44.5t41.5 -25t47.5 -8t46.5 8 t40.5 25t29 44.5t11 66.5q0 36 -10.5 63t-28.5 45.5t-41.5 28t-49.5 9.5q-24 0 -47 -9.5t-40.5 -27.5t-28 -45.5t-10.5 -63.5z" />
<glyph unicode="P" horiz-adv-x="630" d="M40 0v680h271q66 0 120.5 -14.5t94.5 -44.5t62 -75t22 -105t-26 -104t-67.5 -72.5t-93 -42t-102.5 -13.5h-46v-209h-235zM275 377h40q35 0 50 18t15 43q0 26 -17.5 44.5t-47.5 18.5h-40v-124z" />
<glyph unicode="Q" horiz-adv-x="790" d="M27 342q0 66 26 129t73.5 113t114.5 80.5t148 30.5q89 0 158.5 -30.5t117.5 -80t73 -111.5t25 -126q0 -85 -30.5 -149.5t-81 -108t-116 -66t-134.5 -22.5h-24.5t-15.5 2l-2 -11q31 -15 71 -23.5t81 -10.5q21 -2 40.5 -2t38.5 2q38 2 66 7l4 -4l-54 -184q-34 -4 -66 -4 q-42 0 -80 7q-65 12 -124 30t-115 34.5t-118 17.5l-5 5l72 189q-65 46 -104 115.5t-39 170.5zM267 339q0 -39 11 -66.5t29 -44.5t41.5 -25t47.5 -8t46.5 8t40.5 25t29 44.5t11 66.5q0 36 -10.5 63t-28.5 45.5t-41.5 28t-49.5 9.5q-24 0 -47 -9.5t-40.5 -27.5t-28 -45.5 t-10.5 -63.5z" />
<glyph unicode="R" horiz-adv-x="680" d="M40 0v680h309q65 0 115.5 -18t85 -47.5t52.5 -67t18 -76.5q0 -72 -31.5 -115.5t-86.5 -72.5l180 -278v-5h-259l-138 240h-10v-240h-235zM270 387h50q32 0 46 16.5t14 39.5q0 24 -16 41t-44 17h-50v-114z" />
<glyph unicode="S" horiz-adv-x="600" d="M12 78l69 178q53 -38 110.5 -59.5t112.5 -21.5q29 0 40.5 6t11.5 17q0 9 -10.5 16t-28.5 13q-56 19 -105.5 41t-86.5 51.5t-58 69t-21 95.5q0 44 15.5 82.5t47 67t79 45t112.5 16.5q78 0 144 -20.5t120 -54.5l-61 -179q-23 15 -48 27t-50 20.5t-48 12.5t-40 4 q-20 0 -33.5 -4t-13.5 -18q0 -11 20.5 -22.5t57.5 -24.5q61 -21 104.5 -44.5t71.5 -52.5t40.5 -65.5t12.5 -84.5q0 -58 -27 -97t-68.5 -63t-91.5 -34t-96 -10q-44 0 -85.5 7.5t-78 20t-67 29.5t-51.5 36z" />
<glyph unicode="T" horiz-adv-x="610" d="M11 488v192h588v-192h-174v-488h-240v488h-174z" />
<glyph unicode="U" horiz-adv-x="710" d="M40 252v428h240v-401q0 -39 17.5 -61.5t57.5 -22.5q32 0 53.5 22t21.5 62v401h240v-416q0 -54 -21 -104t-61 -89t-98.5 -62.5t-134.5 -23.5q-96 0 -157 27t-96 67.5t-48.5 87t-13.5 85.5z" />
<glyph unicode="V" horiz-adv-x="720" d="M-5 680h255l108 -358h5l112 358h250l-273 -680h-185z" />
<glyph unicode="W" horiz-adv-x="960" d="M-5 680h240l82 -322h5l75 322h166l75 -322h5l82 322h240l-210 -680h-199l-73 288h-6l-73 -288h-199z" />
<glyph unicode="X" horiz-adv-x="730" d="M-2 0l228 339l-223 341h262l100 -177l101 177h261l-224 -340l229 -340h-264l-104 175l-104 -175h-262z" />
<glyph unicode="Y" horiz-adv-x="690" d="M-10 680h245l109 -219h5l106 219h245l-235 -415v-265h-240v265z" />
<glyph unicode="Z" horiz-adv-x="630" d="M4 7l278 480l-2 3h-253v190h596l3 -5l-277 -481l2 -4h263v-190h-605z" />
<glyph unicode="[" horiz-adv-x="510" d="M117 -164l5 454l-5 434l319 -4v-145l-129 2l-5 -290l5 -304l135 2v-145z" />
<glyph unicode="\" horiz-adv-x="570" d="M10 700h160l390 -860h-160z" />
<glyph unicode="]" horiz-adv-x="510" d="M68 -15l135 -2l5 304l-5 290l-129 -2v145l319 4l-5 -434l5 -454l-325 4v145z" />
<glyph unicode="^" horiz-adv-x="530" d="M30 314l222 377h27l221 -377l-58 -33l-172 300h-8l-175 -300z" />
<glyph unicode="_" horiz-adv-x="530" d="M-25 -100h580v-125h-580v125z" />
<glyph unicode="`" horiz-adv-x="500" d="M62 615v10h184l106 -154v-8h-131z" />
<glyph unicode="a" d="M16 135q0 40 17.5 69.5t47.5 48.5t69 28t82 9q26 0 41 -2t35 -6v18q0 23 -19 31.5t-50 8.5q-37 0 -77 -9.5t-75 -25.5l-37 139q18 9 45.5 17t60 15t66.5 11t65 4q49 0 92 -10.5t74.5 -34t50 -60.5t18.5 -91v-182q0 -22 2 -36t6 -23t9.5 -14t11.5 -8v-10l-164 -40 q-8 3 -15.5 9t-13.5 14t-10 16t-5 14h-7q-25 -22 -62 -36t-91 -14q-33 0 -63.5 8.5t-53.5 27t-36.5 47t-13.5 67.5zM222 160q0 -20 12 -30.5t29 -10.5q28 0 45 23v52q-11 3 -20 5t-20 2q-18 0 -32 -9t-14 -32z" />
<glyph unicode="b" horiz-adv-x="600" d="M33 39v638l230 15v-237h5q18 16 48.5 26t56.5 10q50 0 88.5 -18.5t65 -50.5t40 -75.5t13.5 -92.5q0 -59 -20.5 -108t-61 -85t-100.5 -56t-140 -20q-27 0 -57.5 3t-60.5 9.5t-57.5 16.5t-49.5 25zM263 154q5 -6 15 -9.5t19 -3.5q28 0 41.5 26t13.5 68q0 45 -12.5 73 t-38.5 28q-14 0 -24.5 -8t-13.5 -15v-159z" />
<glyph unicode="c" horiz-adv-x="480" d="M20 224q0 58 21 107t58 84.5t87.5 55.5t109.5 20q42 0 81 -7t77 -24v-162h-5q-29 16 -52.5 24.5t-47.5 8.5q-45 0 -73 -26.5t-28 -63.5q0 -29 9.5 -47.5t24 -29t32.5 -14.5t35 -4q55 0 100 33h5v-161q-17 -9 -37 -15.5t-41 -10t-40.5 -5.5t-34.5 -2q-65 0 -117 18 t-88.5 49.5t-56 75.5t-19.5 96z" />
<glyph unicode="d" horiz-adv-x="600" d="M20 212q0 56 16 106.5t44.5 89t67.5 61t84 22.5q41 0 65.5 -10t34.5 -18h5v214l230 15v-692h-208l-12 48h-5q-23 -32 -61.5 -47.5t-76.5 -15.5q-36 0 -69.5 15t-59 44t-40.5 71.5t-15 96.5zM248 228q0 -45 13.5 -66t34.5 -21q13 0 23.5 6t17.5 16v159q-5 5 -15 9.5 t-22 4.5q-25 0 -38.5 -29t-13.5 -79z" />
<glyph unicode="e" horiz-adv-x="540" d="M20 212q0 61 21 112.5t57 88.5t84.5 57.5t103.5 20.5t98.5 -17.5t73.5 -47t46 -67t16 -76.5q0 -14 -2.5 -37t-12.5 -45h-276q0 -37 28.5 -52t76.5 -15q21 0 44 2t45 6t40.5 9.5t29.5 12.5h5l-20 -140q-22 -11 -48.5 -18.5t-54 -12t-54.5 -6.5t-49 -2q-52 0 -98 13 t-80 40.5t-54 70.5t-20 103zM232 279h98q1 7 1 14q0 23 -11 36q-14 17 -31 17q-20 0 -37.5 -18t-19.5 -49z" />
<glyph unicode="f" horiz-adv-x="400" d="M15 312v132l70 41v9q0 31 10 59t27 52t39.5 42.5t47.5 29.5l184 15l10 -124q-47 -3 -70 -27t-23 -53v-12h80v-164h-75v-312h-230v312h-70z" />
<glyph unicode="g" horiz-adv-x="600" d="M20 231q0 52 17 99.5t49 83t78 56.5t104 21q43 0 79.5 -12.5t69.5 -32.5l71 34l79 -8v-402q0 -80 -26 -133.5t-70 -85.5t-102 -45t-121 -13q-49 0 -103.5 13t-96.5 36l43 147h5q28 -20 66 -30.5t75 -10.5q17 0 36 3.5t35.5 12.5t27.5 23.5t11 35.5v31h-8 q-32 -26 -63.5 -34.5t-54.5 -8.5q-42 0 -78.5 14.5t-63.5 42t-43 68.5t-16 95zM248 228q0 -42 13.5 -61t34.5 -19q13 0 23.5 6t17.5 16v152q-5 5 -15 9.5t-22 4.5q-25 0 -38.5 -29t-13.5 -79z" />
<glyph unicode="h" horiz-adv-x="600" d="M33 0v677l230 15v-266h6q16 23 50.5 44t86.5 21q28 0 56.5 -9.5t52 -29t38 -49.5t14.5 -71v-332h-230v276q0 17 -9 26.5t-23 9.5t-25 -5.5t-17 -12.5v-294h-230z" />
<glyph unicode="i" horiz-adv-x="300" d="M26 602q0 35 29.5 62t94.5 27q64 0 94 -27t30 -62q0 -34 -30.5 -59.5t-93.5 -25.5q-34 0 -57.5 7t-38.5 19t-21.5 27t-6.5 32zM35 0v466l230 15v-481h-230z" />
<glyph unicode="j" horiz-adv-x="300" d="M-23 -148q35 20 46.5 60t11.5 115v439l230 15v-453q0 -83 -22.5 -132.5t-54.5 -76.5l-204 -26zM26 602q0 18 7 34t22 28t38.5 19.5t56.5 7.5q64 0 94 -27t30 -62q0 -34 -30.5 -59.5t-93.5 -25.5q-34 0 -57.5 7t-38.5 19t-21.5 27t-6.5 32z" />
<glyph unicode="k" horiz-adv-x="610" d="M33 0v677l230 15v-377h7l96 161h248v-5l-159 -224l159 -242v-5h-248l-97 178h-6v-178h-230z" />
<glyph unicode="l" horiz-adv-x="300" d="M35 0v677l230 15v-692h-230z" />
<glyph unicode="m" horiz-adv-x="890" d="M33 0v476h203l14 -66h5q35 46 75 63.5t82 17.5q50 0 84 -24t50 -61h5q28 41 71 63t97 22q28 0 53 -8.5t44 -27t30 -47.5t11 -69v-339h-230v283q0 17 -8.5 23t-19.5 6q-10 0 -20.5 -5.5t-18.5 -11.5v-295h-230v283q0 29 -28 29q-12 0 -23.5 -6.5t-15.5 -10.5v-295h-230z " />
<glyph unicode="n" horiz-adv-x="600" d="M33 0v476h204l13 -66h6q22 37 62 59t91 22q28 0 56 -9.5t50.5 -29.5t37 -50.5t14.5 -71.5v-330h-230v272q0 20 -9 30t-23 10q-12 0 -24.5 -6t-17.5 -12v-294h-230z" />
<glyph unicode="o" horiz-adv-x="580" d="M20 234q0 55 20.5 102.5t56.5 81.5t84.5 53.5t104.5 19.5q60 0 110.5 -19.5t87 -54t56.5 -81.5t20 -102q0 -51 -20.5 -96.5t-56.5 -79.5t-85.5 -53.5t-107.5 -19.5q-54 0 -103 17t-86 49.5t-59 78.5t-22 104zM246 235q0 -53 12 -73.5t32 -20.5q17 0 30.5 20.5t13.5 73.5 q0 56 -11.5 78.5t-32.5 22.5q-20 0 -32 -22.5t-12 -78.5z" />
<glyph unicode="p" horiz-adv-x="600" d="M33 -204v676l46 8l127 -34q27 20 60 32.5t81 12.5q43 0 84.5 -14t74.5 -43.5t53.5 -75.5t20.5 -111q0 -61 -18.5 -109.5t-49.5 -82t-71 -51.5t-83 -18q-20 0 -34 1.5t-24 4.5t-17 6.5t-13 7.5h-7v-198zM263 154q5 -6 15 -9.5t19 -3.5q28 0 41.5 26t13.5 68q0 45 -12.5 73 t-38.5 28q-14 0 -24.5 -8t-13.5 -15v-159z" />
<glyph unicode="q" horiz-adv-x="600" d="M20 218q0 76 23 128t58 84.5t76 46.5t77 14q51 0 88.5 -14t63.5 -31l80 34l81 -8v-664l-230 -12v220h-7q-17 -14 -47.5 -22t-65.5 -8q-26 0 -60 10t-64.5 36.5t-51.5 71.5t-21 114zM248 228q0 -45 13.5 -66t34.5 -21q13 0 23.5 6t17.5 16v159q-5 5 -15 9.5t-22 4.5 q-25 0 -38.5 -29t-13.5 -79z" />
<glyph unicode="r" horiz-adv-x="440" d="M33 0v476h178l15 -97h10q13 27 32 46.5t41 31.5t44 18t40 6h24v-214h-34q-36 -6 -59 -21.5t-36.5 -36.5t-19 -45.5t-5.5 -49.5v-114h-230z" />
<glyph unicode="s" horiz-adv-x="480" d="M12 24l38 152q19 -10 42.5 -18.5t48 -14.5t47 -9t39.5 -3q16 0 29.5 2.5t13.5 10.5q0 10 -15 15.5t-45 12.5q-59 14 -96 32t-58 39t-28.5 44.5t-7.5 50.5q0 37 17.5 66t47 48t69.5 29t85 10q64 0 114 -11.5t98 -36.5l-35 -137q-13 6 -31.5 13t-40 12.5t-43.5 9.5t-42 4 q-16 0 -25.5 -2.5t-9.5 -7.5t10 -11.5t48 -15.5q56 -14 90.5 -31.5t54 -38.5t26.5 -45.5t7 -51.5q0 -46 -20 -76t-51 -48t-69 -25t-74 -7q-74 0 -131.5 11t-102.5 28z" />
<glyph unicode="t" horiz-adv-x="400" d="M15 312v132l75 41v130l230 25v-164h72v-164h-72v-312h-230v312h-75z" />
<glyph unicode="u" horiz-adv-x="600" d="M33 152v324h230v-272q0 -24 12 -32t23 -8q13 0 24.5 8.5t14.5 19.5v284h230v-476h-204l-13 56h-7q-22 -30 -60 -50.5t-87 -20.5q-32 0 -61 10t-52 30.5t-36.5 52t-13.5 74.5z" />
<glyph unicode="v" d="M-5 476h228l38 -139l16 -88h6l16 88l38 139h228l-210 -476h-160z" />
<glyph unicode="w" horiz-adv-x="780" d="M-5 476h218l35 -134l16 -91h7l15 91l32 134h144l32 -134l15 -91h7l16 91l35 134h218l-169 -476h-178l-31 144l-14 76h-6l-14 -76l-31 -144h-178z" />
<glyph unicode="x" horiz-adv-x="570" d="M1 0l147 238l-147 238h229l55 -116l55 116h229l-147 -238l147 -238h-229l-55 115l-55 -115h-229z" />
<glyph unicode="y" d="M-5 476h228l38 -164l16 -76h6l15 76l39 164h228l-233 -563q-7 -16 -17.5 -32t-23.5 -29t-28 -22t-30 -11l-210 -26l-6 58q44 26 83 74.5t58 130.5z" />
<glyph unicode="z" horiz-adv-x="510" d="M15 6l180 304l-1 2h-161v164h459l4 -6l-180 -304l1 -2h174v-164h-472z" />
<glyph unicode="{" horiz-adv-x="510" d="M75 232v110q41 0 68 26t27 64q0 19 -5 36.5t-10.5 34t-10.5 33.5t-5 36q0 41 17.5 69.5t56 46t98.5 25t144 7.5v-130q-59 0 -88.5 -9t-29.5 -40q0 -20 5.5 -38t12 -35t12 -32.5t5.5 -28.5q0 -20 -12.5 -38t-33.5 -32t-48.5 -23t-57.5 -11v-30q31 -2 58.5 -10t48.5 -22 t33 -32t12 -39q0 -15 -5.5 -31t-12 -33.5t-12 -35.5t-5.5 -37q0 -15 3.5 -27t15.5 -20t35.5 -12t63.5 -4v-130q-90 0 -150.5 10.5t-98 30.5t-53.5 49.5t-16 67.5q0 18 5 35.5t11.5 35t11.5 35t5 34.5q0 45 -27 69.5t-68 24.5z" />
<glyph unicode="|" horiz-adv-x="550" d="M206 -230v980h138v-980h-138z" />
<glyph unicode="}" horiz-adv-x="510" d="M55 -30q40 0 63.5 4t35.5 12t15.5 20t3.5 27q0 19 -5.5 37t-12 35.5t-12 33.5t-5.5 31q0 21 12 39t33 32t48.5 22t58.5 10v30q-30 2 -57.5 11t-48.5 23t-33.5 32t-12.5 38q0 13 5.5 28.5t12 32.5t12 35t5.5 38q0 31 -29.5 40t-88.5 9v130q84 0 144 -7.5t98.5 -25t56 -46 t17.5 -69.5q0 -19 -5 -36t-10.5 -33.5t-10.5 -34t-5 -36.5q0 -38 27 -64t68 -26v-110q-41 0 -68 -24.5t-27 -69.5q0 -17 5 -34.5t11.5 -35t11.5 -35t5 -35.5q0 -38 -16 -67.5t-53.5 -49.5t-98 -30.5t-150.5 -10.5v130z" />
<glyph unicode="~" horiz-adv-x="530" d="M32 203q0 40 11.5 71.5t30.5 53t44.5 32.5t52.5 11q34 0 60 -15.5t48.5 -34t42.5 -34t43 -15.5q32 0 50.5 29t18.5 68h68q0 -36 -10 -67t-28 -53.5t-43.5 -35t-56.5 -12.5q-35 0 -60.5 15.5t-47 33.5t-41.5 33.5t-44 15.5q-33 0 -54 -27.5t-21 -68.5h-64z" />
<glyph unicode="&#xa1;" horiz-adv-x="380" d="M68 -190l22 235l25 187h147l26 -186l24 -236h-244zM79 389q0 23 8.5 43.5t23.5 35.5t35.5 23.5t43.5 8.5t43.5 -8.5t35.5 -23.5t23.5 -35.5t8.5 -43.5t-8.5 -43.5t-23.5 -35.5t-35.5 -24t-43.5 -9t-43.5 9t-35.5 24t-23.5 35.5t-8.5 43.5z" />
<glyph unicode="&#xa2;" horiz-adv-x="470" d="M46 320q0 54 19.5 99.5t53 79t77.5 52.5t94 21l11 99l73 -7l-10 -99q24 -5 44.5 -14t40.5 -22l-35 -134q-33 23 -70 32l-20 -188q27 4 49 14t39 21l25 -135q-22 -15 -54.5 -27t-68.5 -15l-11 -109l-73 7l10 105q-44 7 -79.5 26t-61 47.5t-39.5 65.5t-14 81zM211 322 q0 -33 14.5 -52t37.5 -27l19 185q-32 -8 -51.5 -36t-19.5 -70z" />
<glyph unicode="&#xa3;" horiz-adv-x="600" d="M43 85q26 16 46.5 37.5t34.5 45.5t21.5 49t7.5 48q0 11 -1 21.5t-3 21.5h-86v95h57q-10 29 -17.5 56t-7.5 53q0 49 20.5 84t55 57t80 32t95.5 10q101 0 179 -40l-26 -150q-17 12 -48 22t-61 10q-40 0 -66 -16t-26 -55q0 -14 5 -30t12 -33h120v-95h-82q3 -11 3 -20 q0 -32 -21 -63.5t-73 -57.5l8 -14q32 16 57 22.5t48 6.5q16 0 29.5 -5t26.5 -10.5t25 -10.5t25 -5q20 0 36 5.5t33 21.5h6l6 -148q-23 -21 -56 -33t-68 -12q-25 0 -48 7.5t-45.5 16t-46 16t-48.5 7.5q-53 0 -92.5 -14t-69.5 -28z" />
<glyph unicode="&#xa4;" horiz-adv-x="640" d="M83 463q5 15 16.5 27t26.5 17t24 -4l46 -47q26 17 57.5 27t66.5 10q68 0 121 -34l43 45q10 10 25.5 4t28 -19.5t18.5 -29.5t-3 -25l-45 -43q33 -53 33 -119q0 -35 -10 -66.5t-27 -58.5l48 -46q10 -10 5.5 -25.5t-16 -27.5t-26 -17t-24.5 5l-50 50q-53 -35 -121 -35 q-66 0 -119 31l-42 -44q-10 -11 -26 -6t-29.5 17t-19 27.5t5.5 26.5l44 43q-35 53 -35 126q0 34 9 65t26 57l-45 44q-11 10 -6 25zM211 271q0 -51 29.5 -83.5t80.5 -32.5q22 0 41.5 8.5t34 24t22.5 37t8 46.5q0 52 -30.5 84.5t-76.5 32.5q-52 0 -80.5 -33.5t-28.5 -83.5z " />
<glyph unicode="&#xa5;" horiz-adv-x="670" d="M0 680h225l110 -239h5l105 239h225l-215 -395v-1h80v-85h-80v-34h80v-85h-80v-80h-240v80h-80v85h80v34h-80v85h80v1z" />
<glyph unicode="&#xa6;" horiz-adv-x="550" d="M206 120h138v-350h-138v350zM206 400v350h138v-350h-138z" />
<glyph unicode="&#xa7;" horiz-adv-x="640" d="M58 -108l34 161q43 -26 99.5 -44t113.5 -18q73 0 73 26q0 15 -25 27.5t-59 23.5q-74 24 -120.5 48.5t-72 50t-34.5 51.5t-9 53q0 39 18.5 75.5t53.5 65.5q-67 52 -67 118q0 33 15.5 63t46 52.5t77 36t109.5 13.5q37 0 72 -4.5t66 -12t57 -17t45 -18.5l-32 -162 q-42 27 -97.5 44.5t-113.5 17.5q-27 0 -39 -6.5t-12 -17.5q0 -10 16 -19.5t58 -20.5q81 -22 130 -48t76 -54.5t36 -59t9 -61.5q0 -33 -17.5 -65t-49.5 -58q33 -29 47.5 -61.5t14.5 -66.5q0 -42 -19.5 -73.5t-54.5 -52t-83 -30.5t-106 -10q-42 0 -81.5 4.5t-73 12t-59.5 17 t-42 19.5zM222 311q0 -27 32.5 -50.5t112.5 -49.5l22 -8t21 -8q8 18 8 36q0 30 -27.5 52t-92.5 45q-17 6 -32.5 12t-30.5 12q-13 -20 -13 -41z" />
<glyph unicode="&#xa8;" horiz-adv-x="500" d="M72 538q0 34 24 55.5t54 21.5q32 0 54 -21.5t22 -55.5q0 -32 -22 -53.5t-54 -21.5q-30 0 -54 21t-24 54zM274 538q0 33 23 55t54 22q28 0 52.5 -21t24.5 -56q0 -17 -7 -30.5t-18 -23.5t-24.5 -15.5t-27.5 -5.5q-31 0 -54 21.5t-23 53.5z" />
<glyph unicode="&#xa9;" horiz-adv-x="790" d="M83 323q0 64 24.5 121t67.5 99.5t99.5 67t121.5 24.5q67 0 124.5 -24.5t98.5 -67t64.5 -99.5t23.5 -121q0 -65 -22.5 -121.5t-63.5 -99.5t-98.5 -67.5t-126.5 -24.5q-65 0 -121.5 23t-99.5 64.5t-67.5 99t-24.5 126.5zM142 321q0 -56 19.5 -103t53.5 -81t80.5 -53 t101.5 -19q54 0 100 19t79.5 53t52.5 81t19 103q0 58 -19.5 106t-53.5 82.5t-80 53.5t-99 19t-99 -19.5t-80.5 -54.5t-54.5 -82.5t-20 -104.5zM218 320q0 45 15 81t40.5 61t59.5 38t72 13t70 -11.5t49 -22.5l-16 -81q-6 3 -16 8.5t-23.5 11t-30 9t-34.5 3.5t-35.5 -6 t-31 -19t-22 -33.5t-8.5 -49.5q0 -44 27 -72.5t71 -28.5q33 0 59 10.5t49 24.5l18 -80q-22 -16 -56 -27t-71 -11q-42 0 -76 14t-58.5 39t-38 58t-13.5 71z" />
<glyph unicode="&#xaa;" horiz-adv-x="440" d="M13 409q0 31 13.5 53.5t37 37.5t53.5 22t63 7q20 0 31.5 -1.5t26.5 -4.5v14q0 17 -14.5 23.5t-38.5 6.5q-29 0 -59.5 -7t-57.5 -20l-29 108q14 6 35.5 12.5t46.5 12t51 8.5t50 3q38 0 71.5 -8t58 -26t39 -47t13.5 -70v-133q-1 -34 5.5 -46t16.5 -17v-15l-127 -31 q-11 4 -21.5 18t-12.5 23h-5q-19 -17 -47.5 -28t-70.5 -11q-26 0 -49.5 6.5t-41 21t-28 36.5t-10.5 52zM172 428q0 -15 9 -23t23 -8q22 0 34 18v40q-8 2 -15 3.5t-15 1.5q-14 0 -25 -7t-11 -25z" />
<glyph unicode="&#xab;" horiz-adv-x="700" d="M64 224v9l223 231l91 -67l-125 -167l122 -167l-93 -72zM314 224v9l223 231l91 -67l-125 -167l122 -167l-93 -72z" />
<glyph unicode="&#xac;" horiz-adv-x="530" d="M33 245v68h457v-261h-68v193h-389z" />
<glyph unicode="&#xad;" horiz-adv-x="380" d="M40 155v159h300v-159h-300z" />
<glyph unicode="&#xae;" d="M56 471q0 48 17.5 89t48 71t71.5 47t87 17q48 0 89 -17t71 -47t47 -71t17 -89t-17.5 -89t-48 -71t-71.5 -47t-87 -17t-87 16t-71.5 45.5t-48 70.5t-17.5 92zM108 470q0 -39 13 -71t36 -55t54.5 -35.5t69.5 -12.5q35 0 66 12.5t54.5 35.5t37 55t13.5 71t-13.5 71.5 t-37 55.5t-55 36t-66.5 13q-40 0 -71.5 -14t-54 -38t-34.5 -56t-12 -68zM187 354v249h88q44 0 68 -19.5t24 -53.5q0 -28 -15.5 -45t-40.5 -24l87 -103v-4h-69l-80 99h-3v-99h-59zM246 501h35q9 0 18 5.5t9 22.5q0 13 -9.5 19.5t-20.5 6.5h-32v-54z" />
<glyph unicode="&#xaf;" horiz-adv-x="500" d="M108 483v105h284v-105h-284z" />
<glyph unicode="&#xb0;" horiz-adv-x="370" d="M42 551q0 30 11.5 56t31 45.5t45.5 31t55 11.5q30 0 56 -11.5t45.5 -31t31 -45.5t11.5 -56q0 -29 -11.5 -55t-31 -45.5t-45.5 -31t-56 -11.5q-29 0 -55 11.5t-45.5 31t-31 45.5t-11.5 55zM120 551q0 -29 17.5 -50.5t46.5 -21.5t47.5 21.5t18.5 50.5t-18.5 51.5 t-47.5 22.5t-46.5 -22.5t-17.5 -51.5z" />
<glyph unicode="&#xb1;" horiz-adv-x="550" d="M43 0v130h464v-130h-464zM43 326v130h167v157h130v-157h167v-130h-167v-157h-130v157h-167z" />
<glyph unicode="&#xb2;" horiz-adv-x="360" d="M24 482q49 32 81 57.5t51.5 46t27.5 36t8 28.5q0 17 -9.5 27.5t-31.5 10.5q-21 0 -47 -8t-50 -25l-25 98q26 20 67.5 32t86.5 12q31 0 58 -6t47.5 -19.5t32 -34.5t11.5 -51q0 -42 -31.5 -81t-75.5 -67l2 -5l108 4v-122h-296z" />
<glyph unicode="&#xb3;" horiz-adv-x="360" d="M25 528h4q23 -14 51.5 -19.5t57.5 -5.5q30 0 43.5 8.5t13.5 23.5q0 12 -11.5 19.5t-34.5 6.5l-82 -4l4 91l76 -4q17 -1 27.5 7.5t10.5 25.5q0 12 -14 18t-37 6q-27 0 -48.5 -5.5t-37.5 -11.5h-3l5 96q20 8 47 12.5t65 4.5q75 0 120.5 -27t45.5 -74q0 -33 -18.5 -54 t-48.5 -32v-5q33 -10 53.5 -32t20.5 -51q0 -37 -22 -59.5t-52.5 -35t-64 -16.5t-57.5 -4q-65 0 -111 20z" />
<glyph unicode="&#xb4;" horiz-adv-x="500" d="M148 463v8l106 154h184v-10l-159 -152h-131z" />
<glyph unicode="&#xb5;" horiz-adv-x="670" d="M22 -142q0 14 1.5 46t4 73.5t4 88.5t1.5 91v319h230v-272q0 -24 12 -32t23 -8q13 0 24.5 8.5t14.5 19.5v284h230v-342q0 -16 6.5 -26t17.5 -10q10 0 17.5 9.5t11.5 19.5l38 -16q-14 -40 -34 -65.5t-43 -39.5t-47.5 -19.5t-45.5 -5.5q-95 0 -138 75h-7q-22 -30 -60 -50.5 t-87 -20.5q-27 0 -54 8q5 -42 9 -75.5t7 -56.5q2 -20 -3.5 -33.5t-15 -21.5t-22 -11.5t-23.5 -3.5q-35 0 -53.5 19t-18.5 48z" />
<glyph unicode="&#xb6;" horiz-adv-x="810" d="M57 439q0 55 23 100t63.5 76t96.5 48t123 17h379v-112h-47v-725h-135v725h-50v-725h-135v355q-73 0 -131.5 17t-100 48t-64 75.5t-22.5 100.5zM272 440q0 -63 27 -101.5t76 -38.5v268q-45 0 -74 -35.5t-29 -92.5z" />
<glyph unicode="&#xb7;" horiz-adv-x="340" d="M59 308q0 23 8.5 43.5t23.5 35.5t35.5 24t43.5 9t43.5 -9t35.5 -24t23.5 -35.5t8.5 -43.5t-8.5 -43.5t-23.5 -35.5t-35.5 -23.5t-43.5 -8.5t-43.5 8.5t-35.5 23.5t-23.5 35.5t-8.5 43.5z" />
<glyph unicode="&#xb8;" horiz-adv-x="500" d="M175 -105l58 135h87l-38 -80q50 0 84 -17.5t34 -54.5q0 -42 -52 -70.5t-151 -36.5l-8 60q35 2 58.5 12.5t23.5 24.5q0 11 -17.5 16.5t-43.5 5.5q-6 0 -15.5 -0.5t-14.5 -1.5z" />
<glyph unicode="&#xb9;" horiz-adv-x="360" d="M44 765l199 28l18 -12v-366h-130v248l-72 -10z" />
<glyph unicode="&#xba;" horiz-adv-x="440" d="M12 483q0 43 16 79t43.5 62.5t65 41.5t80.5 15q46 0 85 -15t67 -41.5t43.5 -63t15.5 -78.5q0 -40 -15.5 -75t-43.5 -61t-66 -41t-83 -15q-42 0 -79.5 13.5t-66 38t-45.5 60t-17 80.5zM186 484q0 -41 9 -57t25 -16q13 0 23.5 16t10.5 57q0 43 -8.5 60.5t-25.5 17.5 q-16 0 -25 -17.5t-9 -60.5z" />
<glyph unicode="&#xbb;" horiz-adv-x="700" d="M72 397l91 67l223 -231v-9l-218 -233l-93 72l122 167zM322 397l91 67l223 -231v-9l-218 -233l-93 72l122 167z" />
<glyph unicode="&#xbc;" horiz-adv-x="820" d="M40 665l199 28l18 -12v-366h-130v248l-72 -10zM106 -19l299 364l280 358l51 -31l-292 -349l-287 -375zM408 113l171 221h118v-198l42 2v-90h-42v-88h-116v88h-165zM510 134l3 -6l68 3v94l-2 1z" />
<glyph unicode="&#xbd;" horiz-adv-x="820" d="M40 665l199 28l18 -12v-366h-130v248l-72 -10zM106 -19l299 364l280 358l51 -31l-292 -349l-287 -375zM480 27q49 32 81 57.5t51.5 46t27.5 36t8 28.5q0 17 -9.5 27.5t-31.5 10.5q-21 0 -47 -8t-50 -25l-25 98q26 20 67.5 32t86.5 12q31 0 58 -6t47.5 -19.5t32 -34.5 t11.5 -51q0 -42 -31.5 -81t-75.5 -67l2 -5l108 4v-122h-296z" />
<glyph unicode="&#xbe;" horiz-adv-x="820" d="M46 428h4q23 -14 51.5 -19.5t57.5 -5.5q30 0 43.5 8.5t13.5 23.5q0 12 -11.5 19.5t-34.5 6.5l-82 -4l4 91l76 -4q17 -1 27.5 7.5t10.5 25.5q0 12 -14 18t-37 6q-27 0 -48.5 -5.5t-37.5 -11.5h-3l5 96q20 8 47 12.5t65 4.5q75 0 120.5 -27t45.5 -74q0 -33 -18.5 -54 t-48.5 -32v-5q33 -10 53.5 -32t20.5 -51q0 -37 -22 -59.5t-52.5 -35t-64 -16.5t-57.5 -4q-65 0 -111 20zM106 -19l299 364l280 358l51 -31l-292 -349l-287 -375zM408 113l171 221h118v-198l42 2v-90h-42v-88h-116v88h-165zM510 134l3 -6l68 3v94l-2 1z" />
<glyph unicode="&#xbf;" horiz-adv-x="510" d="M44 70q0 48 21.5 83.5t54.5 60.5t71.5 39t72.5 19v52h157v-180q-26 -1 -54.5 -4t-52.5 -10t-39.5 -18t-15.5 -27q0 -20 18.5 -29t47.5 -9q62 0 109 25h9l-9 -169q-21 -10 -55.5 -16.5t-82.5 -6.5q-58 0 -104.5 14t-79.5 39.5t-50.5 60t-17.5 76.5zM229 474q0 23 8.5 43.5 t23.5 35.5t35.5 23.5t43.5 8.5t43.5 -8.5t35.5 -23.5t23.5 -35.5t8.5 -43.5t-8.5 -43.5t-23.5 -35.5t-35.5 -24t-43.5 -9t-43.5 9t-35.5 24t-23.5 35.5t-8.5 43.5z" />
<glyph unicode="&#xc0;" horiz-adv-x="750" d="M10 0l257 680h215l258 -680h-236l-34 95h-191l-33 -95h-236zM187 862v10h184l106 -134v-8h-126zM324 254h99l-45 163h-7z" />
<glyph unicode="&#xc1;" horiz-adv-x="750" d="M10 0l257 680h215l258 -680h-236l-34 95h-191l-33 -95h-236zM273 730v8l106 134h184v-10l-164 -132h-126zM324 254h99l-45 163h-7z" />
<glyph unicode="&#xc2;" horiz-adv-x="750" d="M10 0l257 680h215l258 -680h-236l-34 95h-191l-33 -95h-236zM190 730v8l146 134h81l146 -134v-8h-111l-76 53l-75 -53h-111zM324 254h99l-45 163h-7z" />
<glyph unicode="&#xc3;" horiz-adv-x="750" d="M10 0l257 680h215l258 -680h-236l-34 95h-191l-33 -95h-236zM186 749q0 35 9.5 64t26.5 50t39.5 32.5t48.5 11.5q22 0 38 -10t30 -22.5t27 -22.5t28 -10q17 0 26 17t9 43h95q0 -35 -9 -64t-25 -50t-38.5 -32.5t-50.5 -11.5q-24 0 -41.5 10t-31 22t-25 22t-23.5 10 q-19 0 -29.5 -16.5t-10.5 -42.5h-93zM324 254h99l-45 163h-7z" />
<glyph unicode="&#xc4;" horiz-adv-x="750" d="M10 0l257 680h215l258 -680h-236l-34 95h-191l-33 -95h-236zM197 815q0 34 24 55.5t54 21.5q32 0 54 -21.5t22 -55.5q0 -32 -22 -53.5t-54 -21.5q-30 0 -54 21t-24 54zM324 254h99l-45 163h-7zM399 815q0 33 23 55t54 22q28 0 52.5 -21t24.5 -56q0 -17 -7 -30.5 t-18 -23.5t-24.5 -15.5t-27.5 -5.5q-31 0 -54 21.5t-23 53.5z" />
<glyph unicode="&#xc5;" horiz-adv-x="750" d="M10 0l257 680h215l258 -680h-236l-34 95h-191l-33 -95h-236zM262 841q0 24 9 44.5t24 35.5t35.5 24t44.5 9t44.5 -9t35.5 -24t24 -35.5t9 -44.5t-9 -44.5t-24 -35.5t-35.5 -24t-44.5 -9t-44.5 9t-35.5 24t-24 35.5t-9 44.5zM324 254h99l-45 163h-7zM337 841 q0 -17 10 -28.5t27 -11.5t27.5 11.5t10.5 28.5t-10.5 29.5t-27.5 12.5t-27 -12.5t-10 -29.5z" />
<glyph unicode="&#xc6;" horiz-adv-x="1010" d="M10 0l437 680h523v-190h-255v-68h225v-164h-225v-68h262v-190h-477v95h-207l-57 -95h-226zM388 254h112v179h-9z" />
<glyph unicode="&#xc7;" horiz-adv-x="630" d="M27 334q0 74 28 139.5t76.5 115t115 78t143.5 28.5q61 0 112.5 -11.5t87.5 -33.5v-220h-5q-34 23 -74.5 39t-88.5 16q-30 0 -57.5 -8t-49.5 -26t-35 -46t-13 -67q0 -42 15.5 -69.5t38.5 -44t51 -23t53 -6.5q45 0 87.5 16t72.5 39h5v-220q-15 -9 -37.5 -17t-48.5 -14 t-53 -10t-52 -4l-16 -35q50 0 84 -17.5t34 -54.5q0 -42 -52 -70.5t-151 -36.5l-8 60q35 2 58.5 12.5t23.5 24.5q0 11 -17.5 16.5t-43.5 5.5q-6 0 -15.5 -0.5t-14.5 -1.5l-5 7l41 96q-68 12 -121.5 43t-91 76t-57.5 102.5t-20 121.5z" />
<glyph unicode="&#xc8;" d="M40 0v680h480v-190h-255v-68h225v-164h-225v-68h262v-190h-487zM93 862v10h184l106 -134v-8h-126z" />
<glyph unicode="&#xc9;" d="M40 0v680h480v-190h-255v-68h225v-164h-225v-68h262v-190h-487zM179 730v8l106 134h184v-10l-164 -132h-126z" />
<glyph unicode="&#xca;" d="M40 0v680h480v-190h-255v-68h225v-164h-225v-68h262v-190h-487zM96 730v8l146 134h81l146 -134v-8h-111l-76 53l-75 -53h-111z" />
<glyph unicode="&#xcb;" d="M40 0v680h480v-190h-255v-68h225v-164h-225v-68h262v-190h-487zM103 815q0 34 24 55.5t54 21.5q32 0 54 -21.5t22 -55.5q0 -32 -22 -53.5t-54 -21.5q-30 0 -54 21t-24 54zM305 815q0 33 23 55t54 22q28 0 52.5 -21t24.5 -56q0 -17 -7 -30.5t-18 -23.5t-24.5 -15.5 t-27.5 -5.5q-31 0 -54 21.5t-23 53.5z" />
<glyph unicode="&#xcc;" horiz-adv-x="330" d="M-18 862v10h184l106 -134v-8h-126zM45 0v680h240v-680h-240z" />
<glyph unicode="&#xcd;" horiz-adv-x="330" d="M45 0v680h240v-680h-240zM68 730v8l106 134h184v-10l-164 -132h-126z" />
<glyph unicode="&#xce;" horiz-adv-x="330" d="M-15 730v8l146 134h81l146 -134v-8h-111l-76 53l-75 -53h-111zM45 0v680h240v-680h-240z" />
<glyph unicode="&#xcf;" horiz-adv-x="330" d="M-8 815q0 34 24 55.5t54 21.5q32 0 54 -21.5t22 -55.5q0 -32 -22 -53.5t-54 -21.5q-30 0 -54 21t-24 54zM45 0v680h240v-680h-240zM194 815q0 33 23 55t54 22q28 0 52.5 -21t24.5 -56q0 -17 -7 -30.5t-18 -23.5t-24.5 -15.5t-27.5 -5.5q-31 0 -54 21.5t-23 53.5z" />
<glyph unicode="&#xd0;" horiz-adv-x="700" d="M-9 293v91h49v296h255q76 0 144.5 -21.5t120.5 -65t82.5 -108.5t30.5 -151q0 -74 -29.5 -135t-78.5 -105.5t-114 -69t-135 -24.5h-276v293h-49zM265 200h45q22 0 44.5 9t39.5 26.5t28 44t11 61.5q0 39 -12 65.5t-30 43t-38.5 23.5t-38.5 7h-49v-96h74v-91h-74v-93z" />
<glyph unicode="&#xd1;" horiz-adv-x="760" d="M40 0v680h207l236 -330h7v330h230v-680h-207l-236 327h-7v-327h-230zM191 749q0 35 9.5 64t26.5 50t39.5 32.5t48.5 11.5q22 0 38 -10t30 -22.5t27 -22.5t28 -10q17 0 26 17t9 43h95q0 -35 -9 -64t-25 -50t-38.5 -32.5t-50.5 -11.5q-24 0 -41.5 10t-31 22t-25 22 t-23.5 10q-19 0 -29.5 -16.5t-10.5 -42.5h-93z" />
<glyph unicode="&#xd2;" horiz-adv-x="790" d="M27 335q0 81 30 147t81 113.5t117.5 73.5t140.5 26q73 0 139.5 -25.5t117 -72.5t80.5 -113.5t30 -148.5q0 -83 -31.5 -148t-83 -110t-117.5 -68.5t-136 -23.5q-68 0 -133.5 23t-118 67t-84.5 109.5t-32 150.5zM207 862v10h184l106 -134v-8h-126zM267 339q0 -39 11 -66.5 t29 -44.5t41.5 -25t47.5 -8t46.5 8t40.5 25t29 44.5t11 66.5q0 36 -10.5 63t-28.5 45.5t-41.5 28t-49.5 9.5q-24 0 -47 -9.5t-40.5 -27.5t-28 -45.5t-10.5 -63.5z" />
<glyph unicode="&#xd3;" horiz-adv-x="790" d="M27 335q0 81 30 147t81 113.5t117.5 73.5t140.5 26q73 0 139.5 -25.5t117 -72.5t80.5 -113.5t30 -148.5q0 -83 -31.5 -148t-83 -110t-117.5 -68.5t-136 -23.5q-68 0 -133.5 23t-118 67t-84.5 109.5t-32 150.5zM267 339q0 -39 11 -66.5t29 -44.5t41.5 -25t47.5 -8t46.5 8 t40.5 25t29 44.5t11 66.5q0 36 -10.5 63t-28.5 45.5t-41.5 28t-49.5 9.5q-24 0 -47 -9.5t-40.5 -27.5t-28 -45.5t-10.5 -63.5zM293 730v8l106 134h184v-10l-164 -132h-126z" />
<glyph unicode="&#xd4;" horiz-adv-x="790" d="M27 335q0 81 30 147t81 113.5t117.5 73.5t140.5 26q73 0 139.5 -25.5t117 -72.5t80.5 -113.5t30 -148.5q0 -83 -31.5 -148t-83 -110t-117.5 -68.5t-136 -23.5q-68 0 -133.5 23t-118 67t-84.5 109.5t-32 150.5zM210 730v8l146 134h81l146 -134v-8h-111l-76 53l-75 -53 h-111zM267 339q0 -39 11 -66.5t29 -44.5t41.5 -25t47.5 -8t46.5 8t40.5 25t29 44.5t11 66.5q0 36 -10.5 63t-28.5 45.5t-41.5 28t-49.5 9.5q-24 0 -47 -9.5t-40.5 -27.5t-28 -45.5t-10.5 -63.5z" />
<glyph unicode="&#xd5;" horiz-adv-x="790" d="M27 335q0 81 30 147t81 113.5t117.5 73.5t140.5 26q73 0 139.5 -25.5t117 -72.5t80.5 -113.5t30 -148.5q0 -83 -31.5 -148t-83 -110t-117.5 -68.5t-136 -23.5q-68 0 -133.5 23t-118 67t-84.5 109.5t-32 150.5zM206 749q0 35 9.5 64t26.5 50t39.5 32.5t48.5 11.5 q22 0 38 -10t30 -22.5t27 -22.5t28 -10q17 0 26 17t9 43h95q0 -35 -9 -64t-25 -50t-38.5 -32.5t-50.5 -11.5q-24 0 -41.5 10t-31 22t-25 22t-23.5 10q-19 0 -29.5 -16.5t-10.5 -42.5h-93zM267 339q0 -39 11 -66.5t29 -44.5t41.5 -25t47.5 -8t46.5 8t40.5 25t29 44.5t11 66.5 q0 36 -10.5 63t-28.5 45.5t-41.5 28t-49.5 9.5q-24 0 -47 -9.5t-40.5 -27.5t-28 -45.5t-10.5 -63.5z" />
<glyph unicode="&#xd6;" horiz-adv-x="790" d="M27 335q0 81 30 147t81 113.5t117.5 73.5t140.5 26q73 0 139.5 -25.5t117 -72.5t80.5 -113.5t30 -148.5q0 -83 -31.5 -148t-83 -110t-117.5 -68.5t-136 -23.5q-68 0 -133.5 23t-118 67t-84.5 109.5t-32 150.5zM217 815q0 34 24 55.5t54 21.5q32 0 54 -21.5t22 -55.5 q0 -32 -22 -53.5t-54 -21.5q-30 0 -54 21t-24 54zM267 339q0 -39 11 -66.5t29 -44.5t41.5 -25t47.5 -8t46.5 8t40.5 25t29 44.5t11 66.5q0 36 -10.5 63t-28.5 45.5t-41.5 28t-49.5 9.5q-24 0 -47 -9.5t-40.5 -27.5t-28 -45.5t-10.5 -63.5zM419 815q0 33 23 55t54 22 q28 0 52.5 -21t24.5 -56q0 -17 -7 -30.5t-18 -23.5t-24.5 -15.5t-27.5 -5.5q-31 0 -54 21.5t-23 53.5z" />
<glyph unicode="&#xd7;" horiz-adv-x="550" d="M38 156l145 145l-145 145l92 92l145 -145l145 145l92 -92l-145 -145l145 -145l-92 -92l-145 145l-145 -145z" />
<glyph unicode="&#xd8;" horiz-adv-x="790" d="M27 335q0 81 30 147t81 113.5t117.5 73.5t140.5 26q51 0 99.5 -13t90.5 -37l56 74l48 -31l-57 -75q60 -48 95 -118t35 -160q0 -83 -31.5 -148t-83 -110t-117.5 -68.5t-136 -23.5q-51 0 -101 12.5t-95 38.5l-64 -86l-44 34l62 83q-57 45 -91.5 111.5t-34.5 156.5zM267 339 q0 -55 22 -90l166 220q-30 16 -62 16q-24 0 -47 -9.5t-40.5 -27.5t-28 -45.5t-10.5 -63.5zM331 210q15 -8 31.5 -11.5t33.5 -3.5q24 0 46.5 8t40.5 25t29 44.5t11 66.5q0 29 -7 52t-19 40z" />
<glyph unicode="&#xd9;" horiz-adv-x="710" d="M40 252v428h240v-401q0 -39 17.5 -61.5t57.5 -22.5q32 0 53.5 22t21.5 62v401h240v-416q0 -54 -21 -104t-61 -89t-98.5 -62.5t-134.5 -23.5q-96 0 -157 27t-96 67.5t-48.5 87t-13.5 85.5zM167 862v10h184l106 -134v-8h-126z" />
<glyph unicode="&#xda;" horiz-adv-x="710" d="M40 252v428h240v-401q0 -39 17.5 -61.5t57.5 -22.5q32 0 53.5 22t21.5 62v401h240v-416q0 -54 -21 -104t-61 -89t-98.5 -62.5t-134.5 -23.5q-96 0 -157 27t-96 67.5t-48.5 87t-13.5 85.5zM253 730v8l106 134h184v-10l-164 -132h-126z" />
<glyph unicode="&#xdb;" horiz-adv-x="710" d="M40 252v428h240v-401q0 -39 17.5 -61.5t57.5 -22.5q32 0 53.5 22t21.5 62v401h240v-416q0 -54 -21 -104t-61 -89t-98.5 -62.5t-134.5 -23.5q-96 0 -157 27t-96 67.5t-48.5 87t-13.5 85.5zM170 730v8l146 134h81l146 -134v-8h-111l-76 53l-75 -53h-111z" />
<glyph unicode="&#xdc;" horiz-adv-x="710" d="M40 252v428h240v-401q0 -39 17.5 -61.5t57.5 -22.5q32 0 53.5 22t21.5 62v401h240v-416q0 -54 -21 -104t-61 -89t-98.5 -62.5t-134.5 -23.5q-96 0 -157 27t-96 67.5t-48.5 87t-13.5 85.5zM177 815q0 34 24 55.5t54 21.5q32 0 54 -21.5t22 -55.5q0 -32 -22 -53.5 t-54 -21.5q-30 0 -54 21t-24 54zM379 815q0 33 23 55t54 22q28 0 52.5 -21t24.5 -56q0 -17 -7 -30.5t-18 -23.5t-24.5 -15.5t-27.5 -5.5q-31 0 -54 21.5t-23 53.5z" />
<glyph unicode="&#xdd;" horiz-adv-x="690" d="M-10 680h245l109 -219h5l106 219h245l-235 -415v-265h-240v265zM244 730v8l106 134h184v-10l-164 -132h-126z" />
<glyph unicode="&#xde;" horiz-adv-x="630" d="M40 0v680h235v-100h36q66 0 120.5 -14.5t94.5 -44.5t62 -75t22 -105t-26 -104t-67.5 -72.5t-93 -42t-102.5 -13.5h-46v-109h-235zM275 277h40q35 0 50 18t15 43q0 26 -17.5 44.5t-47.5 18.5h-40v-124z" />
<glyph unicode="&#xdf;" horiz-adv-x="750" d="M15 312v132l60 40v8q0 34 20.5 70t60 64.5t97.5 47t133 18.5q71 0 134 -20t106.5 -61t62.5 -105t2 -152q-43 3 -70.5 2.5t-43 -3.5t-21.5 -7.5t-6 -9.5q0 -8 7.5 -13t26.5 -11q46 -14 75 -33.5t45 -42t21.5 -47t5.5 -48.5q0 -38 -15.5 -67t-42.5 -48.5t-63.5 -29.5 t-79.5 -10q-55 0 -102 10.5t-79 29.5l42 136q29 -14 57 -21t51 -7q36 0 36 14q0 8 -14 13.5t-25 8.5q-44 12 -71.5 28t-43 35.5t-21 42t-5.5 47.5q0 24 10 46.5t27 40.5t40.5 30.5t50.5 17.5q1 25 -21 47.5t-72 22.5q-48 0 -69 -19.5t-21 -49.5v-459h-225v312h-60z" />
<glyph unicode="&#xe0;" d="M16 135q0 40 17.5 69.5t47.5 48.5t69 28t82 9q26 0 41 -2t35 -6v18q0 23 -19 31.5t-50 8.5q-37 0 -77 -9.5t-75 -25.5l-37 139q18 9 45.5 17t60 15t66.5 11t65 4q49 0 92 -10.5t74.5 -34t50 -60.5t18.5 -91v-182q0 -22 2 -36t6 -23t9.5 -14t11.5 -8v-10l-164 -40 q-8 3 -15.5 9t-13.5 14t-10 16t-5 14h-7q-25 -22 -62 -36t-91 -14q-33 0 -63.5 8.5t-53.5 27t-36.5 47t-13.5 67.5zM102 688v10h184l106 -154v-8h-131zM222 160q0 -20 12 -30.5t29 -10.5q28 0 45 23v52q-11 3 -20 5t-20 2q-18 0 -32 -9t-14 -32z" />
<glyph unicode="&#xe1;" d="M16 135q0 40 17.5 69.5t47.5 48.5t69 28t82 9q26 0 41 -2t35 -6v18q0 23 -19 31.5t-50 8.5q-37 0 -77 -9.5t-75 -25.5l-37 139q18 9 45.5 17t60 15t66.5 11t65 4q49 0 92 -10.5t74.5 -34t50 -60.5t18.5 -91v-182q0 -22 2 -36t6 -23t9.5 -14t11.5 -8v-10l-164 -40 q-8 3 -15.5 9t-13.5 14t-10 16t-5 14h-7q-25 -22 -62 -36t-91 -14q-33 0 -63.5 8.5t-53.5 27t-36.5 47t-13.5 67.5zM188 536v8l106 154h184v-10l-159 -152h-131zM222 160q0 -20 12 -30.5t29 -10.5q28 0 45 23v52q-11 3 -20 5t-20 2q-18 0 -32 -9t-14 -32z" />
<glyph unicode="&#xe2;" d="M16 135q0 40 17.5 69.5t47.5 48.5t69 28t82 9q26 0 41 -2t35 -6v18q0 23 -19 31.5t-50 8.5q-37 0 -77 -9.5t-75 -25.5l-37 139q18 9 45.5 17t60 15t66.5 11t65 4q49 0 92 -10.5t74.5 -34t50 -60.5t18.5 -91v-182q0 -22 2 -36t6 -23t9.5 -14t11.5 -8v-10l-164 -40 q-8 3 -15.5 9t-13.5 14t-10 16t-5 14h-7q-25 -22 -62 -36t-91 -14q-33 0 -63.5 8.5t-53.5 27t-36.5 47t-13.5 67.5zM115 536v8l146 154h61l146 -154v-8h-106l-71 58l-70 -58h-106zM222 160q0 -20 12 -30.5t29 -10.5q28 0 45 23v52q-11 3 -20 5t-20 2q-18 0 -32 -9t-14 -32z " />
<glyph unicode="&#xe3;" d="M16 135q0 40 17.5 69.5t47.5 48.5t69 28t82 9q26 0 41 -2t35 -6v18q0 23 -19 31.5t-50 8.5q-37 0 -77 -9.5t-75 -25.5l-37 139q18 9 45.5 17t60 15t66.5 11t65 4q49 0 92 -10.5t74.5 -34t50 -60.5t18.5 -91v-182q0 -22 2 -36t6 -23t9.5 -14t11.5 -8v-10l-164 -40 q-8 3 -15.5 9t-13.5 14t-10 16t-5 14h-7q-25 -22 -62 -36t-91 -14q-33 0 -63.5 8.5t-53.5 27t-36.5 47t-13.5 67.5zM101 545q0 35 9.5 64t26.5 50t39.5 32.5t48.5 11.5q22 0 38 -10t30 -22.5t27 -22.5t28 -10q17 0 26 17t9 43h95q0 -35 -9 -64t-25 -50t-38.5 -32.5 t-50.5 -11.5q-24 0 -41.5 10t-31 22t-25 22t-23.5 10q-19 0 -29.5 -16.5t-10.5 -42.5h-93zM222 160q0 -20 12 -30.5t29 -10.5q28 0 45 23v52q-11 3 -20 5t-20 2q-18 0 -32 -9t-14 -32z" />
<glyph unicode="&#xe4;" d="M16 135q0 40 17.5 69.5t47.5 48.5t69 28t82 9q26 0 41 -2t35 -6v18q0 23 -19 31.5t-50 8.5q-37 0 -77 -9.5t-75 -25.5l-37 139q18 9 45.5 17t60 15t66.5 11t65 4q49 0 92 -10.5t74.5 -34t50 -60.5t18.5 -91v-182q0 -22 2 -36t6 -23t9.5 -14t11.5 -8v-10l-164 -40 q-8 3 -15.5 9t-13.5 14t-10 16t-5 14h-7q-25 -22 -62 -36t-91 -14q-33 0 -63.5 8.5t-53.5 27t-36.5 47t-13.5 67.5zM112 611q0 34 24 55.5t54 21.5q32 0 54 -21.5t22 -55.5q0 -32 -22 -53.5t-54 -21.5q-30 0 -54 21t-24 54zM222 160q0 -20 12 -30.5t29 -10.5q28 0 45 23v52 q-11 3 -20 5t-20 2q-18 0 -32 -9t-14 -32zM314 611q0 33 23 55t54 22q28 0 52.5 -21t24.5 -56q0 -17 -7 -30.5t-18 -23.5t-24.5 -15.5t-27.5 -5.5q-31 0 -54 21.5t-23 53.5z" />
<glyph unicode="&#xe5;" d="M16 135q0 40 17.5 69.5t47.5 48.5t69 28t82 9q26 0 41 -2t35 -6v18q0 23 -19 31.5t-50 8.5q-37 0 -77 -9.5t-75 -25.5l-37 139q18 9 45.5 17t60 15t66.5 11t65 4q49 0 92 -10.5t74.5 -34t50 -60.5t18.5 -91v-182q0 -22 2 -36t6 -23t9.5 -14t11.5 -8v-10l-164 -40 q-8 3 -15.5 9t-13.5 14t-10 16t-5 14h-7q-25 -22 -62 -36t-91 -14q-33 0 -63.5 8.5t-53.5 27t-36.5 47t-13.5 67.5zM177 637q0 24 9 44.5t24 35.5t35.5 24t44.5 9t44.5 -9t35.5 -24t24 -35.5t9 -44.5t-9 -44.5t-24 -35.5t-35.5 -24t-44.5 -9t-44.5 9t-35.5 24t-24 35.5 t-9 44.5zM222 160q0 -20 12 -30.5t29 -10.5q28 0 45 23v52q-11 3 -20 5t-20 2q-18 0 -32 -9t-14 -32zM252 637q0 -17 10 -28.5t27 -11.5t27.5 11.5t10.5 28.5t-10.5 29.5t-27.5 12.5t-27 -12.5t-10 -29.5z" />
<glyph unicode="&#xe6;" horiz-adv-x="820" d="M16 135q0 40 17.5 69.5t47.5 48.5t69 28t82 9q26 0 41 -2t35 -6v18q0 23 -19 31.5t-50 8.5q-37 0 -77 -9.5t-75 -25.5l-37 139q18 9 45.5 17t60 15t66.5 11t65 4q41 0 76 -12.5t60 -41.5q29 25 65 39.5t78 14.5q55 0 98.5 -17.5t73.5 -47t46 -67t16 -76.5q0 -14 -2.5 -37 t-12.5 -45h-276q0 -37 28.5 -52t76.5 -15q21 0 44 2t45 6t40.5 9.5t29.5 12.5h5l-20 -140q-22 -11 -48.5 -18.5t-54 -12t-54.5 -6.5t-49 -2q-57 0 -104.5 18.5t-79.5 59.5q-32 -35 -78.5 -56.5t-106.5 -21.5q-33 0 -63.5 8.5t-53.5 27t-36.5 47t-13.5 67.5zM222 160 q0 -20 12 -30.5t29 -10.5q28 0 45 23v52q-11 3 -20 5t-20 2q-18 0 -32 -9t-14 -32zM512 279h98q4 33 -10 50t-31 17q-20 0 -37.5 -18t-19.5 -49z" />
<glyph unicode="&#xe7;" horiz-adv-x="480" d="M20 224q0 58 21 107t58 84.5t87.5 55.5t109.5 20q42 0 81 -7t77 -24v-162h-5q-29 16 -52.5 24.5t-47.5 8.5q-45 0 -73 -26.5t-28 -63.5q0 -29 9.5 -47.5t24 -29t32.5 -14.5t35 -4q55 0 100 33h5v-161q-32 -17 -73.5 -24.5t-72.5 -8.5l-16 -35q50 0 84 -17.5t34 -54.5 q0 -42 -52 -70.5t-151 -36.5l-8 60q35 2 58.5 12.5t23.5 24.5q0 11 -17.5 16.5t-43.5 5.5q-6 0 -15.5 -0.5t-14.5 -1.5l-5 7l41 97q-48 9 -86.5 30t-65 51t-40.5 68.5t-14 82.5z" />
<glyph unicode="&#xe8;" horiz-adv-x="540" d="M20 212q0 61 21 112.5t57 88.5t84.5 57.5t103.5 20.5t98.5 -17.5t73.5 -47t46 -67t16 -76.5q0 -14 -2.5 -37t-12.5 -45h-276q0 -37 28.5 -52t76.5 -15q21 0 44 2t45 6t40.5 9.5t29.5 12.5h5l-20 -140q-22 -11 -48.5 -18.5t-54 -12t-54.5 -6.5t-49 -2q-52 0 -98 13 t-80 40.5t-54 70.5t-20 103zM93 688v10h184l106 -154v-8h-131zM232 279h98q4 33 -10 50t-31 17q-20 0 -37.5 -18t-19.5 -49z" />
<glyph unicode="&#xe9;" horiz-adv-x="540" d="M20 212q0 61 21 112.5t57 88.5t84.5 57.5t103.5 20.5t98.5 -17.5t73.5 -47t46 -67t16 -76.5q0 -14 -2.5 -37t-12.5 -45h-276q0 -37 28.5 -52t76.5 -15q21 0 44 2t45 6t40.5 9.5t29.5 12.5h5l-20 -140q-22 -11 -48.5 -18.5t-54 -12t-54.5 -6.5t-49 -2q-52 0 -98 13 t-80 40.5t-54 70.5t-20 103zM179 536v8l106 154h184v-10l-159 -152h-131zM232 279h98q4 33 -10 50t-31 17q-20 0 -37.5 -18t-19.5 -49z" />
<glyph unicode="&#xea;" horiz-adv-x="540" d="M20 212q0 61 21 112.5t57 88.5t84.5 57.5t103.5 20.5t98.5 -17.5t73.5 -47t46 -67t16 -76.5q0 -14 -2.5 -37t-12.5 -45h-276q0 -37 28.5 -52t76.5 -15q21 0 44 2t45 6t40.5 9.5t29.5 12.5h5l-20 -140q-22 -11 -48.5 -18.5t-54 -12t-54.5 -6.5t-49 -2q-52 0 -98 13 t-80 40.5t-54 70.5t-20 103zM106 536v8l146 154h61l146 -154v-8h-106l-71 58l-70 -58h-106zM232 279h98q4 33 -10 50t-31 17q-20 0 -37.5 -18t-19.5 -49z" />
<glyph unicode="&#xeb;" horiz-adv-x="540" d="M20 212q0 61 21 112.5t57 88.5t84.5 57.5t103.5 20.5t98.5 -17.5t73.5 -47t46 -67t16 -76.5q0 -14 -2.5 -37t-12.5 -45h-276q0 -37 28.5 -52t76.5 -15q21 0 44 2t45 6t40.5 9.5t29.5 12.5h5l-20 -140q-22 -11 -48.5 -18.5t-54 -12t-54.5 -6.5t-49 -2q-52 0 -98 13 t-80 40.5t-54 70.5t-20 103zM103 611q0 34 24 55.5t54 21.5q32 0 54 -21.5t22 -55.5q0 -32 -22 -53.5t-54 -21.5q-30 0 -54 21t-24 54zM232 279h98q4 33 -10 50t-31 17q-20 0 -37.5 -18t-19.5 -49zM305 611q0 33 23 55t54 22q28 0 52.5 -21t24.5 -56q0 -17 -7 -30.5 t-18 -23.5t-24.5 -15.5t-27.5 -5.5q-31 0 -54 21.5t-23 53.5z" />
<glyph unicode="&#xec;" horiz-adv-x="300" d="M-38 688v10h184l106 -154v-8h-131zM35 0v466l230 15v-481h-230z" />
<glyph unicode="&#xed;" horiz-adv-x="300" d="M35 0v466l230 15v-481h-230zM48 536v8l106 154h184v-10l-159 -152h-131z" />
<glyph unicode="&#xee;" horiz-adv-x="300" d="M-25 536v8l146 154h61l146 -154v-8h-106l-71 58l-70 -58h-106zM35 0v466l230 15v-481h-230z" />
<glyph unicode="&#xef;" horiz-adv-x="300" d="M-28 611q0 34 24 55.5t54 21.5q32 0 54 -21.5t22 -55.5q0 -32 -22 -53.5t-54 -21.5q-30 0 -54 21t-24 54zM35 0v466l230 15v-481h-230zM174 611q0 33 23 55t54 22q28 0 52.5 -21t24.5 -56q0 -17 -7 -30.5t-18 -23.5t-24.5 -15.5t-27.5 -5.5q-31 0 -54 21.5t-23 53.5z" />
<glyph unicode="&#xf0;" horiz-adv-x="580" d="M20 215q0 54 20 99t54.5 78t80 51.5t95.5 18.5q39 0 60.5 -6.5t38.5 -18.5l4 2q-11 23 -38 46t-64 42l-31 -53l-67 40l24 42q-28 7 -59 12l38 137q25 -7 48 -13.5t44 -14.5l26 45l67 -40l-21 -37q66 -34 108.5 -76t67.5 -91t34.5 -102.5t9.5 -109.5q0 -62 -20.5 -113 t-56.5 -88.5t-85 -58t-106 -20.5q-58 0 -107.5 17t-86 47.5t-57.5 72.5t-21 92zM246 235q0 -53 12 -73.5t32 -20.5q17 0 30.5 20.5t13.5 73.5q0 56 -11.5 78.5t-32.5 22.5q-20 0 -32 -22.5t-12 -78.5z" />
<glyph unicode="&#xf1;" horiz-adv-x="600" d="M33 0v476h204l13 -66h6q22 37 62 59t91 22q28 0 56 -9.5t50.5 -29.5t37 -50.5t14.5 -71.5v-330h-230v272q0 20 -9 30t-23 10q-12 0 -24.5 -6t-17.5 -12v-294h-230zM121 545q0 35 9.5 64t26.5 50t39.5 32.5t48.5 11.5q22 0 38 -10t30 -22.5t27 -22.5t28 -10q17 0 26 17 t9 43h95q0 -35 -9 -64t-25 -50t-38.5 -32.5t-50.5 -11.5q-24 0 -41.5 10t-31 22t-25 22t-23.5 10q-19 0 -29.5 -16.5t-10.5 -42.5h-93z" />
<glyph unicode="&#xf2;" horiz-adv-x="580" d="M20 234q0 55 20.5 102.5t56.5 81.5t84.5 53.5t104.5 19.5q60 0 110.5 -19.5t87 -54t56.5 -81.5t20 -102q0 -51 -20.5 -96.5t-56.5 -79.5t-85.5 -53.5t-107.5 -19.5q-54 0 -103 17t-86 49.5t-59 78.5t-22 104zM102 688v10h184l106 -154v-8h-131zM246 235q0 -53 12 -73.5 t32 -20.5q17 0 30.5 20.5t13.5 73.5q0 56 -11.5 78.5t-32.5 22.5q-20 0 -32 -22.5t-12 -78.5z" />
<glyph unicode="&#xf3;" horiz-adv-x="580" d="M20 234q0 55 20.5 102.5t56.5 81.5t84.5 53.5t104.5 19.5q60 0 110.5 -19.5t87 -54t56.5 -81.5t20 -102q0 -51 -20.5 -96.5t-56.5 -79.5t-85.5 -53.5t-107.5 -19.5q-54 0 -103 17t-86 49.5t-59 78.5t-22 104zM188 536v8l106 154h184v-10l-159 -152h-131zM246 235 q0 -53 12 -73.5t32 -20.5q17 0 30.5 20.5t13.5 73.5q0 56 -11.5 78.5t-32.5 22.5q-20 0 -32 -22.5t-12 -78.5z" />
<glyph unicode="&#xf4;" horiz-adv-x="580" d="M20 234q0 55 20.5 102.5t56.5 81.5t84.5 53.5t104.5 19.5q60 0 110.5 -19.5t87 -54t56.5 -81.5t20 -102q0 -51 -20.5 -96.5t-56.5 -79.5t-85.5 -53.5t-107.5 -19.5q-54 0 -103 17t-86 49.5t-59 78.5t-22 104zM115 536v8l146 154h61l146 -154v-8h-106l-71 58l-70 -58h-106 zM246 235q0 -53 12 -73.5t32 -20.5q17 0 30.5 20.5t13.5 73.5q0 56 -11.5 78.5t-32.5 22.5q-20 0 -32 -22.5t-12 -78.5z" />
<glyph unicode="&#xf5;" horiz-adv-x="580" d="M20 234q0 55 20.5 102.5t56.5 81.5t84.5 53.5t104.5 19.5q60 0 110.5 -19.5t87 -54t56.5 -81.5t20 -102q0 -51 -20.5 -96.5t-56.5 -79.5t-85.5 -53.5t-107.5 -19.5q-54 0 -103 17t-86 49.5t-59 78.5t-22 104zM101 545q0 35 9.5 64t26.5 50t39.5 32.5t48.5 11.5 q22 0 38 -10t30 -22.5t27 -22.5t28 -10q17 0 26 17t9 43h95q0 -35 -9 -64t-25 -50t-38.5 -32.5t-50.5 -11.5q-24 0 -41.5 10t-31 22t-25 22t-23.5 10q-19 0 -29.5 -16.5t-10.5 -42.5h-93zM246 235q0 -53 12 -73.5t32 -20.5q17 0 30.5 20.5t13.5 73.5q0 56 -11.5 78.5 t-32.5 22.5q-20 0 -32 -22.5t-12 -78.5z" />
<glyph unicode="&#xf6;" horiz-adv-x="580" d="M20 234q0 55 20.5 102.5t56.5 81.5t84.5 53.5t104.5 19.5q60 0 110.5 -19.5t87 -54t56.5 -81.5t20 -102q0 -51 -20.5 -96.5t-56.5 -79.5t-85.5 -53.5t-107.5 -19.5q-54 0 -103 17t-86 49.5t-59 78.5t-22 104zM112 611q0 34 24 55.5t54 21.5q32 0 54 -21.5t22 -55.5 q0 -32 -22 -53.5t-54 -21.5q-30 0 -54 21t-24 54zM246 235q0 -53 12 -73.5t32 -20.5q17 0 30.5 20.5t13.5 73.5q0 56 -11.5 78.5t-32.5 22.5q-20 0 -32 -22.5t-12 -78.5zM314 611q0 33 23 55t54 22q28 0 52.5 -21t24.5 -56q0 -17 -7 -30.5t-18 -23.5t-24.5 -15.5t-27.5 -5.5 q-31 0 -54 21.5t-23 53.5z" />
<glyph unicode="&#xf7;" horiz-adv-x="550" d="M33 236v130h484v-130h-484zM184 109q0 38 26 64.5t65 26.5q38 0 64.5 -26.5t26.5 -64.5q0 -20 -7 -36.5t-19.5 -29t-29 -19.5t-35.5 -7q-39 0 -65 26.5t-26 65.5zM184 493q0 38 26 65t65 27q19 0 35.5 -7t29 -19.5t19.5 -29.5t7 -36t-7 -35.5t-19.5 -29t-29 -19.5 t-35.5 -7q-39 0 -65 26.5t-26 64.5z" />
<glyph unicode="&#xf8;" horiz-adv-x="580" d="M20 234q0 55 20.5 102.5t56.5 81.5t84.5 53.5t104.5 19.5q42 0 78 -9.5t68 -26.5l34 46l49 -32l-36 -48q38 -35 59.5 -82.5t21.5 -104.5q0 -51 -20.5 -96.5t-56.5 -79.5t-85.5 -53.5t-107.5 -19.5q-76 0 -138 32l-35 -49l-49 32l36 49q-38 32 -61 78.5t-23 106.5z M246 217l77 93q-10 26 -33 26q-20 0 -32 -22.5t-12 -78.5v-18zM259 160q9 -19 31 -19q17 0 30.5 20.5t13.5 73.5v15z" />
<glyph unicode="&#xf9;" horiz-adv-x="600" d="M33 152v324h230v-272q0 -24 12 -32t23 -8q13 0 24.5 8.5t14.5 19.5v284h230v-476h-204l-13 56h-7q-22 -30 -60 -50.5t-87 -20.5q-32 0 -61 10t-52 30.5t-36.5 52t-13.5 74.5zM112 688v10h184l106 -154v-8h-131z" />
<glyph unicode="&#xfa;" horiz-adv-x="600" d="M33 152v324h230v-272q0 -24 12 -32t23 -8q13 0 24.5 8.5t14.5 19.5v284h230v-476h-204l-13 56h-7q-22 -30 -60 -50.5t-87 -20.5q-32 0 -61 10t-52 30.5t-36.5 52t-13.5 74.5zM198 536v8l106 154h184v-10l-159 -152h-131z" />
<glyph unicode="&#xfb;" horiz-adv-x="600" d="M33 152v324h230v-272q0 -24 12 -32t23 -8q13 0 24.5 8.5t14.5 19.5v284h230v-476h-204l-13 56h-7q-22 -30 -60 -50.5t-87 -20.5q-32 0 -61 10t-52 30.5t-36.5 52t-13.5 74.5zM125 536v8l146 154h61l146 -154v-8h-106l-71 58l-70 -58h-106z" />
<glyph unicode="&#xfc;" horiz-adv-x="600" d="M33 152v324h230v-272q0 -24 12 -32t23 -8q13 0 24.5 8.5t14.5 19.5v284h230v-476h-204l-13 56h-7q-22 -30 -60 -50.5t-87 -20.5q-32 0 -61 10t-52 30.5t-36.5 52t-13.5 74.5zM122 611q0 34 24 55.5t54 21.5q32 0 54 -21.5t22 -55.5q0 -32 -22 -53.5t-54 -21.5 q-30 0 -54 21t-24 54zM324 611q0 33 23 55t54 22q28 0 52.5 -21t24.5 -56q0 -17 -7 -30.5t-18 -23.5t-24.5 -15.5t-27.5 -5.5q-31 0 -54 21.5t-23 53.5z" />
<glyph unicode="&#xfd;" d="M-5 476h228l38 -164l16 -76h6l15 76l39 164h228l-233 -563q-7 -16 -17.5 -32t-23.5 -29t-28 -22t-30 -11l-210 -26l-6 58q44 26 83 74.5t58 130.5zM177 536v8l106 154h184v-10l-159 -152h-131z" />
<glyph unicode="&#xfe;" horiz-adv-x="600" d="M33 -201v878l230 15v-216q36 14 84 14q43 0 84.5 -13.5t74.5 -43t53.5 -75.5t20.5 -111q0 -61 -18.5 -109.5t-49.5 -82t-71 -51.5t-83 -18q-20 0 -34 1.5t-24 4.5t-17 6.5t-13 7.5h-7v-195zM263 154q5 -6 15 -9.5t19 -3.5q28 0 41.5 26t13.5 68q0 45 -12.5 73t-38.5 28 q-14 0 -24.5 -8t-13.5 -15v-159z" />
<glyph unicode="&#xff;" d="M-5 476h228l38 -164l16 -76h6l15 76l39 164h228l-233 -563q-7 -16 -17.5 -32t-23.5 -29t-28 -22t-30 -11l-210 -26l-6 58q44 26 83 74.5t58 130.5zM101 611q0 34 24 55.5t54 21.5q32 0 54 -21.5t22 -55.5q0 -32 -22 -53.5t-54 -21.5q-30 0 -54 21t-24 54zM303 611 q0 33 23 55t54 22q28 0 52.5 -21t24.5 -56q0 -17 -7 -30.5t-18 -23.5t-24.5 -15.5t-27.5 -5.5q-31 0 -54 21.5t-23 53.5z" />
<glyph unicode="&#x152;" horiz-adv-x="1020" d="M27 335q0 81 30 147t81 113.5t117.5 73.5t140.5 26q54 0 107 -15h477v-190h-255v-68h225v-164h-225v-68h262v-190h-483q-53 -15 -109 -15q-68 0 -133.5 23t-118 67t-84.5 109.5t-32 150.5zM267 339q0 -39 10.5 -66.5t28 -44.5t39.5 -25t46 -8q22 0 44 8t39 25t28 44.5 t11 66.5q0 36 -10.5 63t-27.5 45.5t-39.5 28t-47.5 9.5q-23 0 -45 -9.5t-39 -27.5t-27 -45.5t-10 -63.5z" />
<glyph unicode="&#x153;" horiz-adv-x="850" d="M20 234q0 55 20.5 102.5t56.5 81.5t84.5 53.5t104.5 19.5q47 0 87 -15.5t71 -44.5q32 29 70.5 44.5t81.5 15.5q55 0 98.5 -17.5t73.5 -47t46 -67t16 -76.5q0 -14 -2.5 -37t-12.5 -45h-276q0 -37 28.5 -52t76.5 -15q21 0 44 2t45 6t40.5 9.5t29.5 12.5h5l-20 -140 q-22 -11 -48.5 -18.5t-54 -12t-54.5 -6.5t-49 -2q-45 0 -83.5 11.5t-69.5 35.5q-29 -23 -64 -35t-75 -12q-54 0 -103 17t-86 49.5t-59 78.5t-22 104zM246 235q0 -53 12 -73.5t32 -20.5q17 0 30.5 20.5t13.5 73.5q0 56 -11.5 78.5t-32.5 22.5q-20 0 -32 -22.5t-12 -78.5z M542 279h98q4 33 -10 50t-31 17q-20 0 -37.5 -18t-19.5 -49z" />
<glyph unicode="&#x178;" horiz-adv-x="690" d="M-10 680h245l109 -219h5l106 219h245l-235 -415v-265h-240v265zM168 815q0 34 24 55.5t54 21.5q32 0 54 -21.5t22 -55.5q0 -32 -22 -53.5t-54 -21.5q-30 0 -54 21t-24 54zM370 815q0 33 23 55t54 22q28 0 52.5 -21t24.5 -56q0 -17 -7 -30.5t-18 -23.5t-24.5 -15.5 t-27.5 -5.5q-31 0 -54 21.5t-23 53.5z" />
<glyph unicode="&#x2c6;" horiz-adv-x="500" d="M75 463v8l146 154h61l146 -154v-8h-106l-71 58l-70 -58h-106z" />
<glyph unicode="&#x2dc;" horiz-adv-x="500" d="M61 472q0 35 9.5 64t26.5 50t39.5 32.5t48.5 11.5q22 0 38 -10t30 -22.5t27 -22.5t28 -10q17 0 26 17t9 43h95q0 -35 -9 -64t-25 -50t-38.5 -32.5t-50.5 -11.5q-24 0 -41.5 10t-31 22t-25 22t-23.5 10q-19 0 -29.5 -16.5t-10.5 -42.5h-93z" />
<glyph unicode="&#x2000;" horiz-adv-x="477" />
<glyph unicode="&#x2001;" horiz-adv-x="954" />
<glyph unicode="&#x2002;" horiz-adv-x="477" />
<glyph unicode="&#x2003;" horiz-adv-x="954" />
<glyph unicode="&#x2004;" horiz-adv-x="318" />
<glyph unicode="&#x2005;" horiz-adv-x="238" />
<glyph unicode="&#x2006;" horiz-adv-x="159" />
<glyph unicode="&#x2007;" horiz-adv-x="159" />
<glyph unicode="&#x2008;" horiz-adv-x="119" />
<glyph unicode="&#x2009;" horiz-adv-x="190" />
<glyph unicode="&#x200a;" horiz-adv-x="53" />
<glyph unicode="&#x2010;" horiz-adv-x="380" d="M40 155v159h300v-159h-300z" />
<glyph unicode="&#x2011;" horiz-adv-x="380" d="M40 155v159h300v-159h-300z" />
<glyph unicode="&#x2012;" horiz-adv-x="380" d="M40 155v159h300v-159h-300z" />
<glyph unicode="&#x2013;" horiz-adv-x="500" d="M40 155v159h420v-159h-420z" />
<glyph unicode="&#x2014;" horiz-adv-x="1000" d="M92 178v128h816v-128h-816z" />
<glyph unicode="&#x2018;" horiz-adv-x="400" d="M57 386v7l158 287h138v-8l-93 -286h-203z" />
<glyph unicode="&#x2019;" horiz-adv-x="400" d="M47 386v8l93 286h203v-7l-158 -287h-138z" />
<glyph unicode="&#x201a;" horiz-adv-x="400" d="M47 -171l93 286h203v-7l-158 -287h-138v8z" />
<glyph unicode="&#x201c;" horiz-adv-x="650" d="M57 386v7l158 287h138v-8l-93 -286h-203zM307 386v7l158 287h138v-8l-93 -286h-203z" />
<glyph unicode="&#x201d;" horiz-adv-x="650" d="M47 386v8l93 286h203v-7l-158 -287h-138zM297 386v8l93 286h203v-7l-158 -287h-138z" />
<glyph unicode="&#x201e;" horiz-adv-x="650" d="M47 -171l93 286h203v-7l-158 -287h-138v8zM297 -171l93 286h203v-7l-158 -287h-138v8z" />
<glyph unicode="&#x2022;" horiz-adv-x="480" d="M104 264q0 28 10.5 53t29 43.5t43.5 29t53 10.5t53 -10.5t43.5 -29t29 -43.5t10.5 -53t-10.5 -53t-29 -43.5t-43.5 -29t-53 -10.5t-53 10.5t-43.5 29t-29 43.5t-10.5 53z" />
<glyph unicode="&#x2026;" horiz-adv-x="1060" d="M59 101q0 23 8.5 43.5t23.5 35.5t35.5 24t43.5 9t43.5 -9t35.5 -24t23.5 -35.5t8.5 -43.5t-8.5 -43.5t-23.5 -35.5t-35.5 -23.5t-43.5 -8.5t-43.5 8.5t-35.5 23.5t-23.5 35.5t-8.5 43.5zM419 101q0 23 8.5 43.5t23.5 35.5t35.5 24t43.5 9t43.5 -9t35.5 -24t23.5 -35.5 t8.5 -43.5t-8.5 -43.5t-23.5 -35.5t-35.5 -23.5t-43.5 -8.5t-43.5 8.5t-35.5 23.5t-23.5 35.5t-8.5 43.5zM779 101q0 23 8.5 43.5t23.5 35.5t35.5 24t43.5 9t43.5 -9t35.5 -24t23.5 -35.5t8.5 -43.5t-8.5 -43.5t-23.5 -35.5t-35.5 -23.5t-43.5 -8.5t-43.5 8.5t-35.5 23.5 t-23.5 35.5t-8.5 43.5z" />
<glyph unicode="&#x202f;" horiz-adv-x="190" />
<glyph unicode="&#x2039;" horiz-adv-x="450" d="M64 224v9l223 231l91 -67l-125 -167l122 -167l-93 -72z" />
<glyph unicode="&#x203a;" horiz-adv-x="450" d="M72 397l91 67l223 -231v-9l-218 -233l-93 72l122 167z" />
<glyph unicode="&#x205f;" horiz-adv-x="238" />
<glyph unicode="&#x20ac;" horiz-adv-x="660" d="M46 240l20 85h50v4v13t1 13h-67l22 85h57q16 61 48 108.5t75.5 80t96 49.5t109.5 17q48 0 92.5 -11t79.5 -32l-60 -180q-23 11 -50 19t-59 7q-31 -1 -59.5 -15t-47.5 -43h203l-22 -85h-207q-1 -5 -1 -11v-11v-8h202l-20 -85h-153q20 -27 48 -42.5t59 -15.5q33 0 60 8 t52 24l47 -188q-38 -20 -83 -30.5t-93 -10.5q-62 0 -115 19t-94 53t-69.5 81t-41.5 102h-80z" />
<glyph unicode="&#x2122;" horiz-adv-x="690" d="M64 617v63h244v-63h-88v-197h-68v197h-88zM310 420l51 260h49l56 -141h4l55 141h50l51 -260h-69l-20 120h-5l-52 -122h-25l-52 122h-4l-21 -120h-68z" />
<glyph unicode="&#x25fc;" horiz-adv-x="475" d="M0 0v475h475v-475h-475z" />
</font>
</defs>
</svg>
