<?xml version="1.0" standalone="no"?>
<!DOCTYPE svg PUBLIC "-//W3C//DTD SVG 1.1//EN" "http://www.w3.org/Graphics/SVG/1.1/DTD/svg11.dtd" >
<svg xmlns="http://www.w3.org/2000/svg" xmlns:xlink="http://www.w3.org/1999/xlink" version="1.1">
<metadata></metadata>
<defs>
<font id="concourse_t4italic" horiz-adv-x="530" >
<font-face units-per-em="1000" ascent="742" descent="-258" />
<missing-glyph horiz-adv-x="220" />
<glyph unicode="&#xfb01;" horiz-adv-x="550" d="M25 376l7 52l100 19l6 44q6 46 23.5 80.5t39.5 58t45 36.5t41 16h96v-48q-69 -10 -108 -44t-50 -105l-6 -38l99 1l-12 -63l-101 -10l-60 -350l-10 -118l-100 -10l85 479h-95zM335 -5l62 357l5 89l102 12l-61 -348l-7 -100zM421 622q0 25 17.5 42.5t42.5 17.5t42.5 -17.5 t17.5 -42.5t-17.5 -42.5t-42.5 -17.5t-42.5 17.5t-17.5 42.5z" />
<glyph unicode="&#xfb02;" horiz-adv-x="550" d="M25 376l7 52l100 19l6 44q6 46 23.5 80.5t39.5 58t45 36.5t41 16h96v-48q-69 -10 -108 -44t-50 -105l-6 -38l99 1l-12 -63l-101 -10l-60 -350l-10 -118l-100 -10l85 479h-95zM331 -5l68 357l35 229l6 99l108 12l-65 -341l-40 -228l-7 -118z" />
<glyph horiz-adv-x="0" />
<glyph unicode="&#xd;" horiz-adv-x="220" />
<glyph horiz-adv-x="0" />
<glyph horiz-adv-x="0" />
<glyph unicode=" "  horiz-adv-x="220" />
<glyph unicode="&#x09;" horiz-adv-x="220" />
<glyph unicode="&#xa0;" horiz-adv-x="220" />
<glyph unicode="!" horiz-adv-x="310" d="M39 53q0 25 17.5 42.5t42.5 17.5t42.5 -17.5t17.5 -42.5t-17.5 -42.5t-42.5 -17.5t-42.5 17.5t-17.5 42.5zM95 193l65 375l17 107l116 9l4 -7l-75 -232l-74 -247z" />
<glyph unicode="&#x22;" horiz-adv-x="400" d="M100 406l50 274h102l-97 -274h-55zM250 406l50 274h102l-97 -274h-55z" />
<glyph unicode="#" horiz-adv-x="510" d="M11 259l10 58l120 -21l36 155l-106 19l10 58l110 -20l49 211l52 -12l-48 -208l96 -17l56 228l52 -12l-55 -225l109 -19l-10 -58l-113 19l-38 -155l101 -17l-10 -58l-105 18l-63 -262l-52 12l63 259l-95 17l-64 -278l-52 12l64 275zM194 286l95 -16l37 155l-96 17z" />
<glyph unicode="$" horiz-adv-x="470" d="M-2 91l41 72q23 -17 51 -31.5t63 -20.5l63 218l-10 6q-22 13 -43.5 27.5t-38.5 33t-27.5 42t-10.5 55.5q0 25 12 55t37.5 56t64.5 43.5t94 17.5h9.5t9.5 -1l24 85l46 -10l-24 -81q31 -8 57 -20t47 -28l-38 -71q-22 14 -43 24.5t-45 16.5l-56 -195q70 -42 97.5 -83.5 t27.5 -86.5q0 -51 -22 -86.5t-55.5 -57.5t-73.5 -32t-76 -10h-1l-29 -101l-46 10l27 96q-43 8 -79 24.5t-53 32.5zM169 495q0 -22 14 -40.5t56 -44.5l51 175h-1q-54 0 -87 -23.5t-33 -66.5zM201 109q61 4 90 34.5t29 66.5q0 25 -14 46t-49 46z" />
<glyph unicode="%" horiz-adv-x="680" d="M61 499q0 43 13.5 78t36 60.5t51.5 39.5t60 14q24 0 45 -9.5t37 -26.5t25.5 -41t9.5 -53q0 -43 -13.5 -78t-35 -60t-50 -38.5t-58.5 -13.5q-55 0 -88 35t-33 93zM67 17l271 345l228 327l57 -25l-255 -323l-245 -350zM134 502q0 -29 13.5 -48.5t38.5 -19.5q32 0 56 34 t24 90q0 32 -13.5 51t-34.5 19q-16 0 -31 -10t-27 -27t-19 -40t-7 -49zM354 117q0 43 13.5 78t36 60.5t51.5 39.5t60 14q24 0 45 -9.5t37 -26.5t25.5 -41t9.5 -53q0 -43 -13.5 -78t-35 -60t-50 -38.5t-58.5 -13.5q-55 0 -88 35t-33 93zM427 120q0 -29 13.5 -48.5t38.5 -19.5 q32 0 56 34t24 90q0 32 -13.5 51t-34.5 19q-16 0 -31 -10t-27 -27t-19 -40t-7 -49z" />
<glyph unicode="&#x26;" horiz-adv-x="650" d="M23 166q0 49 16.5 89t43.5 71.5t60.5 54t67.5 36.5v5q-41 20 -54.5 45.5t-13.5 52.5q0 38 20 70t51.5 55.5t70.5 36.5t77 13q57 0 95 -13t71 -36l-47 -79q-25 18 -52.5 30.5t-67.5 12.5q-23 0 -44.5 -7t-38.5 -19t-27.5 -29t-10.5 -37q0 -31 15.5 -51t56.5 -28l-11 -63 q-46 -8 -80 -26t-56.5 -44t-33.5 -58t-11 -67q0 -27 11 -47.5t29.5 -34.5t43.5 -21.5t53 -7.5q48 0 87.5 12.5t67 35t43 53t15.5 66.5q0 13 -1.5 24.5t-6.5 21.5l-86 -14l-8 72l242 40l8 -72l-69 -11q3 -11 4.5 -25t1.5 -27q0 -62 -25.5 -110.5t-67.5 -82t-96.5 -51 t-113.5 -17.5q-52 0 -94 14t-72 38t-46.5 57t-16.5 72z" />
<glyph unicode="'" horiz-adv-x="250" d="M100 406l50 274h102l-97 -274h-55z" />
<glyph unicode="(" horiz-adv-x="350" d="M38 191q0 90 28.5 172.5t74 152.5t102.5 126t114 93l40 -61q-55 -36 -102.5 -88.5t-82.5 -117t-55 -138.5t-20 -153q0 -97 27.5 -171t77.5 -130l-46 -53q-30 27 -58.5 63t-50.5 81t-35.5 100.5t-13.5 123.5z" />
<glyph unicode=")" horiz-adv-x="350" d="M-67 -116q55 36 102.5 88.5t82.5 117t55 138.5t20 153q0 97 -27.5 171t-77.5 130l46 53q30 -27 58.5 -63t50.5 -81t35.5 -101t13.5 -123q0 -90 -28.5 -172.5t-74 -152.5t-102.5 -126t-114 -93z" />
<glyph unicode="*" d="M100 351l158 104l-153 56l48 80l125 -97l15 191l99 -21l-75 -180l160 48l10 -97l-170 10l109 -162l-81 -44l-60 189l-131 -153z" />
<glyph unicode="+" d="M33 267v68h198v198h68v-198h198v-68h-198v-198h-68v198h-198z" />
<glyph unicode="," horiz-adv-x="250" d="M-61 -146l76 136l44 98h106v-5l-81 -131l-76 -103h-69v5z" />
<glyph unicode="-" horiz-adv-x="340" d="M19 193l15 84l260 10l-15 -84z" />
<glyph unicode="." horiz-adv-x="270" d="M35 53q0 25 17.5 42.5t42.5 17.5t42.5 -17.5t17.5 -42.5t-17.5 -42.5t-42.5 -17.5t-42.5 17.5t-17.5 42.5z" />
<glyph unicode="/" horiz-adv-x="460" d="M-76 -160l509 860h82l-510 -860h-81z" />
<glyph unicode="0" horiz-adv-x="590" d="M36 236q0 98 23.5 182t66 145.5t101 96.5t127.5 35q44 0 82 -16t65.5 -47.5t43 -79.5t15.5 -111q0 -95 -23 -178.5t-65 -145t-100.5 -97t-129.5 -35.5q-42 0 -79 14t-65.5 44.5t-45 78t-16.5 114.5zM131 237q0 -48 9.5 -80.5t26 -52t38.5 -28t47 -8.5q50 0 89.5 32 t66.5 84.5t42 119.5t15 138q0 85 -32.5 127.5t-89.5 42.5q-50 0 -89.5 -33.5t-66.5 -87t-41.5 -120.5t-14.5 -134z" />
<glyph unicode="1" horiz-adv-x="450" d="M122 579l8 82l209 26l14 -12l-106 -601l-2 -69l-102 -10l105 601z" />
<glyph unicode="2" horiz-adv-x="540" d="M-27 32q132 100 217.5 175.5t135.5 133t69.5 100.5t19.5 78q0 48 -28.5 70.5t-76.5 22.5q-29 0 -55.5 -6.5t-49 -15.5t-40 -18.5t-26.5 -14.5l-16 78q7 5 25 15t44.5 20t59 17.5t69.5 7.5q42 0 77.5 -8.5t62 -27.5t41.5 -48t15 -71q0 -47 -24.5 -101t-71 -111.5 t-114 -118t-153.5 -120.5l1 -6l295 24l-16 -97l-457 -15z" />
<glyph unicode="3" horiz-adv-x="520" d="M-13 24l12 82l4 3q38 -20 78 -31t85 -11q34 0 66 9t57 27t40 44.5t15 61.5q0 44 -30 73t-86 28l-121 -4l24 87l107 -4q28 -1 55.5 8t49.5 26t35.5 42t13.5 57q0 45 -31 69.5t-82 24.5q-32 0 -69 -9t-78 -26l-4 3l-7 70q32 16 78 28.5t97 12.5q42 0 77 -11t61 -31.5 t40.5 -50.5t14.5 -68q0 -34 -12 -64t-33 -54t-49 -40.5t-61 -22.5v-7q47 -13 75.5 -51.5t28.5 -83.5q0 -58 -25.5 -100.5t-65.5 -70.5t-88.5 -41.5t-94.5 -13.5q-54 0 -98 11t-79 28z" />
<glyph unicode="4" horiz-adv-x="550" d="M22 239l372 436l105 10l-70 -405l73 4l-14 -79l-73 -2l-23 -132l-2 -66l-98 -10l35 207l-295 -7zM135 271l2 -6l203 12l51 287l-5 1z" />
<glyph unicode="5" horiz-adv-x="540" d="M0 -4l25 81q18 -5 44 -7.5t49 -2.5q64 0 113 14.5t82 39t50 56t17 66.5q0 37 -16 63t-43 42t-62 23.5t-73 7.5q-64 0 -106 -6l-4 3l91 299l363 10l-26 -80l-275 -8l-47 -149q15 2 27.5 2.5t26.5 0.5q58 0 102.5 -15t75.5 -41.5t47 -63t16 -78.5q0 -68 -31 -118.5 t-82.5 -83.5t-118 -49.5t-137.5 -16.5q-31 0 -58.5 2t-49.5 9z" />
<glyph unicode="6" horiz-adv-x="540" d="M32 192q0 102 39 190t107 154.5t159.5 108t197.5 50.5l-27 -89q-66 -4 -121.5 -26t-99.5 -54t-75 -70.5t-47 -76.5l6 -6q26 13 57.5 20t63.5 7q34 0 67.5 -10.5t60.5 -32.5t43.5 -56.5t16.5 -82.5q0 -53 -19 -96t-51 -73.5t-75 -47t-91 -16.5q-53 0 -93 16t-66.5 44 t-39.5 65.5t-13 81.5zM125 195q0 -61 32 -96.5t89 -35.5q29 0 55 10.5t44.5 29.5t29 46.5t9.5 62.5q-1 31 -12 53.5t-28.5 36t-41 20t-50.5 6.5t-55 -7t-55 -21q-8 -26 -12.5 -53.5t-4.5 -51.5z" />
<glyph unicode="7" horiz-adv-x="500" d="M78 585l14 90l430 10l8 -12q-62 -88 -114 -172t-93.5 -166.5t-72 -164t-49.5 -165.5l-114 -10q27 82 61.5 163.5t74.5 159t84 148.5t91 131l-3 5z" />
<glyph unicode="8" d="M11 139q0 36 15 68.5t39.5 60t56 49.5t64.5 37l1 6q-46 33 -66.5 67.5t-20.5 70.5q0 39 18 74.5t49.5 62.5t74.5 43.5t93 16.5q39 0 72 -10t57 -28.5t38 -45t14 -60.5q0 -33 -12.5 -62t-34.5 -53.5t-51.5 -44.5t-63.5 -36l-2 -7q59 -38 86.5 -76.5t27.5 -81.5 q0 -44 -19.5 -81t-52.5 -65t-78 -43.5t-96 -15.5q-48 0 -87 11.5t-66 31.5t-41.5 48.5t-14.5 62.5zM104 151q0 -43 33.5 -67t87.5 -24q32 0 59 10t46.5 26.5t30 37.5t10.5 44q0 22 -9 41.5t-24.5 36.5t-36.5 32t-44 29q-5 1 -7 4q-73 -29 -109.5 -76t-36.5 -94zM194 510 q0 -35 24 -64t74 -61q25 13 48.5 29.5t41.5 36t29 42t11 48.5q0 35 -25 58.5t-73 23.5q-33 0 -57 -10.5t-40.5 -26.5t-24.5 -36.5t-8 -39.5z" />
<glyph unicode="9" horiz-adv-x="540" d="M58 461q0 44 18 86t50 75t76 53t97 20t92 -17t64.5 -46t38 -68.5t12.5 -85.5q0 -92 -30.5 -171.5t-85 -142.5t-131 -108.5t-167.5 -70.5l-24 67l2 5q51 18 98.5 41t87.5 52.5t70 66.5t47 84l-6 6q-25 -13 -56 -20t-60 -7q-38 0 -72.5 10.5t-61.5 33t-43 56.5t-16 81z M153 468q0 -29 10.5 -51t29 -37t42.5 -22.5t51 -7.5q26 0 55.5 7t55.5 21q10 25 12.5 55t2.5 52q0 61 -32 97t-88 36q-27 0 -52 -11t-44.5 -31t-31 -47.5t-11.5 -60.5z" />
<glyph unicode=":" horiz-adv-x="270" d="M26 53q0 25 17.5 42.5t42.5 17.5t42.5 -17.5t17.5 -42.5t-17.5 -42.5t-42.5 -17.5t-42.5 17.5t-17.5 42.5zM86 373q0 25 17.5 42.5t42.5 17.5t42.5 -17.5t17.5 -42.5t-17.5 -42.5t-42.5 -17.5t-42.5 17.5t-17.5 42.5z" />
<glyph unicode=";" horiz-adv-x="290" d="M-59 -146l76 136l44 98h106v-5l-81 -131l-76 -103h-69v5zM94 373q0 25 17.5 42.5t42.5 17.5t42.5 -17.5t17.5 -42.5t-17.5 -42.5t-42.5 -17.5t-42.5 17.5t-17.5 42.5z" />
<glyph unicode="&#x3c;" d="M50 290v62l404 190l25 -65l-343 -156l343 -156l-25 -65z" />
<glyph unicode="=" d="M43 163v68h444v-68h-444zM43 363v68h444v-68h-444z" />
<glyph unicode="&#x3e;" d="M51 165l343 156l-343 156l25 65l404 -190v-62l-404 -190z" />
<glyph unicode="?" horiz-adv-x="450" d="M54 53q0 25 17.5 42.5t42.5 17.5t42.5 -17.5t17.5 -42.5t-17.5 -42.5t-42.5 -17.5t-42.5 17.5t-17.5 42.5zM73 294q0 39 21.5 65.5t53.5 45.5t69.5 34.5t69.5 32.5t53.5 38.5t21.5 53.5q0 31 -21 44.5t-50 13.5q-63 0 -133 -44l-25 62q34 22 76.5 38.5t91.5 16.5 q69 0 108.5 -34.5t39.5 -88.5q0 -45 -21.5 -75.5t-53.5 -53t-70 -39t-70 -32t-53.5 -32.5t-21.5 -41q0 -17 9 -23.5t25 -6.5q28 0 54 18l21 -54q-22 -14 -46 -19.5t-49 -5.5q-42 0 -71 22t-29 64z" />
<glyph unicode="@" horiz-adv-x="690" d="M70 295q0 76 20.5 149t61 130t100.5 91.5t140 34.5q47 0 87 -10.5t68 -33t42 -57t11 -83.5l-19 -277q-2 -25 6 -43t20 -29l-1 -10l-78 -24l-18 44h-15q-47 -36 -113 -36q-25 0 -48 9.5t-40 27.5t-27.5 45.5t-10.5 63.5q0 38 12.5 70t34.5 55.5t51.5 36.5t62.5 13 q24 0 50.5 -2t46.5 -6l5 54q3 35 -5.5 58t-25.5 36.5t-42 19t-56 5.5q-51 0 -95 -24.5t-76.5 -68.5t-50.5 -105.5t-18 -134.5q0 -79 17.5 -136t47.5 -94t70.5 -54.5t87.5 -17.5q40 0 70 8t54 28h5l28 -59q-34 -29 -79 -41t-79 -12q-77 0 -133.5 27t-94 76.5t-56 119.5 t-18.5 156zM335 287q0 -42 21 -58t50 -16q23 0 48.5 6.5t45.5 17.5l10 149q-19 4 -40 5.5t-41 1.5q-40 0 -67 -27t-27 -79z" />
<glyph unicode="A" horiz-adv-x="680" d="M-35 3l237 344l227 353h20l78 -365l77 -330l-88 -10l-40 186l-296 -11l-108 -165l-104 -9zM234 252l225 9l-52 250h-7z" />
<glyph unicode="B" horiz-adv-x="560" d="M20 -5l64 344l39 245l6 91l176 8h15q42 1 76 -9q38 -12 64 -33.5t38.5 -51t12.5 -62.5q0 -29 -10 -56t-27.5 -49.5t-42 -39t-53.5 -23.5l-1 -5q54 -10 84 -48.5t30 -85.5q0 -53 -21.5 -92.5t-58.5 -66.5t-86.5 -41.5t-106.5 -16.5zM130 76l106 4q23 1 51 6.5t52 20 t40.5 40.5t16.5 67q0 25 -9.5 45t-26 33.5t-38.5 20.5q-17 5 -35 5h-11l-107 -8zM183 388l109 8q28 2 50.5 12t38.5 26t24.5 36.5t8.5 43.5q0 44 -30 68q-28 23 -73 22h-7l-82 -3z" />
<glyph unicode="C" horiz-adv-x="660" d="M44 295q0 78 30.5 150t83.5 127.5t124.5 89t154.5 33.5q37 0 70.5 -8t62 -20t51 -27t37.5 -28l-52 -73q-10 9 -26.5 21t-39 23t-51 19t-61.5 8q-51 0 -101.5 -21.5t-91.5 -62t-66.5 -98.5t-25.5 -132q0 -50 14.5 -91.5t41 -71.5t64 -46.5t84.5 -16.5q61 0 114.5 20 t92.5 51l33 -75q-44 -35 -108 -58t-139 -23q-67 0 -121.5 24t-93.5 66t-60 98.5t-21 121.5z" />
<glyph unicode="D" horiz-adv-x="670" d="M20 -5l64 356l35 217l7 107l184 7h12q59 0 112 -18q58 -20 101 -57.5t68 -91.5t25 -120q0 -99 -34 -171.5t-88.5 -121t-122.5 -73t-136 -27.5zM133 82l97 2q74 2 130.5 27t94.5 66t57 95.5t19 114.5q0 55 -17.5 96.5t-48.5 68t-72 38.5q-35 11 -75 11h-13l-81 -3 l-51 -261z" />
<glyph unicode="E" horiz-adv-x="510" d="M18 -5l67 361l35 216l7 103l395 10l-19 -82l-284 -7l-40 -206l263 10l-19 -82l-258 -10l-37 -231l304 10l-19 -82z" />
<glyph unicode="F" horiz-adv-x="490" d="M20 -5l68 358l32 204l9 118l384 10l-19 -82l-270 -5l-41 -208l250 10l-19 -82l-245 -10l-50 -308z" />
<glyph unicode="G" horiz-adv-x="710" d="M44 280q0 81 28.5 155.5t81 132.5t126 92.5t162.5 34.5q36 0 69 -8t60.5 -20.5t49.5 -27.5t36 -28l-51 -74q-9 11 -26 23.5t-40 23.5t-51 18.5t-59 7.5q-52 0 -103 -21.5t-92 -62.5t-66.5 -99.5t-25.5 -132.5q0 -51 16 -92.5t44 -71t66 -45t82 -15.5q52 0 92.5 16.5 t67.5 37.5l29 162l-185 -8l15 80l278 10l-50 -286q-52 -46 -114.5 -71.5t-147.5 -25.5q-64 0 -117.5 24.5t-92.5 66t-60.5 94.5t-21.5 110z" />
<glyph unicode="H" horiz-adv-x="690" d="M20 -5l71 371l35 222l3 87l110 10l-56 -295l351 10l29 177l6 98l109 10l-62 -324l-38 -235l-9 -121l-109 -10l60 323l-351 -10l-32 -199l-7 -104z" />
<glyph unicode="I" horiz-adv-x="270" d="M29 -5l69 359l33 214l7 107l110 10l-64 -333l-38 -238l-7 -109z" />
<glyph unicode="J" horiz-adv-x="410" d="M-36 21l40 77q11 -10 29 -20t44 -10q57 0 93 39.5t52 128.5l63 351l5 88l108 10l-52 -275l-32 -189q-10 -60 -32 -104.5t-53.5 -73.5t-71 -43.5t-84.5 -14.5q-32 0 -61 10t-48 26z" />
<glyph unicode="K" horiz-adv-x="600" d="M20 -5l66 353l38 233l5 94l109 10l-59 -315h10l309 305l122 8l-1 -10l-343 -329l257 -331l-1 -10l-101 -8l-236 305l-32 -28l-25 -148l-9 -119z" />
<glyph unicode="L" horiz-adv-x="490" d="M20 -5l65 360l32 200l7 120l111 10l-61 -327l-44 -278l293 12l-19 -82z" />
<glyph unicode="M" horiz-adv-x="850" d="M-10 -5l261 695h20l131 -516h4l365 516h20l-40 -591l2 -89l-107 -15l38 424h-7l-307 -429h-10l-110 440h-7l-124 -339l-21 -86z" />
<glyph unicode="N" horiz-adv-x="750" d="M20 -5l65 341l56 354h30l373 -506h8l46 257l20 133l6 101l109 10l-55 -286l-66 -409h-30l-374 505h-8l-32 -187l-31 -197l-7 -106z" />
<glyph unicode="O" horiz-adv-x="770" d="M44 288q0 86 32 160.5t85.5 129t123 86t143.5 31.5q63 0 117.5 -22.5t94 -63t62.5 -96.5t23 -122q0 -86 -29 -160.5t-80.5 -129t-122 -85.5t-152.5 -31q-62 0 -116.5 22.5t-94.5 62.5t-63 95.5t-23 122.5zM142 292q0 -41 12.5 -80.5t38 -71t63.5 -51t89 -19.5 q65 0 117 27t89 71t56.5 101.5t19.5 117.5q0 51 -16.5 92t-44.5 70t-65 45t-78 16q-51 0 -101 -21.5t-90 -62.5t-65 -100t-25 -134z" />
<glyph unicode="P" horiz-adv-x="520" d="M19 -5l66 351l37 229l6 100l168 8h13q37 1 69 -9q38 -12 66.5 -35t45 -58.5t16.5 -81.5q0 -53 -22 -93.5t-58 -69t-81.5 -44t-93.5 -17.5l-90 -4l-27 -164l-6 -102zM175 350l85 4q33 2 60 15t46 32.5t29.5 43.5t10.5 48q0 51 -30 82q-28 29 -77 29h-6l-70 -3z" />
<glyph unicode="Q" horiz-adv-x="770" d="M44 288q0 86 32 160.5t85.5 129t123 86t143.5 31.5q63 0 117.5 -22.5t94 -63t62.5 -96.5t23 -122q0 -86 -29 -160.5t-80.5 -129t-122 -85.5t-152.5 -31h-10l-2 -3q19 -17 49.5 -35t66.5 -33t75 -24q31 -7 61 -7h14l-27 -94q-49 0 -92.5 14t-83 35t-75.5 46t-70.5 47.5 t-68.5 39.5t-68 22l33 65q-46 41 -72.5 99.5t-26.5 130.5zM142 292q0 -41 12.5 -80.5t38 -71t63.5 -51t89 -19.5q65 0 117 27t89 71t56.5 101.5t19.5 117.5q0 51 -16.5 92t-44.5 70t-65 45t-78 16q-51 0 -101 -21.5t-90 -62.5t-65 -100t-25 -134z" />
<glyph unicode="R" horiz-adv-x="570" d="M21 -5l63 347l36 223l10 110l198 7h6q37 0 70 -10q36 -12 62.5 -35t41.5 -57t15 -76q0 -49 -18 -85t-47.5 -61.5t-68 -41t-81.5 -22.5l199 -278l-2 -11l-98 -10l-196 287l-47 -5l-29 -178l-5 -94zM178 355l72 7q37 3 69 11.5t56 24.5t37.5 41t13.5 62q0 26 -10 45.5 t-27 32.5t-40 19q-20 5 -42 5h-7l-78 -5z" />
<glyph unicode="S" horiz-adv-x="510" d="M-1 68l59 72q20 -27 57 -49.5t85 -22.5q63 0 101 30.5t38 82.5q0 38 -18 63.5t-45.5 45.5t-59 38t-59 40.5t-45.5 54t-18 77.5q0 40 16.5 76t45.5 62t68 41.5t83 15.5q63 0 111.5 -23.5t77.5 -58.5l-56 -67q-11 12 -24.5 23.5t-30.5 21.5t-37 16t-43 6q-50 0 -82.5 -30 t-32.5 -75q0 -32 18.5 -55t46 -42.5t59.5 -38.5t59.5 -43.5t46 -57t18.5 -79.5q0 -50 -19 -88.5t-52 -64.5t-76.5 -40t-91.5 -14q-60 0 -111 21.5t-89 61.5z" />
<glyph unicode="T" horiz-adv-x="560" d="M55 593l14 82l531 10l-14 -82l-211 -4l-53 -268l-35 -221l-7 -105l-110 -10l66 343l39 259z" />
<glyph unicode="U" horiz-adv-x="690" d="M64 145q-3 20 -4 41q0 25 5 51l61 341l7 97l109 10l-85 -431q-6 -30 -6 -55q1 -16 3 -30q6 -35 25.5 -57.5t50.5 -33t72 -10.5q39 0 73.5 10t62 32t47 57.5t27.5 86.5l48 314l7 107l109 10l-77 -443q-9 -51 -30.5 -98t-58.5 -82t-92 -56t-130 -21q-71 0 -118 22 t-72.5 57.5t-33.5 80.5z" />
<glyph unicode="V" horiz-adv-x="610" d="M59 675l93 10l121 -491h10l285 481l96 9l4 -7l-414 -692h-20z" />
<glyph unicode="W" horiz-adv-x="870" d="M69 675l96 10l81 -471h8l226 476h26l69 -476h8l236 461l98 9l2 -6l-365 -693h-30l-64 454h-8l-222 -454h-30z" />
<glyph unicode="X" horiz-adv-x="590" d="M-39 5l283 337l-172 333l100 10l132 -270l212 260l109 9l4 -10l-274 -327l176 -342l-102 -10l-136 281l-220 -271l-109 -9z" />
<glyph unicode="Y" horiz-adv-x="590" d="M69 675l92 10l135 -291h8l223 281l103 9l4 -10l-297 -371l-37 -209l-6 -89l-104 -10l53 308z" />
<glyph unicode="Z" horiz-adv-x="590" d="M-48 5l511 589l-4 6l-364 -17l24 82l518 20l5 -5l-514 -595l4 -6l396 18l-24 -82l-547 -20z" />
<glyph unicode="[" horiz-adv-x="370" d="M6 -164l88 454l68 434l243 -4l-12 -70l-143 4l-71 -367l-61 -381l151 4l-13 -70z" />
<glyph unicode="\" horiz-adv-x="460" d="M35 700h79l302 -860h-78z" />
<glyph unicode="]" horiz-adv-x="370" d="M-55 -160l12 70l143 -4l71 367l61 381l-151 -4l13 70l250 4l-88 -454l-68 -434z" />
<glyph unicode="^" d="M30 314l222 377h27l221 -377l-58 -33l-172 300h-8l-175 -300z" />
<glyph unicode="_" d="M-120 -210l11 70h579l-11 -70h-579z" />
<glyph unicode="`" horiz-adv-x="500" d="M113 610v10h86l111 -164v-8h-58z" />
<glyph unicode="a" horiz-adv-x="450" d="M9 105q0 33 13 71q24 26 57 45t70 30t75 15q16 1 31 1q22 0 42 -3q2 19 2 36q-1 38 -13 58q-18 30 -66 31q-15 0 -32 -4.5t-33.5 -12t-31.5 -17t-25 -18.5h-3l-29 59q36 30 80.5 48t92.5 18q36 0 64.5 -13.5t47.5 -38.5t27 -60q4 -19 4 -40q0 -18 -3 -38l-27 -173 q-1 -8 -1 -16q0 -11 2 -25q4 -24 15 -39l-3 -6l-76 -22q-5 11 -11 31q-5 16 -4 33v6h-4q-26 -27 -64.5 -48t-81.5 -28q-48 5 -81.5 37.5t-33.5 82.5zM90 125v-6q0 -19 10 -37q12 -20 42 -25q38 5 74.5 25t59.5 47l14 73q-21 3 -42 3h-11q-27 -1 -53 -7t-49 -18.5t-41 -32.5 q-2 -5 -3 -11t-1 -11z" />
<glyph unicode="b" horiz-adv-x="490" d="M8 41l54 290l41 250l7 99l103 12l-57 -306h5q24 27 61 50t79 27q63 -9 101 -59t38 -128q0 -63 -21.5 -116t-58 -92t-86 -60.5t-106.5 -21.5q-41 0 -81.5 13t-78.5 42zM103 85q13 -12 32.5 -18t43.5 -6q30 0 60 13.5t54.5 40.5t39.5 68t15 96q0 43 -18.5 70.5t-47.5 33.5 q-17 0 -36 -7t-38 -19t-36 -27.5t-30 -33.5z" />
<glyph unicode="c" horiz-adv-x="400" d="M10 154q0 69 22.5 126t58.5 97.5t81 62.5t89 22q48 0 80 -18.5t52 -44.5l-52 -59q-17 21 -37.5 33.5t-47.5 12.5q-28 0 -55.5 -16t-49 -44.5t-35 -69t-13.5 -88.5q0 -56 25.5 -80.5t64.5 -24.5q31 0 56.5 12.5t47.5 28.5l32 -60q-28 -29 -70.5 -43.5t-85.5 -14.5 q-76 0 -119.5 45.5t-43.5 122.5z" />
<glyph unicode="d" horiz-adv-x="490" d="M10 160q0 63 20.5 118t55 96t79 64.5t93.5 23.5q23 0 49 -8.5t46 -27.5h5l29 162l6 92l106 12l-64 -347l-43 -243l-8 -97l-79 -10l3 83h-4q-26 -30 -67 -57t-87 -36q-30 6 -55.5 21.5t-44 38.5t-29.5 52t-11 63zM103 171q0 -48 18.5 -73.5t46.5 -33.5q18 2 38 10.5 t39.5 22.5t37.5 32.5t30 39.5l33 179q-14 18 -36 27t-48 9q-33 0 -62 -16.5t-50.5 -45.5t-34 -67.5t-12.5 -83.5z" />
<glyph unicode="e" horiz-adv-x="450" d="M10 152q0 61 20 117.5t53.5 99t78 68t94.5 25.5q33 0 60.5 -11.5t48 -31t31.5 -45.5t11 -54q0 -14 -2 -28.5t-7 -28.5q-25 -21 -60.5 -37t-75.5 -25t-82 -12q-18 -1 -34 -1q-22 0 -43 2q-2 -15 -2 -29q0 -44 20 -68q26 -32 71 -32q35 0 70.5 15t61.5 38h3l24 -67 q-32 -28 -78 -44.5t-94 -16.5q-36 0 -67 11.5t-53.5 33t-35.5 52t-13 69.5zM115 255q24 -2 46 -2q34 1 67 5q54 8 96 35q1 8 1 16q1 9 -1 19q-4 17 -13.5 30.5t-24.5 21.5t-36 8q-25 0 -47 -12t-39.5 -31.5t-30 -43t-18.5 -46.5z" />
<glyph unicode="f" horiz-adv-x="320" d="M25 376l7 52l100 19l6 44q6 46 23.5 80.5t39.5 58t45 36.5t41 16h96v-48q-69 -10 -108 -44t-50 -105l-6 -38l99 1l-12 -63l-101 -10l-60 -350l-10 -118l-100 -10l85 479h-95z" />
<glyph unicode="g" horiz-adv-x="490" d="M2 -171l33 74h2q46 -30 98 -30q28 0 55.5 9.5t51.5 34t42 67t26 107.5h-5q-29 -35 -69 -61t-89 -37q-28 6 -53 20t-43.5 36.5t-29.5 52.5t-11 67q0 57 20 109.5t54 93.5t79.5 65.5t95.5 24.5q67 0 102 -45h5l20 37l70 -7l-51 -263l-28 -177q-8 -49 -31 -88.5t-56.5 -67.5 t-74.5 -43t-84 -15q-44 0 -75 9.5t-54 26.5zM103 173q0 -45 19.5 -70t48.5 -31q35 5 75.5 34.5t69.5 72.5l33 169q-13 14 -34.5 25t-50.5 11q-34 0 -63.5 -17.5t-51 -47t-34 -67.5t-12.5 -79z" />
<glyph unicode="h" horiz-adv-x="480" d="M0 -5l61 326l41 264l7 95l108 12l-56 -290h5q32 26 70 43t92 17q23 0 42.5 -9.5t31.5 -28.5q14 -20 18 -50q2 -12 1 -25q0 -21 -4 -45l-37 -209l-6 -90l-100 -10l51 298q3 18 3 32q0 26 -10 38q-16 19 -54 19q-30 0 -59.5 -16.5t-57.5 -45.5l-40 -225l-7 -90z" />
<glyph unicode="i" horiz-adv-x="230" d="M15 -5l62 357l5 89l102 12l-61 -348l-7 -100zM101 622q0 25 17.5 42.5t42.5 17.5t42.5 -17.5t17.5 -42.5t-17.5 -42.5t-42.5 -17.5t-42.5 17.5t-17.5 42.5z" />
<glyph unicode="j" horiz-adv-x="230" d="M-56 -177q25 20 41 56.5t28 99.5l63 368l6 94l102 12l-82 -480q-6 -36 -13.5 -62.5t-16.5 -46t-20 -33.5t-23 -26l-85 -10v28zM101 622q0 25 17.5 42.5t42.5 17.5t42.5 -17.5t17.5 -42.5t-17.5 -42.5t-42.5 -17.5t-42.5 17.5t-17.5 42.5z" />
<glyph unicode="k" horiz-adv-x="440" d="M-3 -5l102 589l7 96l103 12l-77 -435h10l187 186l111 10l-1 -10l-209 -203l-2 -10l154 -216v-9l-89 -10l-136 205l-42 -32l-11 -71l-7 -92z" />
<glyph unicode="l" horiz-adv-x="230" d="M11 -5l68 357l35 229l6 99l108 12l-65 -341l-40 -228l-7 -118z" />
<glyph unicode="m" horiz-adv-x="750" d="M0 -5l56 327l12 121l84 10v-56h5q32 32 67 48.5t73 16.5q45 0 73 -18.5t42 -51.5h5q48 36 87 53t85 17q23 0 44 -8t35 -26q16 -18 22 -46q3 -13 2 -29q0 -17 -3 -37l-37 -211l-8 -100l-100 -10l52 304q2 13 2 24q0 9 -2 17q-4 16 -12 25.5t-20 13t-25 3.5 q-32 0 -64.5 -19t-55.5 -41l-38 -210l-9 -107l-100 -10l52 304q2 12 2 22q0 11 -2 19q-4 16 -14 25.5t-22 13t-24 3.5q-31 0 -61 -18t-56 -47l-39 -209l-8 -103z" />
<glyph unicode="n" horiz-adv-x="480" d="M0 -5l58 332l10 116l84 10v-56h5q39 31 78.5 48t84.5 17q58 0 86 -36q19 -24 18 -67q0 -21 -4 -47l-40 -225l-5 -82l-100 -10l50 294q3 19 3 33v14q-2 18 -10 28t-20 14t-27 4q-34 0 -67.5 -19t-56.5 -48l-41 -221l-6 -89z" />
<glyph unicode="o" horiz-adv-x="490" d="M10 170q0 58 20 110.5t54 93t78.5 64.5t93.5 24q41 0 75 -13.5t58 -38.5t37.5 -60.5t13.5 -78.5q0 -51 -17.5 -102t-49.5 -91.5t-78.5 -66t-103.5 -25.5q-41 0 -74 13.5t-57 37.5t-37 58t-13 75zM103 178q0 -57 25 -87.5t69 -30.5q31 0 58.5 16t48 44t32.5 65.5t12 79.5 q0 57 -24 90t-69 33q-32 0 -59.5 -18t-48 -48t-32.5 -67.5t-12 -76.5z" />
<glyph unicode="p" horiz-adv-x="490" d="M-38 -204l61 315l35 228l9 110l80 6l-3 -82h5q34 38 69.5 61t82.5 29q23 -4 47.5 -16t45 -34t33.5 -55t13 -79q0 -75 -25 -130.5t-61.5 -91.5t-77.5 -53.5t-73 -17.5q-27 0 -55 9t-46 31h-5l-23 -132l-5 -86zM109 107q11 -25 31.5 -35t51.5 -10q24 0 51.5 11t50.5 36 t38.5 66t15.5 100q0 28 -6.5 47.5t-16 32t-21 19t-21.5 9.5q-17 0 -37 -7.5t-39.5 -20t-37 -29t-29.5 -34.5z" />
<glyph unicode="q" horiz-adv-x="490" d="M10 160q0 66 21.5 121t56.5 95.5t80 63t92 22.5q31 0 55.5 -12t47.5 -36h5l21 42l68 -9l-51 -262l-43 -275l-8 -102l-101 -12l48 277h-5q-29 -32 -66 -56t-80 -32q-26 4 -51 17t-45 35t-32.5 52.5t-12.5 70.5zM103 171q0 -42 18.5 -70t45.5 -36q39 5 80 34t66 71l36 177 q-14 17 -37 27t-47 10q-30 0 -59.5 -14.5t-52 -42t-36.5 -67t-14 -89.5z" />
<glyph unicode="r" horiz-adv-x="320" d="M0 -5l60 350l8 98l84 10l-10 -113h7q31 55 77.5 85.5t94.5 30.5h14l-27 -97h-22q-23 -3 -47 -15.5t-45.5 -32.5t-40 -46.5t-29.5 -56.5l-22 -119l-5 -84z" />
<glyph unicode="s" horiz-adv-x="370" d="M-16 50l49 61q22 -23 48 -37t57 -14q33 0 54.5 15t21.5 43q0 21 -12.5 36t-31.5 28t-41.5 26t-41.5 29.5t-31.5 38.5t-12.5 53q0 25 11 49t30.5 43t47.5 30t63 11q48 0 86 -21t61 -52l-49 -55q-42 54 -97 54q-29 0 -49 -14t-20 -39q0 -19 12.5 -33.5t31.5 -27t41.5 -26 t41.5 -30.5t31.5 -40t12.5 -55q0 -36 -14 -61.5t-37 -42.5t-52.5 -25t-59.5 -8q-47 0 -87.5 17.5t-63.5 46.5z" />
<glyph unicode="t" horiz-adv-x="310" d="M18 375l7 53l109 18l10 132l103 26l-30 -158l103 2l-12 -64l-103 -9l-49 -287l-5 -83l-98 -10l68 382z" />
<glyph unicode="u" horiz-adv-x="480" d="M24 76q-2 13 -2 29q0 23 5 51l35 199l6 88l100 10l-52 -283q-4 -23 -5 -41q1 -25 11 -39q16 -22 54 -23q17 0 35 6.5t35 18t31 26.5t23 33l33 185l9 107l100 10l-59 -343l-9 -105l-83 -10v62h-3q-30 -29 -68 -50t-86 -21q-27 0 -50 9t-38.5 29t-21.5 52z" />
<glyph unicode="v" horiz-adv-x="440" d="M23 443l89 10l68 -301h4l168 291l98 9l2 -7l-283 -459h-30z" />
<glyph unicode="w" horiz-adv-x="640" d="M30 443l90 10l53 -286h4l151 287h23l45 -287h4l145 276l92 9l4 -5l-254 -461h-33l-44 271h-6l-146 -271h-27z" />
<glyph unicode="x" horiz-adv-x="440" d="M-45 0l197 234l-118 204l92 15l82 -161l127 151l101 9l2 -5l-190 -220l126 -217l-92 -15l-89 172l-136 -162l-100 -9z" />
<glyph unicode="y" horiz-adv-x="440" d="M-31 -178q32 21 71.5 72t78.5 134l-93 415l86 10l68 -319h4l171 309l91 9l4 -8l-243 -422l-59 -111l-55 -104l-124 -12v27z" />
<glyph unicode="z" horiz-adv-x="420" d="M-36 1l302 374l-2 5l-220 -15l22 73l351 20l3 -6l-305 -378l2 -6l248 15l-22 -73l-373 -20z" />
<glyph unicode="{" horiz-adv-x="370" d="M28 242l14 80q27 0 51.5 7.5t43 19.5t31 28.5t15.5 34.5q4 25 3 47t-3 43.5t-3 43t3 46.5q6 35 21 59.5t43.5 39.5t73.5 22t110 7l-12 -70q-33 0 -59 -3t-44 -11.5t-29 -24t-15 -40.5q-5 -26 -3.5 -49t4.5 -45t5 -42t-1 -38q-3 -20 -16 -37.5t-32.5 -31t-44 -22 t-51.5 -10.5l-5 -25q25 -2 46.5 -10t36.5 -21t22.5 -30.5t3.5 -39.5q-3 -18 -12 -38t-19.5 -41t-20 -43t-13.5 -45q-4 -22 -3 -39.5t12.5 -29.5t37 -18t70.5 -6l-13 -70q-66 0 -108.5 9.5t-65.5 27.5t-28.5 44.5t0.5 61.5q4 21 13 42t18.5 41.5t18.5 41t12 40.5 q8 47 -23 70.5t-85 23.5z" />
<glyph unicode="|" d="M231 -230v980h68v-980h-68z" />
<glyph unicode="}" horiz-adv-x="370" d="M-81 -160l12 70q33 0 59 3t44 11.5t29 24t15 40.5t3 48.5t-4 45.5t-5 42t1 38q3 20 16 37.5t32.5 31t44 22t51.5 10.5l5 25q-25 2 -46.5 10t-36.5 21t-22.5 30.5t-3.5 39.5q3 18 12 38t19.5 41t20 43t13.5 45q4 22 3 39.5t-12.5 29.5t-37 18t-70.5 6l13 70 q66 0 108.5 -9.5t65.5 -27.5t28.5 -44.5t-0.5 -61.5q-4 -21 -13 -42t-18.5 -41.5t-18.5 -41t-12 -40.5q-8 -47 23 -70.5t85 -23.5l-14 -80q-27 0 -51.5 -7.5t-43 -19.5t-31 -28.5t-15.5 -34.5q-4 -25 -3 -47t3 -43.5t3 -43t-3 -46.5q-6 -35 -21 -59.5t-43.5 -39.5t-73.5 -22 t-110 -7z" />
<glyph unicode="~" d="M32 203q0 40 11.5 71.5t30.5 53t44.5 32.5t52.5 11q34 0 60 -15.5t48.5 -34t42.5 -34t43 -15.5q32 0 50.5 29t18.5 68h68q0 -36 -10 -67t-28 -53.5t-43.5 -35t-56.5 -12.5q-35 0 -60.5 15.5t-47 33.5t-41.5 33.5t-44 15.5q-33 0 -54 -27.5t-21 -68.5h-64z" />
<glyph unicode="&#xa1;" horiz-adv-x="310" d="M-12 -210l75 232l74 247l53 5l-65 -375l-17 -107l-116 -9zM126 414q0 25 17.5 42.5t42.5 17.5t42.5 -17.5t17.5 -42.5t-17.5 -42.5t-42.5 -17.5t-42.5 17.5t-17.5 42.5z" />
<glyph unicode="&#xa2;" horiz-adv-x="430" d="M42 274q0 61 22 114.5t57.5 93.5t80 64t88.5 26l31 109l46 -10l-29 -102q29 -5 53 -16.5t45 -28.5l-44 -64q-16 13 -35.5 22t-39.5 12l-90 -321h8q32 0 59.5 12t49.5 28l23 -64q-26 -22 -65 -37.5t-77 -15.5h-20l-28 -101l-47 10l28 100q-55 17 -85.5 61t-30.5 108z M135 279q0 -36 12 -59.5t34 -34.5l86 306q-26 -7 -49.5 -25.5t-42 -46t-29.5 -63t-11 -77.5z" />
<glyph unicode="&#xa3;" horiz-adv-x="500" d="M-1 55q39 30 65 63t41.5 67t22.5 69t8 69h-90l20 55h70q-1 20 -1.5 39.5t-0.5 39.5q0 64 18.5 109.5t49 74t70.5 41.5t83 13q37 0 66 -7.5t49.5 -17.5t33 -20t16.5 -15l-44 -70q-16 17 -48.5 32t-74.5 15q-28 0 -51.5 -9t-41 -28.5t-27 -51t-9.5 -77.5q0 -34 3 -68h158 l-20 -55h-136q0 -30 -5 -60t-17.5 -58.5t-35 -55t-56.5 -50.5l6 -10q11 6 27 12t34 6q29 0 47.5 -5t34.5 -10.5t34 -10.5t45 -5q20 0 39 5.5t43 21.5l5 -2l3 -76q-24 -18 -53.5 -26.5t-51.5 -8.5q-27 0 -46 6.5t-37 14.5t-38.5 14.5t-49.5 6.5q-35 0 -71 -14t-63 -28z" />
<glyph unicode="&#xa4;" horiz-adv-x="620" d="M79 464.5q4 12.5 13.5 22.5t22 14.5t20.5 -3.5l46 -47q27 20 60 31t69 11t68 -10t58 -29l43 45q8 9 21.5 3.5t24.5 -17t16 -25t-3 -21.5l-45 -43q18 -26 28 -57.5t10 -66.5q0 -37 -11 -69.5t-31 -60.5l48 -46q9 -9 5 -21.5t-13.5 -23t-22 -15t-20.5 4.5l-50 50 q-55 -40 -126 -40q-35 0 -66.5 9.5t-57.5 26.5l-42 -44q-9 -9 -22.5 -5t-25 14.5t-16 23.5t4.5 22l44 43q-40 55 -40 131q0 35 10.5 67.5t29.5 59.5l-45 44q-9 9 -5 21.5zM159 271q0 -35 11 -64t30.5 -51t47.5 -34t63 -12q31 0 58.5 12t47 34t31 51t11.5 64q0 36 -11.5 66 t-31.5 51t-47 33t-59 12q-36 0 -64 -12.5t-47.5 -34.5t-29.5 -51.5t-10 -63.5z" />
<glyph unicode="&#xa5;" horiz-adv-x="580" d="M82 675l97 5l123 -286h8l211 281l112 10l2 -4l-298 -378l-7 -36h105l-10 -55h-105l-8 -49h104l-9 -55h-105l-6 -32l-2 -71l-104 -10l19 113h-104l9 55h105l8 49h-104l10 55h104l6 36z" />
<glyph unicode="&#xa6;" d="M231 120h68v-350h-68v350zM231 400v350h68v-350h-68z" />
<glyph unicode="&#xa7;" horiz-adv-x="570" d="M-5 -103l45 77q29 -21 69 -36.5t94 -15.5q34 0 57.5 8.5t38.5 22t21.5 30t6.5 33.5q0 28 -23 52.5t-80 47.5q-81 34 -120 74.5t-39 97.5q0 84 99 156q-41 37 -41 84q0 30 13.5 59.5t40.5 53.5t66.5 39t92.5 15q63 0 109 -18.5t72 -38.5l-42 -72q-28 20 -64 33.5t-80 13.5 q-54 0 -83 -20t-29 -52q0 -10 6 -20.5t20 -22t37.5 -25t58.5 -28.5q84 -37 116 -81t32 -95q0 -48 -27.5 -85.5t-72.5 -66.5q20 -22 28.5 -46t8.5 -48q0 -47 -19.5 -82t-51.5 -57.5t-72.5 -33.5t-82.5 -11q-76 0 -129.5 18.5t-75.5 39.5zM159 303q0 -29 29 -58t93 -56 q32 -14 55 -28q32 19 44.5 47t12.5 53q0 33 -24 58t-85 54q-39 17 -65 33q-27 -22 -43.5 -48t-16.5 -55z" />
<glyph unicode="&#xa8;" horiz-adv-x="500" d="M128 507q0 20 14.5 34.5t34.5 14.5t34.5 -14.5t14.5 -34.5t-14.5 -34.5t-34.5 -14.5t-34.5 14.5t-14.5 34.5zM284 507q0 20 14.5 34.5t34.5 14.5t34.5 -14.5t14.5 -34.5t-14.5 -34.5t-34.5 -14.5t-34.5 14.5t-14.5 34.5z" />
<glyph unicode="&#xa9;" horiz-adv-x="790" d="M88 323q0 63 24 119t65.5 97.5t97.5 66t121 24.5q68 0 124 -24.5t96.5 -66t63 -97.5t22.5 -119t-22 -119t-62.5 -98t-97 -66.5t-124.5 -24.5q-66 0 -122 22.5t-97.5 63.5t-65 97.5t-23.5 124.5zM137 321q0 -57 19.5 -105t54.5 -82.5t82.5 -54t103.5 -19.5q55 0 102 19.5 t81 54t53.5 82.5t19.5 105q0 59 -20 108t-54.5 84t-81.5 54.5t-101 19.5q-53 0 -100 -20t-82.5 -55.5t-56 -84t-20.5 -106.5zM228 320q0 43 14 77t37.5 57.5t54.5 36t66 12.5q38 0 70 -11.5t49 -22.5l-11 -51q-23 14 -50.5 23t-58.5 9q-21 0 -41.5 -7.5t-36 -23.5t-25 -40 t-9.5 -57q0 -53 31 -87t82 -34q35 0 62.5 10.5t50.5 24.5l13 -50q-22 -16 -56 -27t-71 -11q-38 0 -69.5 13.5t-54 37t-35 54.5t-12.5 67z" />
<glyph unicode="&#xaa;" horiz-adv-x="360" d="M39 389q0 13 2.5 28t8.5 32q19 21 45.5 36.5t56.5 25t61 12t58 -1.5q7 53 -8.5 77t-55.5 24q-23 0 -51 -13t-48 -32h-2l-20 51q24 25 61.5 39.5t75.5 14.5q30 0 55 -11t41 -31.5t23 -49.5t1 -64l-22 -142q-2 -15 1 -34t12 -32l-3 -5l-63 -18q-6 9 -8.5 23t-4.5 30h-3 q-22 -28 -50.5 -42.5t-68.5 -14.5q-39 0 -66.5 25t-27.5 73zM109 396q0 -24 14.5 -34t32.5 -10q16 0 33 6t32.5 20t27 36.5t16.5 55.5q-40 7 -82 -2.5t-71 -42.5q-3 -15 -3 -29z" />
<glyph unicode="&#xab;" horiz-adv-x="620" d="M56 217l2 13l241 229l46 -38l-181 -202l-2 -10l101 -176l-55 -37zM266 217l2 13l241 229l46 -38l-181 -202l-2 -10l101 -176l-55 -37z" />
<glyph unicode="&#xac;" d="M33 245v68h457v-261h-68v193h-389z" />
<glyph unicode="&#xad;" horiz-adv-x="340" d="M19 193l15 84l260 10l-15 -84z" />
<glyph unicode="&#xae;" horiz-adv-x="560" d="M66 481q0 46 17 85t46 67.5t68 45t83 16.5q46 0 85.5 -16.5t68 -45t44.5 -68t16 -84.5q0 -46 -17 -85t-46 -67.5t-68 -45t-83 -16.5t-83 15.5t-68 43.5t-46 67.5t-17 87.5zM108 480q0 -39 13 -71t36 -55t54.5 -35.5t69.5 -12.5q35 0 66 12.5t54.5 35.5t37 55t13.5 71 t-13.5 71.5t-37 55.5t-55 36t-66.5 13q-40 0 -71.5 -14t-54 -38t-34.5 -56t-12 -68zM202 364v249h73q42 0 64.5 -18.5t22.5 -53.5q0 -26 -15.5 -45.5t-45.5 -24.5l82 -103v-4h-44l-80 104h-18v-104h-39zM241 501h35q21 0 34 9t13 31q0 20 -14 29.5t-36 9.5h-32v-79z" />
<glyph unicode="&#xaf;" horiz-adv-x="500" d="M147 478v64h244v-64h-244z" />
<glyph unicode="&#xb0;" horiz-adv-x="370" d="M66 551q0 30 11.5 56t31 45.5t45.5 31t55 11.5q30 0 56 -11.5t45.5 -31t31 -45.5t11.5 -56q0 -29 -11.5 -55t-31 -45.5t-45.5 -31t-56 -11.5q-29 0 -55 11.5t-45.5 31t-31 45.5t-11.5 55zM134 551q0 -33 20.5 -57.5t53.5 -24.5q34 0 55 24.5t21 57.5q0 34 -21 59t-55 25 q-33 0 -53.5 -25t-20.5 -59z" />
<glyph unicode="&#xb1;" d="M43 40v68h444v-68h-444zM43 357v68h188v198h68v-198h188v-68h-188v-198h-68v198h-188z" />
<glyph unicode="&#xb2;" horiz-adv-x="290" d="M28 430q68 54 112.5 95.5t71 73.5t37.5 56t11 43q0 20 -13 29.5t-35 9.5q-15 0 -30 -4t-27 -9.5t-21.5 -11t-14.5 -8.5l-17 53q4 3 14.5 10t27 13.5t37 11.5t44.5 5q46 0 76.5 -19.5t30.5 -66.5q0 -45 -43 -106.5t-130 -123.5l2 -3l138 8l-12 -67l-257 -8z" />
<glyph unicode="&#xb3;" horiz-adv-x="290" d="M44 427l10 64q23 -11 46.5 -17.5t49.5 -6.5q31 0 55 17t24 51q0 19 -14.5 32.5t-43.5 12.5l-62 -2l10 58l60 -2q13 0 26.5 5t24 13.5t17 20t6.5 23.5q0 20 -14.5 31.5t-39.5 11.5q-18 0 -36.5 -5.5t-40.5 -15.5l-14 52q23 11 50 19t58 8q46 0 76.5 -21t30.5 -63 q0 -39 -25.5 -67.5t-61.5 -36.5l-1 -4q32 -7 47 -28.5t15 -47.5q0 -32 -15 -55t-38 -38t-51 -22t-53 -7q-56 0 -96 20z" />
<glyph unicode="&#xb4;" horiz-adv-x="500" d="M187 448v8l116 164h87v-10l-142 -162h-61z" />
<glyph unicode="&#xb5;" d="M70 -157q0 15 1.5 48.5t3.5 77t3.5 92t1.5 95.5v292h90v-278q0 -32 5 -52t14.5 -31.5t23 -15.5t30.5 -4q18 0 36 6.5t34 18t28.5 26.5t18.5 33v297h90v-347q0 -17 3.5 -30t17.5 -13q11 0 20 11.5t14 22.5l28 -11q-8 -26 -20 -43.5t-25 -28t-26 -14.5t-23 -4 q-32 0 -49 14.5t-25 46.5h-10q-23 -27 -56.5 -46.5t-78.5 -19.5q-46 0 -82 24q6 -50 12 -93t6 -66q0 -38 -13.5 -49t-30.5 -11q-22 0 -32 15t-10 37z" />
<glyph unicode="&#xb6;" horiz-adv-x="640" d="M77 432q0 57 23.5 102.5t63.5 78t92.5 50t109.5 17.5h294l-12 -72h-59l-123 -694l-4 -66l-88 -10l135 770h-60l-122 -686l-5 -74l-88 -10l70 405q-51 0 -92.5 13t-71.5 37.5t-46.5 59.5t-16.5 79zM175 439q0 -54 37 -86.5t106 -32.5l51 288q-40 0 -75 -12.5t-61.5 -35 t-42 -53.5t-15.5 -68z" />
<glyph unicode="&#xb7;" horiz-adv-x="270" d="M71 260q0 25 17.5 42.5t42.5 17.5t42.5 -17.5t17.5 -42.5t-17.5 -42.5t-42.5 -17.5t-42.5 17.5t-17.5 42.5z" />
<glyph unicode="&#xb8;" horiz-adv-x="500" d="M157 -185q54 5 84.5 20.5t30.5 37.5q0 17 -19 24.5t-51 7.5q-6 0 -16 -0.5t-15 -1.5l-4 7l72 110h58l-48 -75q36 0 59.5 -16.5t23.5 -48.5q0 -40 -46 -68t-125 -36z" />
<glyph unicode="&#xb9;" horiz-adv-x="290" d="M131 724l7 57l122 15l8 -7l-54 -307l-7 -65l-70 -3l56 316z" />
<glyph unicode="&#xba;" horiz-adv-x="400" d="M54 442q0 48 16 91.5t43 76.5t63 52.5t75 19.5q66 0 106 -42.5t40 -114.5q0 -42 -14 -84t-40 -75t-63 -54t-83 -21q-64 0 -103.5 41.5t-39.5 109.5zM135 449q0 -44 18 -69t49 -25q23 0 44 12.5t36.5 35t24.5 52.5t9 65q0 47 -17 72.5t-49 25.5q-24 0 -45 -14.5 t-36.5 -38.5t-24.5 -54.5t-9 -61.5z" />
<glyph unicode="&#xbb;" horiz-adv-x="620" d="M35 34l181 202l2 10l-101 176l55 37l152 -221l-2 -13l-241 -229zM245 34l181 202l2 10l-101 176l55 37l152 -221l-2 -13l-241 -229z" />
<glyph unicode="&#xbc;" horiz-adv-x="740" d="M46 -24l311 370l282 353l41 -26l-298 -349l-295 -376zM116 624l7 57l122 15l8 -7l-54 -307l-7 -65l-70 -3l56 316zM348 96l194 236l74 4l-37 -210l43 2l-10 -61l-43 -1l-11 -58l-3 -46l-68 -4l19 108l-153 -3zM430 123l2 -6l84 6l23 130l-7 1z" />
<glyph unicode="&#xbd;" horiz-adv-x="740" d="M46 -24l311 370l282 353l41 -26l-298 -349l-295 -376zM116 624l7 57l122 15l8 -7l-54 -307l-7 -65l-70 -3l56 316zM354 -25q68 54 112.5 95.5t71 73.5t37.5 56t11 43q0 20 -13 29.5t-35 9.5q-15 0 -30 -4t-27 -9.5t-21.5 -11t-14.5 -8.5l-17 53q4 3 14.5 10t27 13.5 t37 11.5t44.5 5q46 0 76.5 -19.5t30.5 -66.5q0 -45 -43 -106.5t-130 -123.5l2 -3l138 8l-12 -67l-257 -8z" />
<glyph unicode="&#xbe;" horiz-adv-x="740" d="M46 -24l311 370l282 353l41 -26l-298 -349l-295 -376zM49 327l10 64q23 -11 46.5 -17.5t49.5 -6.5q31 0 55 17t24 51q0 19 -14.5 32.5t-43.5 12.5l-62 -2l10 58l60 -2q13 0 26.5 5t24 13.5t17 20t6.5 23.5q0 20 -14.5 31.5t-39.5 11.5q-18 0 -36.5 -5.5t-40.5 -15.5 l-14 52q23 11 50 19t58 8q46 0 76.5 -21t30.5 -63q0 -39 -25.5 -67.5t-61.5 -36.5l-1 -4q32 -7 47 -28.5t15 -47.5q0 -32 -15 -55t-38 -38t-51 -22t-53 -7q-56 0 -96 20zM348 96l194 236l74 4l-37 -210l43 2l-10 -61l-43 -1l-11 -58l-3 -46l-68 -4l19 108l-153 -3zM430 123 l2 -6l84 6l23 130l-7 1z" />
<glyph unicode="&#xbf;" horiz-adv-x="450" d="M1 6q0 44 21.5 75t53.5 53.5t70 39t70 32t53.5 32.5t21.5 41q0 17 -9 23.5t-25 6.5q-29 0 -54 -18l-21 54q22 14 46 19.5t49 5.5q42 0 71 -22t29 -64q0 -39 -21.5 -65.5t-53.5 -45.5t-69.5 -34.5t-69.5 -32.5t-53.5 -38.5t-21.5 -53.5q0 -31 21 -44.5t50 -13.5 q63 0 133 44l25 -62q-34 -22 -76.5 -38.5t-91.5 -16.5q-69 0 -108.5 34.5t-39.5 88.5zM276 525q0 25 17.5 42.5t42.5 17.5t42.5 -17.5t17.5 -42.5t-17.5 -42.5t-42.5 -17.5t-42.5 17.5t-17.5 42.5z" />
<glyph unicode="&#xc0;" horiz-adv-x="680" d="M-35 3l237 344l227 353h20l78 -365l77 -330l-88 -10l-40 186l-296 -11l-108 -165l-104 -9zM234 252l225 9l-52 250h-7zM306 864v10h89l106 -124v-8h-61z" />
<glyph unicode="&#xc1;" horiz-adv-x="680" d="M-35 3l237 344l227 353h20l78 -365l77 -330l-88 -10l-40 186l-296 -11l-108 -165l-104 -9zM234 252l225 9l-52 250h-7zM379 742v8l106 124h89v-10l-134 -122h-61z" />
<glyph unicode="&#xc2;" horiz-adv-x="680" d="M-35 3l237 344l227 353h20l78 -365l77 -330l-88 -10l-40 186l-296 -11l-108 -165l-104 -9zM234 252l225 9l-52 250h-7zM313 742v8l148 124h28l94 -124v-8h-56l-62 64l-96 -64h-56z" />
<glyph unicode="&#xc3;" horiz-adv-x="680" d="M-35 3l237 344l227 353h20l78 -365l77 -330l-88 -10l-40 186l-296 -11l-108 -165l-104 -9zM234 252l225 9l-52 250h-7zM309 749q0 58 25 89t59 31q19 0 33.5 -10t26.5 -22t23 -22t23 -10q17 0 26 19t9 43h52q0 -23 -6 -45t-17 -38.5t-26 -26.5t-34 -10q-20 0 -34 10 t-25.5 21.5t-22 21.5t-22.5 10q-19 0 -29.5 -17.5t-10.5 -43.5h-50z" />
<glyph unicode="&#xc4;" horiz-adv-x="680" d="M-35 3l237 344l227 353h20l78 -365l77 -330l-88 -10l-40 186l-296 -11l-108 -165l-104 -9zM234 252l225 9l-52 250h-7zM319 791q0 20 14.5 34.5t34.5 14.5t34.5 -14.5t14.5 -34.5t-14.5 -34.5t-34.5 -14.5t-34.5 14.5t-14.5 34.5zM475 791q0 20 14.5 34.5t34.5 14.5 t34.5 -14.5t14.5 -34.5t-14.5 -34.5t-34.5 -14.5t-34.5 14.5t-14.5 34.5z" />
<glyph unicode="&#xc5;" horiz-adv-x="680" d="M-35 3l237 344l227 353h20l78 -365l77 -330l-88 -10l-40 186l-296 -11l-108 -165l-104 -9zM234 252l225 9l-52 250h-7zM359 811q0 19 7.5 36.5t20 30t29.5 20t37 7.5q39 0 66.5 -27.5t27.5 -66.5q0 -20 -7.5 -37t-20 -29.5t-30 -20t-36.5 -7.5q-20 0 -37 7.5t-29.5 20 t-20 29.5t-7.5 37zM405 810q0 -22 12.5 -36.5t34.5 -14.5t35 14.5t13 36.5t-13 37.5t-35 15.5t-34.5 -15.5t-12.5 -37.5z" />
<glyph unicode="&#xc6;" horiz-adv-x="900" d="M-35 3l552 672h9l386 10l-19 -82l-284 -7l-40 -206l263 10l-19 -82l-258 -10l-37 -231l304 10l-19 -82l-395 -10l34 185l-239 -8l-136 -167l-99 -9zM271 255l186 7l18 94l29 179h-5z" />
<glyph unicode="&#xc7;" horiz-adv-x="660" d="M44 295q0 78 30.5 150t83.5 127.5t124.5 89t154.5 33.5q37 0 70.5 -8t62 -20t51 -27t37.5 -28l-52 -73q-10 9 -26.5 21t-39 23t-51 19t-61.5 8q-51 0 -101.5 -21.5t-91.5 -62t-66.5 -98.5t-25.5 -132q0 -50 14.5 -91.5t41 -71.5t64 -46.5t84.5 -16.5q61 0 114.5 20 t92.5 51l33 -75q-42 -33 -102.5 -56t-132.5 -25l-25 -40q36 0 59.5 -16.5t23.5 -48.5q0 -40 -46 -68t-125 -36l-4 39q54 5 84.5 20.5t30.5 37.5q0 17 -19 24.5t-51 7.5q-6 0 -16 -0.5t-15 -1.5l-4 7l51 78q-57 7 -103.5 34t-79.5 67.5t-51 93t-18 112.5z" />
<glyph unicode="&#xc8;" horiz-adv-x="510" d="M18 -5l67 361l35 216l7 103l395 10l-19 -82l-284 -7l-40 -206l263 10l-19 -82l-258 -10l-37 -231l304 10l-19 -82zM205 862v10h89l106 -124v-8h-61z" />
<glyph unicode="&#xc9;" horiz-adv-x="510" d="M18 -5l67 361l35 216l7 103l395 10l-19 -82l-284 -7l-40 -206l263 10l-19 -82l-258 -10l-37 -231l304 10l-19 -82zM278 740v8l106 124h89v-10l-134 -122h-61z" />
<glyph unicode="&#xca;" horiz-adv-x="510" d="M18 -5l67 361l35 216l7 103l395 10l-19 -82l-284 -7l-40 -206l263 10l-19 -82l-258 -10l-37 -231l304 10l-19 -82zM212 740v8l148 124h28l94 -124v-8h-56l-62 64l-96 -64h-56z" />
<glyph unicode="&#xcb;" horiz-adv-x="510" d="M18 -5l67 361l35 216l7 103l395 10l-19 -82l-284 -7l-40 -206l263 10l-19 -82l-258 -10l-37 -231l304 10l-19 -82zM218 789q0 20 14.5 34.5t34.5 14.5t34.5 -14.5t14.5 -34.5t-14.5 -34.5t-34.5 -14.5t-34.5 14.5t-14.5 34.5zM374 789q0 20 14.5 34.5t34.5 14.5 t34.5 -14.5t14.5 -34.5t-14.5 -34.5t-34.5 -14.5t-34.5 14.5t-14.5 34.5z" />
<glyph unicode="&#xcc;" horiz-adv-x="270" d="M29 -5l69 359l33 214l7 107l110 10l-64 -333l-38 -238l-7 -109zM63 862v10h89l106 -124v-8h-61z" />
<glyph unicode="&#xcd;" horiz-adv-x="270" d="M29 -5l69 359l33 214l7 107l110 10l-64 -333l-38 -238l-7 -109zM136 740v8l106 124h89v-10l-134 -122h-61z" />
<glyph unicode="&#xce;" horiz-adv-x="270" d="M29 -5l69 359l33 214l7 107l110 10l-64 -333l-38 -238l-7 -109zM70 740v8l148 124h28l94 -124v-8h-56l-62 64l-96 -64h-56z" />
<glyph unicode="&#xcf;" horiz-adv-x="270" d="M29 -5l69 359l33 214l7 107l110 10l-64 -333l-38 -238l-7 -109zM76 789q0 20 14.5 34.5t34.5 14.5t34.5 -14.5t14.5 -34.5t-14.5 -34.5t-34.5 -14.5t-34.5 14.5t-14.5 34.5zM232 789q0 20 14.5 34.5t34.5 14.5t34.5 -14.5t14.5 -34.5t-14.5 -34.5t-34.5 -14.5t-34.5 14.5 t-14.5 34.5z" />
<glyph unicode="&#xd0;" horiz-adv-x="670" d="M-18 298l9 61l95 3l33 206l7 107l184 7q66 2 124 -17.5t101 -57.5t68 -92t25 -120q0 -99 -34 -171.5t-88.5 -121t-122.5 -73t-136 -27.5l-227 -7l55 306zM133 82l97 2q74 2 130.5 27t94.5 66t57 95.5t19 114.5q0 55 -17.5 96.5t-48.5 68t-72 39t-88 10.5l-81 -3l-46 -233 l141 4l-9 -61l-142 -4z" />
<glyph unicode="&#xd1;" horiz-adv-x="750" d="M20 -5l65 341l56 354h30l373 -506h8l46 257l20 133l6 101l109 10l-55 -286l-66 -409h-30l-374 505h-8l-32 -187l-31 -197l-7 -106zM283 727q0 58 25 89t59 31q19 0 33.5 -10t26.5 -22t23 -22t23 -10q17 0 26 19t9 43h52q0 -23 -6 -45t-17 -38.5t-26 -26.5t-34 -10 q-20 0 -34 10t-25.5 21.5t-22 21.5t-22.5 10q-19 0 -29.5 -17.5t-10.5 -43.5h-50z" />
<glyph unicode="&#xd2;" horiz-adv-x="770" d="M44 288q0 86 32 160.5t85.5 129t123 86t143.5 31.5q63 0 117.5 -22.5t94 -63t62.5 -96.5t23 -122q0 -86 -29 -160.5t-80.5 -129t-122 -85.5t-152.5 -31q-62 0 -116.5 22.5t-94.5 62.5t-63 95.5t-23 122.5zM142 292q0 -41 12.5 -80.5t38 -71t63.5 -51t89 -19.5 q65 0 117 27t89 71t56.5 101.5t19.5 117.5q0 51 -16.5 92t-44.5 70t-65 45t-78 16q-51 0 -101 -21.5t-90 -62.5t-65 -100t-25 -134zM307 862v10h89l106 -124v-8h-61z" />
<glyph unicode="&#xd3;" horiz-adv-x="770" d="M44 288q0 86 32 160.5t85.5 129t123 86t143.5 31.5q63 0 117.5 -22.5t94 -63t62.5 -96.5t23 -122q0 -86 -29 -160.5t-80.5 -129t-122 -85.5t-152.5 -31q-62 0 -116.5 22.5t-94.5 62.5t-63 95.5t-23 122.5zM142 292q0 -41 12.5 -80.5t38 -71t63.5 -51t89 -19.5 q65 0 117 27t89 71t56.5 101.5t19.5 117.5q0 51 -16.5 92t-44.5 70t-65 45t-78 16q-51 0 -101 -21.5t-90 -62.5t-65 -100t-25 -134zM380 740v8l106 124h89v-10l-134 -122h-61z" />
<glyph unicode="&#xd4;" horiz-adv-x="770" d="M44 288q0 86 32 160.5t85.5 129t123 86t143.5 31.5q63 0 117.5 -22.5t94 -63t62.5 -96.5t23 -122q0 -86 -29 -160.5t-80.5 -129t-122 -85.5t-152.5 -31q-62 0 -116.5 22.5t-94.5 62.5t-63 95.5t-23 122.5zM142 292q0 -41 12.5 -80.5t38 -71t63.5 -51t89 -19.5 q65 0 117 27t89 71t56.5 101.5t19.5 117.5q0 51 -16.5 92t-44.5 70t-65 45t-78 16q-51 0 -101 -21.5t-90 -62.5t-65 -100t-25 -134zM314 740v8l148 124h28l94 -124v-8h-56l-62 64l-96 -64h-56z" />
<glyph unicode="&#xd5;" horiz-adv-x="770" d="M44 288q0 86 32 160.5t85.5 129t123 86t143.5 31.5q63 0 117.5 -22.5t94 -63t62.5 -96.5t23 -122q0 -86 -29 -160.5t-80.5 -129t-122 -85.5t-152.5 -31q-62 0 -116.5 22.5t-94.5 62.5t-63 95.5t-23 122.5zM142 292q0 -41 12.5 -80.5t38 -71t63.5 -51t89 -19.5 q65 0 117 27t89 71t56.5 101.5t19.5 117.5q0 51 -16.5 92t-44.5 70t-65 45t-78 16q-51 0 -101 -21.5t-90 -62.5t-65 -100t-25 -134zM310 747q0 58 25 89t59 31q19 0 33.5 -10t26.5 -22t23 -22t23 -10q17 0 26 19t9 43h52q0 -23 -6 -45t-17 -38.5t-26 -26.5t-34 -10 q-20 0 -34 10t-25.5 21.5t-22 21.5t-22.5 10q-19 0 -29.5 -17.5t-10.5 -43.5h-50z" />
<glyph unicode="&#xd6;" horiz-adv-x="770" d="M44 288q0 86 32 160.5t85.5 129t123 86t143.5 31.5q63 0 117.5 -22.5t94 -63t62.5 -96.5t23 -122q0 -86 -29 -160.5t-80.5 -129t-122 -85.5t-152.5 -31q-62 0 -116.5 22.5t-94.5 62.5t-63 95.5t-23 122.5zM142 292q0 -41 12.5 -80.5t38 -71t63.5 -51t89 -19.5 q65 0 117 27t89 71t56.5 101.5t19.5 117.5q0 51 -16.5 92t-44.5 70t-65 45t-78 16q-51 0 -101 -21.5t-90 -62.5t-65 -100t-25 -134zM320 789q0 20 14.5 34.5t34.5 14.5t34.5 -14.5t14.5 -34.5t-14.5 -34.5t-34.5 -14.5t-34.5 14.5t-14.5 34.5zM476 789q0 20 14.5 34.5 t34.5 14.5t34.5 -14.5t14.5 -34.5t-14.5 -34.5t-34.5 -14.5t-34.5 14.5t-14.5 34.5z" />
<glyph unicode="&#xd7;" d="M53 132l164 164l-164 164l48 48l164 -164l164 164l48 -48l-164 -164l164 -164l-48 -48l-164 164l-164 -164z" />
<glyph unicode="&#xd8;" horiz-adv-x="770" d="M38 -9l82 89q-36 40 -56 92.5t-20 115.5q0 86 32 160.5t85.5 129t123 86t143.5 31.5q56 0 105 -18t87 -50l82 89l37 -33l-84 -91q33 -40 51.5 -90.5t18.5 -110.5q0 -86 -29 -160.5t-80.5 -129t-122 -85.5t-152.5 -31q-54 0 -100.5 16t-84.5 45l-81 -88zM142 292 q0 -38 10.5 -74.5t31.5 -66.5l373 407q-28 25 -62 38.5t-72 13.5q-51 0 -101 -21.5t-90 -62.5t-65 -100t-25 -134zM218 114q24 -20 55.5 -32t71.5 -12q65 0 117 27t89 71t56.5 101.5t19.5 117.5q0 39 -10 72.5t-28 59.5z" />
<glyph unicode="&#xd9;" horiz-adv-x="690" d="M63.5 145q-7.5 45 1.5 92l61 341l7 97l109 10l-85 -431q-10 -50 -3.5 -85t26 -57.5t50.5 -33t72 -10.5q39 0 73.5 10t62 32t47 57.5t27.5 86.5l48 314l7 107l109 10l-77 -443q-9 -51 -30.5 -98t-58.5 -82t-92 -56t-130 -21q-71 0 -118 22t-73 57.5t-33.5 80.5zM278 852 v10h89l106 -124v-8h-61z" />
<glyph unicode="&#xda;" horiz-adv-x="690" d="M63.5 145q-7.5 45 1.5 92l61 341l7 97l109 10l-85 -431q-10 -50 -3.5 -85t26 -57.5t50.5 -33t72 -10.5q39 0 73.5 10t62 32t47 57.5t27.5 86.5l48 314l7 107l109 10l-77 -443q-9 -51 -30.5 -98t-58.5 -82t-92 -56t-130 -21q-71 0 -118 22t-73 57.5t-33.5 80.5zM351 730v8 l106 124h89v-10l-134 -122h-61z" />
<glyph unicode="&#xdb;" horiz-adv-x="690" d="M63.5 145q-7.5 45 1.5 92l61 341l7 97l109 10l-85 -431q-10 -50 -3.5 -85t26 -57.5t50.5 -33t72 -10.5q39 0 73.5 10t62 32t47 57.5t27.5 86.5l48 314l7 107l109 10l-77 -443q-9 -51 -30.5 -98t-58.5 -82t-92 -56t-130 -21q-71 0 -118 22t-73 57.5t-33.5 80.5zM285 730v8 l148 124h28l94 -124v-8h-56l-62 64l-96 -64h-56z" />
<glyph unicode="&#xdc;" horiz-adv-x="690" d="M63.5 145q-7.5 45 1.5 92l61 341l7 97l109 10l-85 -431q-10 -50 -3.5 -85t26 -57.5t50.5 -33t72 -10.5q39 0 73.5 10t62 32t47 57.5t27.5 86.5l48 314l7 107l109 10l-77 -443q-9 -51 -30.5 -98t-58.5 -82t-92 -56t-130 -21q-71 0 -118 22t-73 57.5t-33.5 80.5zM291 779 q0 20 14.5 34.5t34.5 14.5t34.5 -14.5t14.5 -34.5t-14.5 -34.5t-34.5 -14.5t-34.5 14.5t-14.5 34.5zM447 779q0 20 14.5 34.5t34.5 14.5t34.5 -14.5t14.5 -34.5t-14.5 -34.5t-34.5 -14.5t-34.5 14.5t-14.5 34.5z" />
<glyph unicode="&#xdd;" horiz-adv-x="590" d="M69 675l92 10l135 -291h8l223 281l103 9l4 -10l-297 -371l-37 -209l-6 -89l-104 -10l53 308zM297 730v8l106 124h89v-10l-134 -122h-61z" />
<glyph unicode="&#xde;" horiz-adv-x="520" d="M19 -5l106 604l3 76l104 10l-24 -135l75 3q46 2 83 -10t63 -35t40 -56t14 -73q0 -53 -22.5 -95t-61 -72t-89 -47t-107.5 -19l-66 -3l-11 -62l-3 -76zM151 222l70 3q30 1 59 10t52 27t37 46t14 67q0 47 -29.5 74t-83.5 25l-76 -3z" />
<glyph unicode="&#xdf;" horiz-adv-x="550" d="M15 -104l85 480h-78l7 50l83 22l7 43q8 50 29 88t50.5 63t66 37.5t75.5 12.5q54 0 92.5 -22t59.5 -61t22 -92t-20 -114q-75 2 -114.5 -22t-39.5 -53q0 -27 21.5 -48t47 -42.5t47 -49t21.5 -68.5q0 -34 -14 -59t-36.5 -41.5t-50.5 -25t-57 -8.5q-42 0 -75.5 13.5 t-52.5 31.5l39 69q19 -16 41 -27t50 -11q29 0 49 14.5t20 41.5q0 28 -21.5 48t-47.5 40t-47.5 45.5t-21.5 64.5q0 33 14 60t37.5 46.5t55 31t66.5 13.5q14 66 -9 108.5t-76 42.5q-31 0 -53.5 -9.5t-39 -27t-26.5 -41t-16 -50.5l-82 -476l-8 -108z" />
<glyph unicode="&#xe0;" horiz-adv-x="450" d="M9 105q0 33 13 71q24 26 57 45t70 30t75.5 14.5t72.5 -1.5q8 64 -10.5 94.5t-66.5 30.5q-15 0 -32 -4.5t-33.5 -12t-31.5 -17t-25 -18.5h-3l-29 59q36 30 80.5 48t92.5 18q36 0 64.5 -13.5t47.5 -38.5t27 -60t1 -78l-27 -173q-3 -18 1 -41.5t15 -38.5l-3 -6l-76 -22 q-5 11 -10.5 30.5t-4.5 39.5h-4q-26 -27 -64.5 -48t-81.5 -28q-48 5 -81.5 37.5t-33.5 82.5zM90 125q-2 -23 10.5 -42.5t41.5 -25.5q38 5 74.5 25t59.5 47l14 73q-26 4 -53 3t-53 -7t-49 -18.5t-41 -32.5q-2 -5 -3 -11t-1 -11zM107 669v10h86l111 -164v-8h-58z" />
<glyph unicode="&#xe1;" horiz-adv-x="450" d="M9 105q0 33 13 71q24 26 57 45t70 30t75.5 14.5t72.5 -1.5q8 64 -10.5 94.5t-66.5 30.5q-15 0 -32 -4.5t-33.5 -12t-31.5 -17t-25 -18.5h-3l-29 59q36 30 80.5 48t92.5 18q36 0 64.5 -13.5t47.5 -38.5t27 -60t1 -78l-27 -173q-3 -18 1 -41.5t15 -38.5l-3 -6l-76 -22 q-5 11 -10.5 30.5t-4.5 39.5h-4q-26 -27 -64.5 -48t-81.5 -28q-48 5 -81.5 37.5t-33.5 82.5zM90 125q-2 -23 10.5 -42.5t41.5 -25.5q38 5 74.5 25t59.5 47l14 73q-26 4 -53 3t-53 -7t-49 -18.5t-41 -32.5q-2 -5 -3 -11t-1 -11zM181 507v8l116 164h87v-10l-142 -162h-61z" />
<glyph unicode="&#xe2;" horiz-adv-x="450" d="M9 105q0 33 13 71q24 26 57 45t70 30t75.5 14.5t72.5 -1.5q8 64 -10.5 94.5t-66.5 30.5q-15 0 -32 -4.5t-33.5 -12t-31.5 -17t-25 -18.5h-3l-29 59q36 30 80.5 48t92.5 18q36 0 64.5 -13.5t47.5 -38.5t27 -60t1 -78l-27 -173q-3 -18 1 -41.5t15 -38.5l-3 -6l-76 -22 q-5 11 -10.5 30.5t-4.5 39.5h-4q-26 -27 -64.5 -48t-81.5 -28q-48 5 -81.5 37.5t-33.5 82.5zM90 125q-2 -23 10.5 -42.5t41.5 -25.5q38 5 74.5 25t59.5 47l14 73q-26 4 -53 3t-53 -7t-49 -18.5t-41 -32.5q-2 -5 -3 -11t-1 -11zM114 507v8l146 164h28l96 -164v-8h-55l-65 94 l-93 -94h-57z" />
<glyph unicode="&#xe3;" horiz-adv-x="450" d="M9 105q0 33 13 71q24 26 57 45t70 30t75.5 14.5t72.5 -1.5q8 64 -10.5 94.5t-66.5 30.5q-15 0 -32 -4.5t-33.5 -12t-31.5 -17t-25 -18.5h-3l-29 59q36 30 80.5 48t92.5 18q36 0 64.5 -13.5t47.5 -38.5t27 -60t1 -78l-27 -173q-3 -18 1 -41.5t15 -38.5l-3 -6l-76 -22 q-5 11 -10.5 30.5t-4.5 39.5h-4q-26 -27 -64.5 -48t-81.5 -28q-48 5 -81.5 37.5t-33.5 82.5zM90 125q-2 -23 10.5 -42.5t41.5 -25.5q38 5 74.5 25t59.5 47l14 73q-26 4 -53 3t-53 -7t-49 -18.5t-41 -32.5q-2 -5 -3 -11t-1 -11zM112 524q0 58 25 89t59 31q19 0 33.5 -10 t26.5 -22t23 -22t23 -10q17 0 26 19t9 43h52q0 -23 -6 -45t-17 -38.5t-26 -26.5t-34 -10q-20 0 -34 10t-25.5 21.5t-22 21.5t-22.5 10q-19 0 -29.5 -17.5t-10.5 -43.5h-50z" />
<glyph unicode="&#xe4;" horiz-adv-x="450" d="M9 105q0 33 13 71q24 26 57 45t70 30t75.5 14.5t72.5 -1.5q8 64 -10.5 94.5t-66.5 30.5q-15 0 -32 -4.5t-33.5 -12t-31.5 -17t-25 -18.5h-3l-29 59q36 30 80.5 48t92.5 18q36 0 64.5 -13.5t47.5 -38.5t27 -60t1 -78l-27 -173q-3 -18 1 -41.5t15 -38.5l-3 -6l-76 -22 q-5 11 -10.5 30.5t-4.5 39.5h-4q-26 -27 -64.5 -48t-81.5 -28q-48 5 -81.5 37.5t-33.5 82.5zM90 125q-2 -23 10.5 -42.5t41.5 -25.5q38 5 74.5 25t59.5 47l14 73q-26 4 -53 3t-53 -7t-49 -18.5t-41 -32.5q-2 -5 -3 -11t-1 -11zM122 566q0 20 14.5 34.5t34.5 14.5t34.5 -14.5 t14.5 -34.5t-14.5 -34.5t-34.5 -14.5t-34.5 14.5t-14.5 34.5zM278 566q0 20 14.5 34.5t34.5 14.5t34.5 -14.5t14.5 -34.5t-14.5 -34.5t-34.5 -14.5t-34.5 14.5t-14.5 34.5z" />
<glyph unicode="&#xe5;" horiz-adv-x="450" d="M9 105q0 33 13 71q24 26 57 45t70 30t75.5 14.5t72.5 -1.5q8 64 -10.5 94.5t-66.5 30.5q-15 0 -32 -4.5t-33.5 -12t-31.5 -17t-25 -18.5h-3l-29 59q36 30 80.5 48t92.5 18q36 0 64.5 -13.5t47.5 -38.5t27 -60t1 -78l-27 -173q-3 -18 1 -41.5t15 -38.5l-3 -6l-76 -22 q-5 11 -10.5 30.5t-4.5 39.5h-4q-26 -27 -64.5 -48t-81.5 -28q-48 5 -81.5 37.5t-33.5 82.5zM90 125q-2 -23 10.5 -42.5t41.5 -25.5q38 5 74.5 25t59.5 47l14 73q-26 4 -53 3t-53 -7t-49 -18.5t-41 -32.5q-2 -5 -3 -11t-1 -11zM162 586q0 19 7.5 36.5t20 30t29.5 20t37 7.5 q19 0 36.5 -7.5t30 -20t20 -30t7.5 -36.5q0 -20 -7.5 -37t-20 -29.5t-30 -20t-36.5 -7.5q-20 0 -37 7.5t-29.5 20t-20 29.5t-7.5 37zM208 585q0 -22 12.5 -36.5t34.5 -14.5t35 14.5t13 36.5t-13 37.5t-35 15.5t-34.5 -15.5t-12.5 -37.5z" />
<glyph unicode="&#xe6;" horiz-adv-x="700" d="M9 105q0 33 13 71q23 26 56 45t69.5 30.5t75 14.5t71.5 -2q15 125 -74 125q-29 0 -63 -15.5t-59 -36.5h-3l-29 59q34 29 79.5 47.5t93.5 18.5q38 0 69.5 -18.5t48.5 -51.5q32 32 69.5 51t79.5 19q33 0 60.5 -11.5t48 -31t31.5 -45.5t11 -54q0 -14 -2 -27.5t-7 -27.5 q-24 -21 -59 -37t-74.5 -25t-80 -12t-76.5 1q-8 -65 17 -98t67 -33q35 0 70.5 15t61.5 38h3l24 -67q-32 -28 -78 -44.5t-94 -16.5q-45 0 -80 24t-52 68q-35 -44 -82 -66t-91 -27q-21 3 -41.5 11t-37 23t-26.5 36t-10 50zM90 112q0 -20 16.5 -36.5t35.5 -18.5q24 4 47.5 13.5 t43 26.5t34 42.5t20.5 62.5q-25 4 -52 3t-52.5 -7t-48 -18.5t-40.5 -32.5q-2 -10 -3 -18.5t-1 -16.5zM370 257q57 -5 110 2.5t94 35.5q5 36 -13.5 64.5t-60.5 28.5q-24 0 -45.5 -12t-38.5 -30.5t-29 -42t-17 -46.5z" />
<glyph unicode="&#xe7;" horiz-adv-x="400" d="M10 154q0 69 22.5 126t58.5 97.5t81 62.5t89 22q48 0 80 -18.5t52 -44.5l-52 -59q-17 21 -37.5 33.5t-47.5 12.5q-28 0 -55.5 -16t-49 -44.5t-35 -69t-13.5 -88.5q0 -56 25.5 -80.5t64.5 -24.5q31 0 56.5 12.5t47.5 28.5l32 -60q-25 -26 -62.5 -40.5t-76.5 -16.5l-26 -42 q36 0 59.5 -16.5t23.5 -48.5q0 -40 -46 -68t-125 -36l-4 39q54 5 84.5 20.5t30.5 37.5q0 17 -19 24.5t-51 7.5q-6 0 -16 -0.5t-15 -1.5l-4 7l52 80q-59 11 -91.5 54.5t-32.5 109.5z" />
<glyph unicode="&#xe8;" horiz-adv-x="450" d="M10 152q0 61 20 117.5t53.5 99t78 68t94.5 25.5q33 0 60.5 -11.5t48 -31t31.5 -45.5t11 -54q0 -14 -2 -28.5t-7 -28.5q-25 -21 -60.5 -37t-75.5 -25t-81.5 -12t-77.5 1q-8 -65 18 -97t71 -32q35 0 70.5 15t61.5 38h3l24 -67q-32 -28 -78 -44.5t-94 -16.5q-36 0 -67 11.5 t-53.5 33t-35.5 52t-13 69.5zM115 255q59 -5 113 2.5t96 35.5q3 18 -0.5 35t-13 30.5t-24.5 21.5t-36 8q-25 0 -47 -12t-39.5 -31.5t-30 -43t-18.5 -46.5zM125 669v10h86l111 -164v-8h-58z" />
<glyph unicode="&#xe9;" horiz-adv-x="450" d="M10 152q0 61 20 117.5t53.5 99t78 68t94.5 25.5q33 0 60.5 -11.5t48 -31t31.5 -45.5t11 -54q0 -14 -2 -28.5t-7 -28.5q-25 -21 -60.5 -37t-75.5 -25t-81.5 -12t-77.5 1q-8 -65 18 -97t71 -32q35 0 70.5 15t61.5 38h3l24 -67q-32 -28 -78 -44.5t-94 -16.5q-36 0 -67 11.5 t-53.5 33t-35.5 52t-13 69.5zM115 255q59 -5 113 2.5t96 35.5q3 18 -0.5 35t-13 30.5t-24.5 21.5t-36 8q-25 0 -47 -12t-39.5 -31.5t-30 -43t-18.5 -46.5zM199 507v8l116 164h87v-10l-142 -162h-61z" />
<glyph unicode="&#xea;" horiz-adv-x="450" d="M10 152q0 61 20 117.5t53.5 99t78 68t94.5 25.5q33 0 60.5 -11.5t48 -31t31.5 -45.5t11 -54q0 -14 -2 -28.5t-7 -28.5q-25 -21 -60.5 -37t-75.5 -25t-81.5 -12t-77.5 1q-8 -65 18 -97t71 -32q35 0 70.5 15t61.5 38h3l24 -67q-32 -28 -78 -44.5t-94 -16.5q-36 0 -67 11.5 t-53.5 33t-35.5 52t-13 69.5zM115 255q59 -5 113 2.5t96 35.5q3 18 -0.5 35t-13 30.5t-24.5 21.5t-36 8q-25 0 -47 -12t-39.5 -31.5t-30 -43t-18.5 -46.5zM132 507v8l146 164h28l96 -164v-8h-55l-65 94l-93 -94h-57z" />
<glyph unicode="&#xeb;" horiz-adv-x="450" d="M10 152q0 61 20 117.5t53.5 99t78 68t94.5 25.5q33 0 60.5 -11.5t48 -31t31.5 -45.5t11 -54q0 -14 -2 -28.5t-7 -28.5q-25 -21 -60.5 -37t-75.5 -25t-81.5 -12t-77.5 1q-8 -65 18 -97t71 -32q35 0 70.5 15t61.5 38h3l24 -67q-32 -28 -78 -44.5t-94 -16.5q-36 0 -67 11.5 t-53.5 33t-35.5 52t-13 69.5zM115 255q59 -5 113 2.5t96 35.5q3 18 -0.5 35t-13 30.5t-24.5 21.5t-36 8q-25 0 -47 -12t-39.5 -31.5t-30 -43t-18.5 -46.5zM140 566q0 20 14.5 34.5t34.5 14.5t34.5 -14.5t14.5 -34.5t-14.5 -34.5t-34.5 -14.5t-34.5 14.5t-14.5 34.5zM296 566 q0 20 14.5 34.5t34.5 14.5t34.5 -14.5t14.5 -34.5t-14.5 -34.5t-34.5 -14.5t-34.5 14.5t-14.5 34.5z" />
<glyph unicode="&#xec;" horiz-adv-x="230" d="M2 660v10h86l111 -164v-8h-58zM15 -5l62 357l5 89l102 12l-61 -348l-7 -100z" />
<glyph unicode="&#xed;" horiz-adv-x="230" d="M15 -5l62 357l5 89l102 12l-61 -348l-7 -100zM76 498v8l116 164h87v-10l-142 -162h-61z" />
<glyph unicode="&#xee;" horiz-adv-x="230" d="M9 498v8l146 164h28l96 -164v-8h-55l-65 94l-93 -94h-57zM15 -5l62 357l5 89l102 12l-61 -348l-7 -100z" />
<glyph unicode="&#xef;" horiz-adv-x="230" d="M15 -5l62 357l5 89l102 12l-61 -348l-7 -100zM17 557q0 20 14.5 34.5t34.5 14.5t34.5 -14.5t14.5 -34.5t-14.5 -34.5t-34.5 -14.5t-34.5 14.5t-14.5 34.5zM173 557q0 20 14.5 34.5t34.5 14.5t34.5 -14.5t14.5 -34.5t-14.5 -34.5t-34.5 -14.5t-34.5 14.5t-14.5 34.5z" />
<glyph unicode="&#xf0;" horiz-adv-x="490" d="M10 175q0 61 21.5 113.5t56.5 91t79.5 60.5t91.5 22q32 0 57.5 -12t45.5 -33l4 2q-8 38 -26.5 70.5t-42.5 58.5l-93 -56l-23 40l81 49q-44 35 -92 52l17 62q39 -15 74 -34t64 -42l105 64l23 -40l-93 -57q44 -46 68 -107t24 -140q0 -72 -19 -136.5t-53.5 -112.5t-83 -76 t-107.5 -28q-40 0 -73 13.5t-56.5 38.5t-36.5 60t-13 77zM103 175q0 -54 24.5 -84.5t69.5 -30.5q30 0 58 17.5t49 46.5t33 66.5t11 78.5q0 54 -25 86.5t-72 32.5q-29 0 -55.5 -16.5t-47 -45.5t-33 -68t-12.5 -83z" />
<glyph unicode="&#xf1;" horiz-adv-x="480" d="M0 -5l58 332l10 116l84 10v-56h5q39 31 78.5 48t84.5 17q57 0 85.5 -36t14.5 -114l-40 -225l-5 -82l-100 -10l50 294q5 28 2.5 46.5t-10 28.5t-19.5 14t-27 4q-34 0 -67.5 -19t-56.5 -48l-41 -221l-6 -89zM141 524q0 58 25 89t59 31q19 0 33.5 -10t26.5 -22t23 -22 t23 -10q17 0 26 19t9 43h52q0 -23 -6 -45t-17 -38.5t-26 -26.5t-34 -10q-20 0 -34 10t-25.5 21.5t-22 21.5t-22.5 10q-19 0 -29.5 -17.5t-10.5 -43.5h-50z" />
<glyph unicode="&#xf2;" horiz-adv-x="490" d="M10 170q0 58 20 110.5t54 93t78.5 64.5t93.5 24q41 0 75 -13.5t58 -38.5t37.5 -60.5t13.5 -78.5q0 -51 -17.5 -102t-49.5 -91.5t-78.5 -66t-103.5 -25.5q-41 0 -74 13.5t-57 37.5t-37 58t-13 75zM103 178q0 -57 25 -87.5t69 -30.5q31 0 58.5 16t48 44t32.5 65.5t12 79.5 q0 57 -24 90t-69 33q-32 0 -59.5 -18t-48 -48t-32.5 -67.5t-12 -76.5zM141 669v10h86l111 -164v-8h-58z" />
<glyph unicode="&#xf3;" horiz-adv-x="490" d="M10 170q0 58 20 110.5t54 93t78.5 64.5t93.5 24q41 0 75 -13.5t58 -38.5t37.5 -60.5t13.5 -78.5q0 -51 -17.5 -102t-49.5 -91.5t-78.5 -66t-103.5 -25.5q-41 0 -74 13.5t-57 37.5t-37 58t-13 75zM103 178q0 -57 25 -87.5t69 -30.5q31 0 58.5 16t48 44t32.5 65.5t12 79.5 q0 57 -24 90t-69 33q-32 0 -59.5 -18t-48 -48t-32.5 -67.5t-12 -76.5zM215 507v8l116 164h87v-10l-142 -162h-61z" />
<glyph unicode="&#xf4;" horiz-adv-x="490" d="M10 170q0 58 20 110.5t54 93t78.5 64.5t93.5 24q41 0 75 -13.5t58 -38.5t37.5 -60.5t13.5 -78.5q0 -51 -17.5 -102t-49.5 -91.5t-78.5 -66t-103.5 -25.5q-41 0 -74 13.5t-57 37.5t-37 58t-13 75zM103 178q0 -57 25 -87.5t69 -30.5q31 0 58.5 16t48 44t32.5 65.5t12 79.5 q0 57 -24 90t-69 33q-32 0 -59.5 -18t-48 -48t-32.5 -67.5t-12 -76.5zM148 507v8l146 164h28l96 -164v-8h-55l-65 94l-93 -94h-57z" />
<glyph unicode="&#xf5;" horiz-adv-x="490" d="M10 170q0 58 20 110.5t54 93t78.5 64.5t93.5 24q41 0 75 -13.5t58 -38.5t37.5 -60.5t13.5 -78.5q0 -51 -17.5 -102t-49.5 -91.5t-78.5 -66t-103.5 -25.5q-41 0 -74 13.5t-57 37.5t-37 58t-13 75zM103 178q0 -57 25 -87.5t69 -30.5q31 0 58.5 16t48 44t32.5 65.5t12 79.5 q0 57 -24 90t-69 33q-32 0 -59.5 -18t-48 -48t-32.5 -67.5t-12 -76.5zM146 524q0 58 25 89t59 31q19 0 33.5 -10t26.5 -22t23 -22t23 -10q17 0 26 19t9 43h52q0 -23 -6 -45t-17 -38.5t-26 -26.5t-34 -10q-20 0 -34 10t-25.5 21.5t-22 21.5t-22.5 10q-19 0 -29.5 -17.5 t-10.5 -43.5h-50z" />
<glyph unicode="&#xf6;" horiz-adv-x="490" d="M10 170q0 58 20 110.5t54 93t78.5 64.5t93.5 24q41 0 75 -13.5t58 -38.5t37.5 -60.5t13.5 -78.5q0 -51 -17.5 -102t-49.5 -91.5t-78.5 -66t-103.5 -25.5q-41 0 -74 13.5t-57 37.5t-37 58t-13 75zM103 178q0 -57 25 -87.5t69 -30.5q31 0 58.5 16t48 44t32.5 65.5t12 79.5 q0 57 -24 90t-69 33q-32 0 -59.5 -18t-48 -48t-32.5 -67.5t-12 -76.5zM156 566q0 20 14.5 34.5t34.5 14.5t34.5 -14.5t14.5 -34.5t-14.5 -34.5t-34.5 -14.5t-34.5 14.5t-14.5 34.5zM312 566q0 20 14.5 34.5t34.5 14.5t34.5 -14.5t14.5 -34.5t-14.5 -34.5t-34.5 -14.5 t-34.5 14.5t-14.5 34.5z" />
<glyph unicode="&#xf7;" d="M33 267v68h464v-68h-464zM205 137q0 25 17.5 42.5t42.5 17.5t42.5 -17.5t17.5 -42.5t-17.5 -42.5t-42.5 -17.5t-42.5 17.5t-17.5 42.5zM205 465q0 25 17.5 42.5t42.5 17.5t42.5 -17.5t17.5 -42.5t-17.5 -42.5t-42.5 -17.5t-42.5 17.5t-17.5 42.5z" />
<glyph unicode="&#xf8;" horiz-adv-x="490" d="M6 -6l45 53q-20 23 -30.5 54t-10.5 69q0 58 20 110.5t54 93t78.5 64.5t93.5 24q35 0 64.5 -10t52.5 -28l45 53l32 -26l-48 -56q18 -24 28 -55.5t10 -68.5q0 -51 -17.5 -102t-49.5 -91.5t-78.5 -66t-103.5 -25.5q-64 0 -111 33l-44 -52zM103 169q0 -29 9 -51l206 242 q-23 28 -63 28q-32 0 -60.5 -19.5t-50 -51t-33 -70.5t-8.5 -78zM135 83q23 -23 62 -23q31 0 58.5 16t48 44t32.5 65.5t12 79.5q0 31 -8 57z" />
<glyph unicode="&#xf9;" horiz-adv-x="480" d="M24.5 76.5q-5.5 32.5 2.5 79.5l35 199l6 88l100 10l-52 -283q-11 -58 5.5 -80.5t54.5 -22.5q17 0 35 6.5t35 18t31 26.5t23 33l33 185l9 107l100 10l-59 -343l-9 -105l-83 -10v62h-3q-30 -29 -68 -50t-86 -21q-27 0 -50 9t-38.5 29t-21 52.5zM128 669v10h86l111 -164v-8 h-58z" />
<glyph unicode="&#xfa;" horiz-adv-x="480" d="M24.5 76.5q-5.5 32.5 2.5 79.5l35 199l6 88l100 10l-52 -283q-11 -58 5.5 -80.5t54.5 -22.5q17 0 35 6.5t35 18t31 26.5t23 33l33 185l9 107l100 10l-59 -343l-9 -105l-83 -10v62h-3q-30 -29 -68 -50t-86 -21q-27 0 -50 9t-38.5 29t-21 52.5zM202 507v8l116 164h87v-10 l-142 -162h-61z" />
<glyph unicode="&#xfb;" horiz-adv-x="480" d="M24.5 76.5q-5.5 32.5 2.5 79.5l35 199l6 88l100 10l-52 -283q-11 -58 5.5 -80.5t54.5 -22.5q17 0 35 6.5t35 18t31 26.5t23 33l33 185l9 107l100 10l-59 -343l-9 -105l-83 -10v62h-3q-30 -29 -68 -50t-86 -21q-27 0 -50 9t-38.5 29t-21 52.5zM135 507v8l146 164h28 l96 -164v-8h-55l-65 94l-93 -94h-57z" />
<glyph unicode="&#xfc;" horiz-adv-x="480" d="M24.5 76.5q-5.5 32.5 2.5 79.5l35 199l6 88l100 10l-52 -283q-11 -58 5.5 -80.5t54.5 -22.5q17 0 35 6.5t35 18t31 26.5t23 33l33 185l9 107l100 10l-59 -343l-9 -105l-83 -10v62h-3q-30 -29 -68 -50t-86 -21q-27 0 -50 9t-38.5 29t-21 52.5zM143 566q0 20 14.5 34.5 t34.5 14.5t34.5 -14.5t14.5 -34.5t-14.5 -34.5t-34.5 -14.5t-34.5 14.5t-14.5 34.5zM299 566q0 20 14.5 34.5t34.5 14.5t34.5 -14.5t14.5 -34.5t-14.5 -34.5t-34.5 -14.5t-34.5 14.5t-14.5 34.5z" />
<glyph unicode="&#xfd;" horiz-adv-x="440" d="M-31 -178q32 21 71.5 72t78.5 134l-93 415l86 10l68 -319h4l171 309l91 9l4 -8l-243 -422l-59 -111l-55 -104l-124 -12v27zM179 507v8l116 164h87v-10l-142 -162h-61z" />
<glyph unicode="&#xfe;" horiz-adv-x="490" d="M-38 -204l61 315l86 494l3 75l101 10l-65 -317h5q35 43 68 63.5t80 26.5q23 -4 47.5 -16t45 -34t33.5 -55t13 -79q0 -75 -25 -130.5t-61.5 -91.5t-77.5 -53.5t-73 -17.5q-27 0 -55 9t-46 31h-5l-23 -132l-5 -86zM109 107q11 -25 31.5 -35t51.5 -10q24 0 51.5 11t50.5 36 t38.5 66t15.5 100q0 28 -6.5 47.5t-16 32t-21 19t-21.5 9.5q-17 0 -37 -7.5t-39.5 -20t-37 -29t-29.5 -34.5z" />
<glyph unicode="&#xff;" horiz-adv-x="440" d="M-31 -178q32 21 71.5 72t78.5 134l-93 415l86 10l68 -319h4l171 309l91 9l4 -8l-243 -422l-59 -111l-55 -104l-124 -12v27zM120 566q0 20 14.5 34.5t34.5 14.5t34.5 -14.5t14.5 -34.5t-14.5 -34.5t-34.5 -14.5t-34.5 14.5t-14.5 34.5zM276 566q0 20 14.5 34.5t34.5 14.5 t34.5 -14.5t14.5 -34.5t-14.5 -34.5t-34.5 -14.5t-34.5 14.5t-14.5 34.5z" />
<glyph unicode="&#x152;" horiz-adv-x="920" d="M44 288q0 86 32 160.5t85.5 129t123 86t143.5 31.5q59 0 111 -20l393 10l-19 -82l-284 -7l-40 -206l263 10l-19 -82l-258 -10l-37 -231l304 10l-19 -82l-393 -10q-21 -5 -43.5 -7.5t-45.5 -2.5q-62 0 -116.5 22.5t-94.5 62.5t-63 95.5t-23 122.5zM142 292 q0 -41 12.5 -80.5t38 -71t63.5 -51t89 -19.5q27 0 52 5t48 14l50 267l35 216v6q-47 32 -107 32q-51 0 -101 -21.5t-90 -62.5t-65 -100t-25 -134z" />
<glyph unicode="&#x153;" horiz-adv-x="770" d="M10 170q0 58 20 110.5t54 93t78.5 64.5t93.5 24q51 0 91.5 -21.5t61.5 -63.5q34 39 76.5 62t90.5 23q33 0 60.5 -11.5t48 -31t31.5 -45.5t11 -54q0 -14 -2 -27.5t-7 -27.5q-25 -21 -60.5 -37t-75.5 -25t-81.5 -12t-77.5 1q-8 -65 18 -98t71 -33q35 0 70.5 15t61.5 38h3 l24 -67q-32 -28 -78 -44.5t-94 -16.5q-46 0 -83 19t-60 54q-31 -34 -72.5 -53.5t-92.5 -19.5q-41 0 -74 13.5t-57 37.5t-37 58t-13 75zM103 169q2 -51 26 -80t68 -29q31 0 58.5 16t48 44t32.5 65.5t12 79.5q0 57 -24 90t-69 33q-32 0 -60.5 -19.5t-50 -51t-33 -70.5 t-8.5 -78zM435 257q59 -5 113 2.5t96 35.5q5 36 -13.5 64.5t-60.5 28.5q-25 0 -47 -12t-39.5 -30.5t-30 -42t-18.5 -46.5z" />
<glyph unicode="&#x178;" horiz-adv-x="590" d="M69 675l92 10l135 -291h8l223 281l103 9l4 -10l-297 -371l-37 -209l-6 -89l-104 -10l53 308zM237 779q0 20 14.5 34.5t34.5 14.5t34.5 -14.5t14.5 -34.5t-14.5 -34.5t-34.5 -14.5t-34.5 14.5t-14.5 34.5zM393 779q0 20 14.5 34.5t34.5 14.5t34.5 -14.5t14.5 -34.5 t-14.5 -34.5t-34.5 -14.5t-34.5 14.5t-14.5 34.5z" />
<glyph unicode="&#x2c6;" horiz-adv-x="500" d="M120 448v8l146 164h28l96 -164v-8h-55l-65 94l-93 -94h-57z" />
<glyph unicode="&#x2dc;" horiz-adv-x="500" d="M118 465q0 58 25 89t59 31q19 0 33.5 -10t26.5 -22t23 -22t23 -10q17 0 26 19t9 43h52q0 -23 -6 -45t-17 -38.5t-26 -26.5t-34 -10q-20 0 -34 10t-25.5 21.5t-22 21.5t-22.5 10q-19 0 -29.5 -17.5t-10.5 -43.5h-50z" />
<glyph unicode="&#x2000;" horiz-adv-x="452" />
<glyph unicode="&#x2001;" horiz-adv-x="905" />
<glyph unicode="&#x2002;" horiz-adv-x="452" />
<glyph unicode="&#x2003;" horiz-adv-x="905" />
<glyph unicode="&#x2004;" horiz-adv-x="301" />
<glyph unicode="&#x2005;" horiz-adv-x="226" />
<glyph unicode="&#x2006;" horiz-adv-x="150" />
<glyph unicode="&#x2007;" horiz-adv-x="150" />
<glyph unicode="&#x2008;" horiz-adv-x="113" />
<glyph unicode="&#x2009;" horiz-adv-x="181" />
<glyph unicode="&#x200a;" horiz-adv-x="50" />
<glyph unicode="&#x2010;" horiz-adv-x="340" d="M19 193l15 84l260 10l-15 -84z" />
<glyph unicode="&#x2011;" horiz-adv-x="340" d="M19 193l15 84l260 10l-15 -84z" />
<glyph unicode="&#x2012;" horiz-adv-x="340" d="M19 193l15 84l260 10l-15 -84z" />
<glyph unicode="&#x2013;" horiz-adv-x="480" d="M19 191l15 84l400 14l-15 -84z" />
<glyph unicode="&#x2014;" horiz-adv-x="1000" d="M80 204v73h816v-73h-816z" />
<glyph unicode="&#x2018;" horiz-adv-x="280" d="M82 434v5l76 134l76 107h69v-5l-76 -140l-39 -101h-106z" />
<glyph unicode="&#x2019;" horiz-adv-x="280" d="M50 434v5l76 140l39 101h106v-5l-76 -134l-76 -107h-69z" />
<glyph unicode="&#x201a;" horiz-adv-x="280" d="M-23 -126l76 140l39 101h106v-5l-76 -134l-76 -107h-69v5z" />
<glyph unicode="&#x201c;" horiz-adv-x="470" d="M82 434v5l76 134l76 107h69v-5l-76 -140l-39 -101h-106zM272 434v5l76 134l76 107h69v-5l-76 -140l-39 -101h-106z" />
<glyph unicode="&#x201d;" horiz-adv-x="470" d="M50 434v5l76 140l39 101h106v-5l-76 -134l-76 -107h-69zM240 434v5l76 140l39 101h106v-5l-76 -134l-76 -107h-69z" />
<glyph unicode="&#x201e;" horiz-adv-x="470" d="M-23 -126l76 140l39 101h106v-5l-76 -134l-76 -107h-69v5zM167 -126l76 140l39 101h106v-5l-76 -134l-76 -107h-69v5z" />
<glyph unicode="&#x2022;" horiz-adv-x="480" d="M104 264q0 28 10.5 53t29 43.5t43.5 29t53 10.5t53 -10.5t43.5 -29t29 -43.5t10.5 -53t-10.5 -53t-29 -43.5t-43.5 -29t-53 -10.5t-53 10.5t-43.5 29t-29 43.5t-10.5 53z" />
<glyph unicode="&#x2026;" horiz-adv-x="910" d="M35 53q0 25 17.5 42.5t42.5 17.5t42.5 -17.5t17.5 -42.5t-17.5 -42.5t-42.5 -17.5t-42.5 17.5t-17.5 42.5zM355 53q0 25 17.5 42.5t42.5 17.5t42.5 -17.5t17.5 -42.5t-17.5 -42.5t-42.5 -17.5t-42.5 17.5t-17.5 42.5zM675 53q0 25 17.5 42.5t42.5 17.5t42.5 -17.5 t17.5 -42.5t-17.5 -42.5t-42.5 -17.5t-42.5 17.5t-17.5 42.5z" />
<glyph unicode="&#x202f;" horiz-adv-x="181" />
<glyph unicode="&#x2039;" horiz-adv-x="410" d="M56 217l2 13l241 229l46 -38l-181 -202l-2 -10l101 -176l-55 -37z" />
<glyph unicode="&#x203a;" horiz-adv-x="410" d="M35 34l181 202l2 10l-101 176l55 37l152 -221l-2 -13l-241 -229z" />
<glyph unicode="&#x205f;" horiz-adv-x="226" />
<glyph unicode="&#x20ac;" horiz-adv-x="610" d="M27 257l24 55h42q2 13 3.5 25t4.5 24h-56l24 55h47q22 64 60 115.5t86 88t102 56t108 19.5q44 0 81 -11t72 -32l-41 -78q-29 17 -57.5 26.5t-66.5 9.5q-36 0 -72.5 -13.5t-69 -38.5t-59.5 -61t-44 -81h302l-24 -55h-294q-3 -12 -4.5 -24t-3.5 -25h282l-24 -55h-259 q1 -42 12 -76.5t32 -59t50.5 -38t67.5 -13.5q42 0 77 12t71 35l34 -71q-18 -14 -41 -25.5t-48.5 -19.5t-52.5 -12t-52 -4q-57 0 -102.5 21.5t-78 58.5t-50 86.5t-18.5 105.5h-64z" />
<glyph unicode="&#x2122;" horiz-adv-x="690" d="M74 635v45h234v-45h-93v-215h-48v215h-93zM315 420l43 262h22l77 -170h4l75 170h22l43 -262h-47l-24 145h-5l-65 -149h-5l-65 149h-4l-25 -145h-46z" />
<glyph unicode="&#x25fc;" horiz-adv-x="455" d="M0 0v455h455v-455h-455z" />
</font>
</defs>
</svg>
