<?xml version="1.0" standalone="no"?>
<!DOCTYPE svg PUBLIC "-//W3C//DTD SVG 1.1//EN" "http://www.w3.org/Graphics/SVG/1.1/DTD/svg11.dtd" >
<svg xmlns="http://www.w3.org/2000/svg" xmlns:xlink="http://www.w3.org/1999/xlink" version="1.1">
<metadata></metadata>
<defs>
<font id="concourse_t4bold_italic" horiz-adv-x="530" >
<font-face units-per-em="1000" ascent="742" descent="-258" />
<missing-glyph horiz-adv-x="220" />
<glyph unicode="&#xfb01;" horiz-adv-x="550" d="M19 -93l75 434h-74l15 87l80 32l7 40q5 30 19.5 59.5t35.5 54.5t48 43t57 25h93v-77q-48 -10 -83 -43t-43 -78l-6 -31h82l-19 -102l-82 -10l-61 -346l-4 -78zM311 -5l61 352l6 93l143 16l-65 -373l-5 -78zM398 609q0 33 23 56t56 23t56 -23t23 -56t-23 -56t-56 -23 t-56 23t-23 56z" />
<glyph unicode="&#xfb02;" horiz-adv-x="550" d="M19 -93l75 434h-74l15 87l80 32l7 40q5 30 19.5 59.5t35.5 54.5t48 43t57 25h93v-77q-48 -10 -83 -43t-43 -78l-6 -31h82l-19 -102l-82 -10l-61 -346l-4 -78zM308 -5l62 333l40 256l7 96l147 12l-63 -334l-44 -274l-5 -79z" />
<glyph horiz-adv-x="0" />
<glyph unicode="&#xd;" horiz-adv-x="0" />
<glyph horiz-adv-x="0" />
<glyph horiz-adv-x="0" />
<glyph unicode="&#x9;" horiz-adv-x="0" />
<glyph unicode="&#xa;" horiz-adv-x="0" />
<glyph horiz-adv-x="0" />
<glyph horiz-adv-x="0" />
<glyph horiz-adv-x="0" />
<glyph horiz-adv-x="0" />
<glyph horiz-adv-x="0" />
<glyph horiz-adv-x="0" />
<glyph horiz-adv-x="0" />
<glyph unicode=" "  horiz-adv-x="220" />
<glyph unicode="&#x09;" horiz-adv-x="220" />
<glyph unicode="&#xa0;" horiz-adv-x="220" />
<glyph unicode="!" horiz-adv-x="310" d="M25 70q0 32 22.5 54.5t54.5 22.5t54.5 -22.5t22.5 -54.5t-22.5 -54.5t-54.5 -22.5t-54.5 22.5t-22.5 54.5zM83 214l42 230l41 231l141 10l2 -2l-76 -238l-63 -226z" />
<glyph unicode="&#x22;" horiz-adv-x="400" d="M90 406l45 274h122l-92 -274h-75zM240 406l45 274h122l-92 -274h-75z" />
<glyph unicode="#" horiz-adv-x="510" d="M8 240l13 78l109 -19l31 135l-94 17l14 78l98 -18l50 215l72 -16l-49 -212l77 -13l56 232l72 -16l-56 -229l101 -17l-14 -78l-105 18l-33 -135l92 -16l-13 -78l-97 17l-59 -246l-72 16l58 242l-74 13l-60 -261l-72 16l59 258zM203 286l75 -13l32 135l-76 13z" />
<glyph unicode="$" horiz-adv-x="470" d="M-22 81l48 107q25 -15 55.5 -28.5t68.5 -18.5l48 175l-17 10q-23 12 -44 26.5t-38 33t-27 42.5t-10 55q0 37 16.5 70t46.5 58t72 39.5t92 14.5h6l23 84l59 -11l-22 -79q35 -6 62 -18t48 -26l-44 -106q-23 15 -46.5 26t-49.5 16l-43 -156l10 -5q69 -41 95 -82t26 -86 q0 -50 -22 -86t-56 -59.5t-75 -35t-79 -12.5l-28 -102l-59 11l26 95q-46 7 -85.5 21t-56.5 27zM177 492q0 -17 11.5 -30.5t40.5 -33.5l35 126q-45 -3 -66 -20t-21 -42zM211 139q25 3 42 10.5t26.5 18t13.5 22t4 22.5q0 19 -10 35.5t-36 35.5z" />
<glyph unicode="%" horiz-adv-x="680" d="M46 503q0 40 14 75.5t37.5 61t53 40.5t60.5 15q59 0 91 -36t32 -94q0 -38 -13 -72.5t-35.5 -60.5t-51.5 -41.5t-62 -15.5q-60 0 -93 35t-33 93zM66 28l262 333l232 332l56 -31l-249 -323l-245 -344zM130 508q0 -28 12.5 -44t35.5 -16q14 0 27.5 9.5t23.5 25t16 35.5t5 41 q0 29 -11 46t-33 17q-15 0 -28.5 -9t-24 -24.5t-17 -36t-6.5 -44.5zM354 121q0 40 14 75.5t37.5 61t53 40.5t60.5 15q59 0 91 -36t32 -94q0 -38 -13 -72.5t-35.5 -60.5t-51.5 -41.5t-62 -15.5q-60 0 -93 35t-33 93zM438 126q0 -28 12.5 -44t35.5 -16q14 0 27 9.5t23 25 t16 35.5t6 41q0 29 -11 46t-33 17q-15 0 -28.5 -9t-24 -24.5t-17 -36t-6.5 -44.5z" />
<glyph unicode="&#x26;" horiz-adv-x="650" d="M4 172q0 48 14.5 86t38 67t52 49.5t56.5 34.5l1 7q-30 20 -41.5 48t-11.5 57q0 37 19 68.5t51 55t74 37t88 13.5q60 0 102 -12.5t82 -37.5l-60 -105h-6q-23 16 -50 25t-60 9q-47 0 -74.5 -19.5t-27.5 -46.5q0 -28 15 -48.5t49 -29.5l-11 -68q-33 -6 -61.5 -21t-50 -36 t-33.5 -48t-12 -58q0 -45 34 -69t91 -24q84 0 129.5 37.5t45.5 94.5q0 14 -5 31l-70 -13l-15 97l263 49l15 -97l-70 -13q8 -24 8 -45q0 -54 -22.5 -101.5t-64.5 -83t-101 -56.5t-132 -21q-64 0 -111 15.5t-77.5 41.5t-45.5 60t-15 70z" />
<glyph unicode="'" horiz-adv-x="250" d="M90 406l45 274h122l-92 -274h-75z" />
<glyph unicode="(" horiz-adv-x="350" d="M16 194q0 96 28.5 179.5t76.5 153t112 124t135 90.5l41 -75q-53 -33 -100 -80t-82.5 -107t-56 -131.5t-20.5 -151.5q0 -99 29 -179t80 -140l-64 -60q-38 34 -71 76.5t-57 91t-37.5 101.5t-13.5 108z" />
<glyph unicode=")" horiz-adv-x="350" d="M-79 -108q53 33 100 80t82.5 107t56 131.5t20.5 151.5q0 99 -29 179t-80 140l64 60q38 -34 71 -76.5t57 -91t37.5 -101.5t13.5 -108q0 -96 -28.5 -179.5t-76.5 -153t-112 -124t-135 -90.5z" />
<glyph unicode="*" d="M85 361l156 92l-147 49l53 99l120 -98l8 184l119 -25l-79 -173l156 53l6 -117l-161 18l107 -156l-94 -53l-56 177l-121 -146z" />
<glyph unicode="+" d="M33 261v80h192v192h80v-192h192v-80h-192v-192h-80v192h-192z" />
<glyph unicode="," horiz-adv-x="250" d="M-81 -156l1 8l84 142l44 119h143l-1 -7l-96 -156l-93 -106h-82z" />
<glyph unicode="-" horiz-adv-x="340" d="M22 176l10 117l250 10l-10 -117z" />
<glyph unicode="." horiz-adv-x="270" d="M18 70q0 32 22.5 54.5t54.5 22.5t54.5 -22.5t22.5 -54.5t-22.5 -54.5t-54.5 -22.5t-54.5 22.5t-22.5 54.5z" />
<glyph unicode="/" horiz-adv-x="460" d="M-75 -160l492 860h98l-493 -860h-97z" />
<glyph unicode="0" horiz-adv-x="590" d="M31 238q0 95 23 178.5t65 145.5t101 97.5t131 35.5q48 0 87 -17.5t66.5 -50.5t42.5 -80t15 -106q0 -105 -26 -189.5t-70 -144t-101 -91t-119 -31.5q-47 0 -86.5 15.5t-68 46.5t-44.5 78.5t-16 112.5zM174 247q0 -73 25 -104t62 -31q33 0 62.5 28t51.5 74t34 104t11 117 q-2 68 -24 100.5t-58 32.5q-27 0 -56 -20.5t-53 -61t-39.5 -100.5t-15.5 -139z" />
<glyph unicode="1" horiz-adv-x="450" d="M97 529l12 129l268 30l8 -8l-60 -317l-46 -277l-4 -81l-146 -10l61 338l35 211z" />
<glyph unicode="2" horiz-adv-x="540" d="M-41 45q109 84 189 149.5t132.5 119.5t77.5 98.5t25 85.5q0 19 -7.5 32.5t-19.5 21.5t-27.5 11.5t-31.5 3.5q-45 0 -91 -14.5t-86 -41.5l-28 114q43 27 101.5 48.5t137.5 21.5q95 0 147.5 -42t52.5 -120q0 -90 -75.5 -187.5t-236.5 -210.5l2 -8l236 19l-18 -136l-477 -15 z" />
<glyph unicode="3" horiz-adv-x="520" d="M-24 25l30 120h5q72 -35 164 -35q27 0 52.5 6.5t44.5 19.5t30.5 33.5t11.5 47.5q0 34 -26 51.5t-72 15.5l-127 -6l25 130l118 -6q23 -1 44.5 5t38.5 18.5t27 32.5t10 46q0 33 -25.5 49.5t-64.5 16.5q-41 0 -78 -10t-60 -20h-6l-17 110q38 19 89.5 32t114.5 13 q41 0 76.5 -10t62 -30t41.5 -50t15 -69q0 -72 -39 -118t-105 -69l-1 -8q48 -15 74 -50t26 -81q0 -49 -21.5 -90.5t-60.5 -71.5t-92.5 -46.5t-117.5 -16.5q-116 0 -187 40z" />
<glyph unicode="4" horiz-adv-x="550" d="M14 253l346 422l148 10l-65 -383l73 3l-20 -116l-73 -3l-20 -104l-4 -77l-143 -10l34 191l-271 -7zM168 290l141 7l38 218h-5l-174 -220v-5z" />
<glyph unicode="5" horiz-adv-x="540" d="M-12 -1l33 123q10 -4 24.5 -6.5t30 -3.5t30 -1h24.5q49 0 89.5 11.5t69 30t44 42t15.5 48.5q0 49 -46.5 74.5t-136.5 25.5q-28 0 -54 -2t-46 -6l-5 3l101 337l380 15l-33 -130l-265 -6l-34 -108q14 1 23 1.5t23 0.5q59 0 103 -15t73 -40.5t43.5 -60.5t14.5 -74 q0 -66 -33.5 -116.5t-87 -85.5t-121 -53t-135.5 -18q-73 0 -124 14z" />
<glyph unicode="6" horiz-adv-x="540" d="M15 201q0 76 21.5 142t59 120.5t88.5 97.5t109.5 72.5t122.5 45t127 16.5l-34 -123q-59 -4 -110.5 -20t-93 -40t-70 -54.5t-40.5 -63.5l5 -4q25 10 54 18.5t73 8.5q32 0 62.5 -10.5t54.5 -33t38.5 -56.5t14.5 -80q0 -62 -22.5 -109.5t-60 -79t-85 -47.5t-97.5 -16 q-56 0 -97 16.5t-67.5 46t-39.5 69t-13 84.5zM153 212q0 -49 25 -79.5t70 -30.5q23 0 42.5 9.5t33.5 25.5t21.5 37t6.5 44q0 24 -8 41.5t-21.5 29.5t-31 17.5t-35.5 5.5q-25 0 -46 -5.5t-44 -17.5q-6 -19 -9.5 -39.5t-3.5 -37.5z" />
<glyph unicode="7" horiz-adv-x="500" d="M49 -5q51 163 129 307t174 253h-4l-279 -16l33 131l453 15l6 -11q-69 -84 -126.5 -168.5t-102 -169t-74.5 -168t-45 -163.5z" />
<glyph unicode="8" d="M1 145q0 37 15 69t38 58t50.5 44.5t53.5 28.5v3q-43 35 -59 73t-16 76q0 40 18 76t50.5 63t78 43t101.5 16q40 0 74.5 -10t60 -29.5t40 -47t14.5 -61.5q0 -69 -40 -116t-103 -76v-3q55 -36 78 -74t23 -80q0 -45 -19.5 -84t-54.5 -67.5t-83 -45t-106 -16.5q-50 0 -89.5 12 t-67 33t-42.5 50.5t-15 64.5zM143 176q0 -17 7 -31.5t19 -26t28.5 -18t35.5 -6.5q16 0 33.5 4.5t32 15.5t24 29t9.5 45q0 29 -23 56.5t-74 55.5q-41 -14 -66.5 -47.5t-25.5 -76.5zM225 507q0 -31 18 -54.5t56 -50.5q32 19 58 48.5t26 70.5q0 30 -20.5 47.5t-49.5 17.5 q-21 0 -37 -7t-27.5 -18t-17.5 -25t-6 -29z" />
<glyph unicode="9" horiz-adv-x="540" d="M43 447q0 50 20 95t55 79t81.5 54t100.5 20q57 0 99.5 -17t70 -47t41 -71.5t13.5 -90.5q0 -97 -31 -176t-88 -139.5t-136.5 -104t-176.5 -69.5l-27 112l1 8q53 13 100 33t84.5 44.5t63 53.5t35.5 60l-6 6q-46 -34 -123 -34q-35 0 -67 11.5t-56.5 34.5t-39 57.5 t-14.5 80.5zM187 463q0 -51 29.5 -73t71.5 -22q23 0 43.5 8t43.5 22q11 33 11 68q0 21 -5.5 41t-17 35.5t-29 25.5t-40.5 10t-42.5 -9t-34 -25t-22.5 -36.5t-8 -44.5z" />
<glyph unicode=":" horiz-adv-x="270" d="M8 70q0 32 22.5 54.5t54.5 22.5t54.5 -22.5t22.5 -54.5t-22.5 -54.5t-54.5 -22.5t-54.5 22.5t-22.5 54.5zM65 355q0 32 22.5 54.5t54.5 22.5t54.5 -22.5t22.5 -54.5t-22.5 -54.5t-54.5 -22.5t-54.5 22.5t-22.5 54.5z" />
<glyph unicode=";" horiz-adv-x="290" d="M-78 -156l1 8l84 142l44 119h143l-1 -7l-96 -156l-93 -106h-82zM80 355q0 32 22.5 54.5t54.5 22.5t54.5 -22.5t22.5 -54.5t-22.5 -54.5t-54.5 -22.5t-54.5 22.5t-22.5 54.5z" />
<glyph unicode="&#x3c;" d="M50 290v62l404 190l30 -80l-318 -141l318 -141l-30 -80z" />
<glyph unicode="=" d="M43 151v80h444v-80h-444zM43 363v80h444v-80h-444z" />
<glyph unicode="&#x3e;" d="M46 180l318 141l-318 141l30 80l404 -190v-62l-404 -190z" />
<glyph unicode="?" horiz-adv-x="450" d="M50 70q0 32 22.5 54.5t54.5 22.5t54.5 -22.5t22.5 -54.5t-22.5 -54.5t-54.5 -22.5t-54.5 22.5t-22.5 54.5zM64 299q0 38 19 64.5t47 46t61.5 34.5t61.5 30.5t47 33t19 41.5q0 20 -15.5 29t-37.5 9q-61 0 -137 -41l-29 101q35 20 84.5 34t104.5 14q33 0 63.5 -8.5 t53 -25.5t36 -42.5t13.5 -58.5q0 -41 -19.5 -70t-49 -50.5t-64 -37.5t-64 -29t-49 -25.5t-19.5 -28.5q0 -25 29 -25q28 0 54 18l21 -79q-26 -14 -53.5 -19.5t-56.5 -5.5q-50 0 -85 23.5t-35 67.5z" />
<glyph unicode="@" horiz-adv-x="690" d="M55 290q0 84 25.5 159t72 130.5t111.5 88t143 32.5q49 0 91 -11t71 -33.5t44 -57t12 -82.5l-19 -277q-2 -25 6 -43t20 -29l-1 -10l-98 -29l-26 54h-7q-47 -41 -113 -41q-26 0 -50 9.5t-42 27.5t-28.5 45.5t-10.5 63.5q0 38 13.5 70t37.5 55.5t56 36.5t69 13q20 0 42.5 -2 t39.5 -6l5 54q5 53 -27 73.5t-87 20.5q-53 0 -97.5 -25t-77.5 -67t-51.5 -98t-18.5 -118q0 -73 18 -125.5t48 -86t70 -49.5t85 -16q46 0 75.5 10t50.5 26h5l38 -84q-35 -29 -81.5 -41t-81.5 -12q-68 0 -128 22t-105.5 68t-72 116.5t-26.5 167.5zM360 287q0 -30 18 -42 t43 -12q18 0 39.5 6.5t39.5 17.5l10 109q-14 2 -32 4.5t-34 2.5q-35 0 -59.5 -21.5t-24.5 -64.5z" />
<glyph unicode="A" horiz-adv-x="680" d="M-41 6l450 674h80l114 -675l-133 -10l-22 141l-260 -7l-80 -124l-145 -9zM263 246l168 7l-28 201h-7z" />
<glyph unicode="B" horiz-adv-x="560" d="M7 -5l63 345l43 257l4 78l197 8h15q44 1 78 -9q40 -12 67 -33.5t40.5 -50t13.5 -61.5q0 -24 -6 -49t-21 -48t-41 -42.5t-66 -31.5l-1 -5q60 -14 87 -51t27 -84q0 -51 -21.5 -90.5t-59 -66.5t-88 -41.5t-109.5 -16.5zM164 120l92 3q22 1 42 7t36 18t25.5 30t9.5 41 q-1 41 -27 59q-25 17 -56 17h-3l-89 -3zM214 403l77 3q40 2 65.5 25.5t25.5 65.5q0 34 -21 51q-19 15 -44 15h-6l-70 -3z" />
<glyph unicode="C" horiz-adv-x="660" d="M36 272q0 90 33 167.5t88.5 134.5t129.5 89t156 32q74 0 128 -24.5t91 -60.5l-73 -104h-6q-22 24 -59 43t-89 19q-51 0 -96.5 -20t-80 -56t-55.5 -87t-24 -114q0 -42 13 -75t36 -56.5t54 -35.5t66 -12q53 0 99.5 18t84.5 49h6l57 -101q-48 -41 -114.5 -67t-147.5 -26 q-68 0 -123 23t-93.5 62t-59.5 91t-21 111z" />
<glyph unicode="D" horiz-adv-x="670" d="M10 -5l66 373l33 201l7 106l189 8h19q59 0 111 -16q60 -19 104.5 -57t70 -93.5t25.5 -125.5q0 -84 -33 -154.5t-89 -122t-129 -80.5t-152 -29zM167 124l82 5q48 3 92 21.5t78 51t54 78.5t20 104q0 45 -16.5 79t-42.5 56t-58 32q-27 8 -55 8h-11l-66 -4l-39 -211z" />
<glyph unicode="E" horiz-adv-x="510" d="M8 -5l66 350l35 226l8 104l412 10l-31 -124l-257 -9l-26 -148l240 10l-32 -124l-230 -10l-28 -161l277 10l-31 -124z" />
<glyph unicode="F" horiz-adv-x="490" d="M8 -5l68 371l37 216l6 93l402 10l-21 -124l-258 -7l-28 -150l233 10l-22 -124l-233 -10l-32 -198l-4 -77z" />
<glyph unicode="G" horiz-adv-x="710" d="M36 273q0 93 34.5 171t91 133.5t128.5 86.5t147 31q76 0 130.5 -24t96.5 -60l-74 -105h-9q-23 26 -61.5 44t-85.5 18q-43 0 -88 -18t-82 -53t-61 -87t-24 -120q0 -42 13.5 -75.5t37 -56t54 -34.5t64.5 -12q43 0 78.5 10t55.5 24l21 120l-153 -6l21 120l287 10l-54 -317 q-57 -38 -123.5 -63t-151.5 -25q-66 0 -120 22t-92.5 60.5t-59.5 91t-21 114.5z" />
<glyph unicode="H" horiz-adv-x="690" d="M8 -5l66 351l33 215l10 114l150 10l-52 -281l288 10l25 167l7 94l150 10l-67 -353l-26 -180l-16 -147l-150 -10l55 295l-288 -10l-22 -148l-13 -127z" />
<glyph unicode="I" horiz-adv-x="270" d="M10 -5l66 359l35 213l8 108l151 10l-66 -347l-34 -210l-10 -123z" />
<glyph unicode="J" horiz-adv-x="410" d="M-61 18l67 110q9 -11 26 -18.5t35 -7.5t37 6t35 19t28.5 33t17.5 48l41 218l27 166l5 83l147 10l-48 -263l-37 -226q-11 -62 -37 -103t-61 -66.5t-75.5 -36t-80.5 -10.5q-46 0 -76.5 10t-50.5 28z" />
<glyph unicode="K" horiz-adv-x="600" d="M8 -5l68 377l38 225l4 78l147 10l-47 -265h4l239 255l181 10v-5l-332 -337l243 -334v-4l-160 -10l-196 284h-4l-34 -203l-3 -71z" />
<glyph unicode="L" horiz-adv-x="490" d="M8 -5l70 372l34 203l8 105l145 10l-59 -324l-39 -237l269 10l-31 -124z" />
<glyph unicode="M" horiz-adv-x="850" d="M-28 -5l245 690l89 4l106 -474h6l277 470l89 4l-21 -596l9 -88l-153 -10l25 393h-5l-225 -388l-65 -5l-95 394h-5l-110 -303l-15 -81z" />
<glyph unicode="N" horiz-adv-x="750" d="M8 -5l67 370l52 313l85 4l316 -445h6l58 331l9 107l144 10l-67 -364l-52 -319l-82 -4l-319 453h-5l-57 -332l-10 -114z" />
<glyph unicode="O" horiz-adv-x="770" d="M36 278q0 87 32.5 163t88 132.5t128 89t152.5 32.5q63 0 117.5 -20.5t95 -59t64 -94t23.5 -125.5q0 -90 -32.5 -165.5t-87.5 -130t-127.5 -85t-153.5 -30.5q-66 0 -121 21.5t-94.5 60.5t-62 92.5t-22.5 118.5zM179 289q0 -43 13.5 -76t36.5 -55.5t53.5 -34t65.5 -11.5 q52 0 97.5 21.5t79 58.5t52.5 87.5t19 107.5q0 42 -12 75.5t-34 57t-53 36t-68 12.5q-48 0 -93 -21t-80 -58.5t-56 -88.5t-21 -111z" />
<glyph unicode="P" horiz-adv-x="520" d="M6 -5l70 365l38 227v88l181 8h15q34 1 68 -7q40 -10 72 -32.5t51.5 -59t19.5 -88.5q0 -55 -21.5 -100t-59 -78t-88 -52t-107.5 -22l-62 -3l-25 -154l-5 -82zM205 363l56 3q20 1 40.5 8t37.5 20t28 33t11 47q0 48 -28 70q-25 20 -61 19h-7l-41 -3z" />
<glyph unicode="Q" horiz-adv-x="770" d="M36 283q0 85 32.5 160.5t88 131t128 88t152.5 32.5q63 0 117.5 -20t95 -58t64 -92.5t23.5 -123.5q0 -86 -32.5 -158t-87.5 -123.5t-127.5 -80.5t-153.5 -29h-18l-2 -3q21 -12 42 -24.5t49 -23t65.5 -17t91.5 -6.5l-54 -121q-63 0 -108 11.5t-79 29t-61 38.5t-55 40 t-60 33.5t-76 18.5l63 89q-47 36 -72.5 89t-25.5 119zM179 294q0 -38 13.5 -67.5t36.5 -49.5t53.5 -30t65.5 -10q52 0 97.5 20t79 54.5t52.5 81t19 99.5q0 81 -46 128.5t-121 47.5q-48 0 -93 -20.5t-80 -57.5t-56 -87t-21 -109z" />
<glyph unicode="R" horiz-adv-x="570" d="M8 -5l67 356l38 237l4 87l214 9h7q32 0 66 -8q36 -10 65.5 -32.5t47 -57.5t17.5 -84q0 -41 -13 -76.5t-36.5 -64.5t-57 -49.5t-75.5 -30.5l172 -273l-1 -8l-147 -10l-156 273l-31 -2l-23 -149l-8 -107zM209 374l70 3q27 1 48 9.5t36 22.5t22.5 32.5t7.5 38.5 q-1 38 -23 62q-21 22 -52 21h-6l-68 -4z" />
<glyph unicode="S" horiz-adv-x="510" d="M-12 60l61 116q28 -28 66 -47t84 -19q50 0 76 21t26 54q0 38 -25.5 65.5t-60.5 53.5q-23 17 -46.5 35.5t-43 41.5t-31.5 51t-12 65q0 38 15 73.5t44 63.5t71.5 44.5t98.5 16.5q36 0 66.5 -7t55.5 -17.5t43.5 -23.5t30.5 -25l-58 -114q-33 29 -67.5 45.5t-76.5 16.5 q-14 0 -28 -3.5t-25.5 -10.5t-19 -19t-7.5 -28q0 -19 8.5 -35.5t23 -31.5t33 -29.5t38.5 -29.5q22 -17 43 -35.5t37.5 -41t27 -50t10.5 -61.5q0 -41 -17 -79t-50 -67t-82 -46.5t-112 -17.5q-28 0 -56.5 6t-55 16t-48.5 23.5t-37 29.5z" />
<glyph unicode="T" horiz-adv-x="560" d="M59 551l21 124l522 10l-21 -124l-189 -4l-46 -243l-32 -195l-10 -114l-144 -10l58 314l40 246z" />
<glyph unicode="U" horiz-adv-x="690" d="M48 150q-3 19 -3 38q0 25 5 49l56 317l12 121l145 10l-76 -422q-4 -20 -4 -38q-1 -10 1 -20q4 -27 17.5 -47.5t39 -32.5t64.5 -12q29 0 57.5 8t52 26.5t40.5 48t24 72.5l44 268l15 139l144 10l-75 -434q-12 -66 -41 -116t-71.5 -83.5t-96.5 -50t-115 -16.5q-79 0 -128 24 t-75 60.5t-32 80.5z" />
<glyph unicode="V" horiz-adv-x="610" d="M68 675l137 10l73 -417h5l228 407l145 9l3 -7l-392 -675l-70 -4z" />
<glyph unicode="W" horiz-adv-x="870" d="M62 675l138 10l53 -424h4l182 417l86 4l45 -421h4l192 414l145 10l3 -8l-331 -675l-93 -4l-49 389h-4l-174 -385l-93 -4z" />
<glyph unicode="X" horiz-adv-x="590" d="M-49 4l268 341l-149 330l150 10l93 -225l169 215l146 9l5 -10l-259 -329l156 -340l-150 -10l-98 236l-178 -226l-148 -9z" />
<glyph unicode="Y" horiz-adv-x="590" d="M63 675l140 10l101 -263h2l183 253l147 9l6 -8l-286 -386l-38 -215l-3 -70l-145 -10l51 295z" />
<glyph unicode="Z" horiz-adv-x="590" d="M-39 2l425 546l-2 4l-295 -13l22 126l530 20l3 -4l-433 -548l2 -5l316 13l-22 -126l-543 -20z" />
<glyph unicode="[" horiz-adv-x="370" d="M-4 -164l88 454l68 434l263 -4l-17 -98l-136 4l-66 -339l-56 -353l144 4l-18 -98z" />
<glyph unicode="\" horiz-adv-x="460" d="M37 700h92l298 -860h-92z" />
<glyph unicode="]" horiz-adv-x="370" d="M-65 -160l17 98l136 -4l66 339l56 353l-144 -4l18 98l270 4l-88 -454l-68 -434z" />
<glyph unicode="^" d="M30 314l222 377h27l221 -377l-58 -33l-172 300h-8l-175 -300z" />
<glyph unicode="_" d="M-105 -220l10 90h580l-10 -90h-580z" />
<glyph unicode="`" horiz-adv-x="500" d="M110 615l2 10h129l72 -164l-2 -8h-76z" />
<glyph unicode="a" horiz-adv-x="450" d="M-9 160q19 29 49.5 52t67 38.5t76.5 22.5q35 6 72 6h10l5 24q1 7 1 13q0 20 -14 30q-19 13 -43 13q-26 0 -58 -14t-70 -38l-42 92q40 30 95 49t109 19q35 0 66 -10t53 -30t32 -49q5 -17 5 -36q0 -14 -3 -30l-35 -183q-2 -13 -2 -25q1 -12 3 -24q6 -22 18 -32v-9l-91 -57 q-23 11 -32 28.5t-11 39.5h-5q-30 -25 -67.5 -43t-66.5 -23q-27 3 -51.5 16t-42 35.5t-25.5 54.5q-5 19 -5 41q0 14 2 29zM114 154v-7q0 -21 10 -33q12 -16 34 -20q10 1 22 4.5t23.5 9t21.5 11.5t16 11l12 69q-9 2 -19 2q-8 1 -18 -1q-20 -2 -39 -8.5t-36 -16t-27 -21.5z " />
<glyph unicode="b" horiz-adv-x="490" d="M-6 56l93 540l5 84l143 12l-56 -290h4q10 11 26 22t34.5 20.5t38 15.5t36.5 8q57 -14 94 -57.5t37 -122.5q0 -63 -19 -118t-54.5 -96.5t-86 -65t-114.5 -23.5q-53 0 -96 18t-85 53zM132 117q10 -10 27 -16.5t33 -6.5q24 0 46 12.5t38.5 34.5t26 52t9.5 65q0 31 -13.5 54 t-37.5 32q-13 -1 -27.5 -6t-28 -13t-25 -18t-18.5 -20z" />
<glyph unicode="c" horiz-adv-x="400" d="M-1 170q0 69 22 124.5t58.5 93.5t83 58.5t95.5 20.5q48 0 84 -15t60 -37l-58 -94h-4q-19 20 -40.5 28t-42.5 8q-24 0 -46 -13.5t-39.5 -37t-28 -54.5t-10.5 -66q0 -48 24 -69.5t53 -21.5q53 0 102 35h4l38 -94q-31 -23 -75.5 -37t-86.5 -14q-47 0 -83 14.5t-60.5 40 t-37 59t-12.5 71.5z" />
<glyph unicode="d" horiz-adv-x="490" d="M-1 163q0 67 19 122.5t50.5 96t73.5 63t89 22.5q34 0 60 -14t36 -31h4l9 53l33 205l138 12l-65 -358l-39 -248l-4 -81l-108 -10l-8 72h-5q-23 -26 -61.5 -50.5t-83.5 -32.5q-27 4 -52 17.5t-44 36.5t-30.5 54.5t-11.5 70.5zM135 190q0 -32 12.5 -53t38.5 -29q13 1 27.5 7 t28.5 14.5t26.5 18.5t21.5 20l25 148q-11 17 -28.5 27.5t-39.5 10.5q-23 0 -43.5 -12.5t-35.5 -34.5t-24 -52t-9 -65z" />
<glyph unicode="e" horiz-adv-x="450" d="M-1 164q0 63 22 118.5t57.5 96.5t80.5 64.5t92 23.5q45 0 80.5 -17.5t57 -47.5t27.5 -69q2 -13 2 -26q0 -27 -8 -56q-22 -17 -57 -31t-74 -23.5t-79 -13.5q-27 -3 -50 -3q-12 0 -23 1v-10q0 -19 6 -33q8 -17 20.5 -26.5t28 -13t29.5 -3.5q29 0 63.5 11t60.5 31h4l38 -92 q-32 -26 -84.5 -43t-105.5 -17q-34 0 -67.5 10t-60.5 31.5t-43.5 55.5t-16.5 82zM139 262q10 0 20 -1q34 0 67 6q43 7 74 23v6q0 25 -16 43q-18 20 -47 20q-32 0 -60.5 -26.5t-37.5 -70.5z" />
<glyph unicode="f" horiz-adv-x="320" d="M19 -93l75 434h-74l15 87l80 32l7 40q5 30 19.5 59.5t35.5 54.5t48 43t57 25h93v-77q-48 -10 -83 -43t-43 -78l-6 -31h82l-19 -102l-82 -10l-61 -346l-4 -78z" />
<glyph unicode="g" horiz-adv-x="490" d="M-20 -154l57 106q27 -23 54 -32.5t59 -9.5q18 0 37.5 5t36.5 16.5t29.5 30.5t16.5 47l10 72h-5q-11 -14 -28.5 -26.5t-36.5 -23t-38.5 -17.5t-34.5 -10q-30 7 -55.5 19t-44 32t-28.5 48t-10 67q0 55 18 108.5t50 95.5t76 67.5t95 25.5q29 0 59 -15t47 -42h6l17 50l101 -7 l-53 -305l-22 -141q-10 -63 -35.5 -104t-61 -65.5t-77.5 -34.5t-85 -10q-46 0 -87 15t-67 38zM135 200q0 -29 14.5 -46t35.5 -26q28 5 56.5 22t49.5 43l24 128q-8 14 -24 23.5t-34 9.5q-27 0 -49.5 -12.5t-38.5 -33.5t-25 -49t-9 -59z" />
<glyph unicode="h" horiz-adv-x="480" d="M-15 -5l56 307l44 294l5 84l148 12l-54 -293h6q26 30 59 49t80 19q24 0 46 -8.5t37.5 -26.5t21.5 -46q3 -14 4 -31q0 -18 -4 -38l-40 -228l-5 -84l-143 -10l50 275q3 16 3 28q-1 18 -7 28q-10 18 -36 18q-25 0 -48 -15t-42 -36l-31 -201l-5 -87z" />
<glyph unicode="i" horiz-adv-x="230" d="M-9 -5l61 352l6 93l143 16l-65 -373l-5 -78zM78 609q0 33 23 56t56 23t56 -23t23 -56t-23 -56t-56 -23t-56 23t-23 56z" />
<glyph unicode="j" horiz-adv-x="230" d="M-81 -170q22 22 42 60t30 102l63 361l5 87l143 16l-82 -468q-13 -72 -30.5 -113.5t-44.5 -68.5l-124 -13zM78 609q0 33 23 56t56 23t56 -23t23 -56t-23 -56t-56 -23t-56 23t-23 56z" />
<glyph unicode="k" horiz-adv-x="440" d="M-15 -5l105 616l2 69l143 12l-64 -371h7l118 127l157 10l4 -6l-225 -224l163 -216l-1 -7l-152 -10l-95 158h-6l-14 -82l-2 -66z" />
<glyph unicode="l" horiz-adv-x="230" d="M-12 -5l62 333l40 256l7 96l147 12l-63 -334l-44 -274l-5 -79z" />
<glyph unicode="m" horiz-adv-x="750" d="M-15 -5l65 373l4 80l120 10l3 -64h6q29 32 66.5 52.5t80.5 20.5q34 0 64.5 -22t39.5 -58h5q36 42 75.5 61t80.5 19q27 0 50.5 -9t39 -28t21.5 -50q2 -13 2 -27q0 -21 -5 -47l-41 -230l-3 -71l-140 -10l49 284q2 10 2 18q0 21 -11 32q-15 15 -32 15q-29 0 -54.5 -16 t-39.5 -36l-37 -210l-4 -77l-140 -10l48 279q2 10 2 18q0 10 -2 16q-3 14 -9.5 21.5t-15.5 11t-17 3.5q-25 0 -50 -15t-42 -37l-36 -201l-5 -86z" />
<glyph unicode="n" horiz-adv-x="480" d="M-15 -5l60 343l9 110l120 10l2 -64h6q27 33 63.5 53t78.5 20q26 0 49 -10t39 -29t22 -47q3 -15 3 -31q0 -15 -3 -33l-39 -224l-6 -88l-140 -10l47 275q3 15 3 27q-1 21 -9 31q-12 16 -34 16q-23 0 -47 -14t-43 -37l-36 -202l-5 -86z" />
<glyph unicode="o" horiz-adv-x="490" d="M-1 164q0 63 19 118t54.5 96.5t84.5 65t109 23.5q41 0 74.5 -14.5t57.5 -39t37.5 -58.5t13.5 -73q0 -61 -19.5 -115t-54.5 -94.5t-84 -64t-107 -23.5q-38 0 -72 13t-59 37t-39.5 57t-14.5 72zM133 186q0 -42 19 -65t51 -23q26 0 47 15.5t35.5 40t22 54t7.5 57.5 q0 38 -16.5 63.5t-51.5 25.5q-24 0 -44.5 -14.5t-36 -38.5t-24.5 -54t-9 -61z" />
<glyph unicode="p" horiz-adv-x="490" d="M-51 -204l102 583l3 74l111 7l1 -67h4q11 12 27.5 24.5t36 23t40 18t40.5 9.5q62 -11 98.5 -58t36.5 -118q0 -86 -25 -144.5t-60.5 -94.5t-74 -52t-66.5 -16q-38 0 -60.5 14t-39.5 37h-5l-22 -142l-5 -86zM135 135q6 -15 21 -26t39 -11q17 0 37.5 11.5t38 33t29.5 51.5 t12 67t-16 57.5t-33 25.5q-26 0 -55.5 -18t-46.5 -42z" />
<glyph unicode="q" horiz-adv-x="490" d="M-1 159q0 75 21.5 132.5t55.5 96.5t76.5 59t84.5 20q38 0 64 -18t45 -44h4l25 54l96 -6l-101 -579l-5 -66l-141 -12l51 259h-5q-11 -11 -27.5 -22.5t-35 -21.5t-37.5 -17t-35 -10q-25 4 -49.5 17t-43.5 35t-31 52.5t-12 70.5zM136 186q0 -31 13.5 -52t38.5 -26q11 1 25 7 t28 14.5t26.5 19t19.5 19.5l27 148q-11 19 -28 28.5t-34 9.5q-15 0 -35 -8t-38 -27t-30.5 -51.5t-12.5 -81.5z" />
<glyph unicode="r" horiz-adv-x="320" d="M-15 -5l61 353l8 100l106 10l-2 -103h5q27 51 67.5 79t78.5 28h15l-27 -153h-32q-23 0 -43 -11t-35.5 -28t-25.5 -39t-14 -44l-20 -118l-2 -64z" />
<glyph unicode="s" horiz-adv-x="370" d="M-36 55l60 92q20 -21 50.5 -36t58.5 -15q24 0 38 6.5t14 23.5q0 14 -12 26t-30 23t-38.5 23.5t-38.5 28.5t-30 36t-12 47q0 37 14.5 66t38.5 49t54 31t61 11q48 0 90.5 -20.5t74.5 -55.5l-66 -84q-18 19 -44.5 35.5t-55.5 16.5q-19 0 -29 -10t-10 -24t11.5 -25t29.5 -22 t38 -23t38 -28t29.5 -38t11.5 -53q0 -42 -17.5 -71t-44.5 -46.5t-58.5 -25.5t-58.5 -8q-56 0 -96.5 19t-70.5 51z" />
<glyph unicode="t" horiz-adv-x="310" d="M14 341l15 87l86 30l10 115l144 36l-30 -158l82 2l-19 -103l-82 -8l-40 -239l-8 -98l-140 -10l62 348z" />
<glyph unicode="u" horiz-adv-x="480" d="M8 77q-3 13 -3 29q0 20 5 44l35 198l8 100l140 10l-49 -271q-3 -16 -3 -28q1 -21 9 -33q14 -18 41 -18q23 0 47 16t41 46l31 183l7 95l140 10l-66 -381l-3 -72l-115 -10l-3 64h-6q-27 -30 -64.5 -52t-81.5 -22q-27 0 -50 10t-38.5 30.5t-21.5 51.5z" />
<glyph unicode="v" horiz-adv-x="440" d="M26 448l129 10l37 -241h6l113 231l140 10l1 -6l-248 -450l-90 -4z" />
<glyph unicode="w" horiz-adv-x="640" d="M15 448l129 10l37 -255h5l102 248l97 4l21 -252h5l112 245l137 10l2 -5l-241 -451l-96 -4l-18 231h-6l-100 -227l-98 -4z" />
<glyph unicode="x" horiz-adv-x="440" d="M-50 2l186 226l-112 220l144 10l47 -121l83 111l142 9l3 -6l-180 -219l117 -227l-145 -10l-51 128l-89 -118l-141 -9z" />
<glyph unicode="y" horiz-adv-x="440" d="M-42 -171q22 18 41 38t36 44.5t33.5 54.5t33.5 68l-76 414l128 10l38 -249h6l112 239l142 10l3 -3l-257 -476l-85 -171l-152 -15z" />
<glyph unicode="z" horiz-adv-x="420" d="M-42 2l240 332l-2 3l-170 -8l25 114l370 15l2 -5l-248 -333l1 -3l184 9l-24 -116l-375 -15z" />
<glyph unicode="{" horiz-adv-x="370" d="M13 244l15 85q34 0 57 10.5t37.5 27.5t21 39t6.5 45q0 26 -3 49.5t-3 49.5q0 47 13 79.5t45 52.5t86.5 29t137.5 9l-15 -88q-41 0 -69 -4t-45 -15t-24.5 -31.5t-7.5 -54.5q0 -32 4.5 -57t4.5 -50q0 -48 -40 -82t-101 -44l-2 -10q45 -4 75.5 -25.5t30.5 -58.5 q0 -22 -11 -47.5t-24 -53t-24 -57t-11 -59.5q0 -13 5 -23.5t18.5 -17.5t37 -10.5t59.5 -3.5l-16 -88q-68 -4 -115 5t-75.5 27.5t-38.5 47t-3 63.5q5 24 15.5 48.5t21.5 49t19.5 48t8.5 46.5q0 34 -25 51.5t-66 17.5z" />
<glyph unicode="|" d="M216 -230v980h98v-980h-98z" />
<glyph unicode="}" horiz-adv-x="370" d="M-76 -162l15 88q41 0 69 3.5t45 15t24.5 32t7.5 54.5q0 32 -4.5 57t-4.5 50q0 24 10.5 44.5t29.5 37t45 28t56 16.5l2 10q-45 4 -75.5 25.5t-30.5 58.5q0 22 11 47.5t24 53t24 57t11 59.5q0 13 -5 23.5t-18.5 17.5t-37 10.5t-59.5 3.5l16 88q67 4 114.5 -5t76 -27.5 t38.5 -47t3 -63.5q-5 -24 -15.5 -48.5t-21.5 -49t-19.5 -48t-8.5 -46.5q0 -34 25 -51.5t66 -17.5l-15 -85q-34 0 -57 -10.5t-37.5 -27.5t-21 -39t-6.5 -45q0 -26 3 -49.5t3 -49.5q0 -47 -13 -79.5t-45 -52.5t-86.5 -29t-137.5 -9z" />
<glyph unicode="~" d="M32 203q0 40 11.5 71.5t30.5 53t44.5 32.5t52.5 11q34 0 60 -15.5t48.5 -34t42.5 -34t43 -15.5q32 0 50.5 29t18.5 68h68q0 -36 -10 -67t-28 -53.5t-43.5 -35t-56.5 -12.5q-35 0 -60.5 15.5t-47 33.5t-41.5 33.5t-44 15.5q-33 0 -54 -27.5t-21 -68.5h-64z" />
<glyph horiz-adv-x="0" />
<glyph unicode="&#xa1;" horiz-adv-x="310" d="M-24 -215l76 238l63 226l87 5l-42 -230l-41 -231l-141 -10zM106 398q0 32 22.5 54.5t54.5 22.5t54.5 -22.5t22.5 -54.5t-22.5 -54.5t-54.5 -22.5t-54.5 22.5t-22.5 54.5z" />
<glyph unicode="&#xa2;" horiz-adv-x="430" d="M25 282q0 61 23.5 113.5t61 91.5t85.5 61.5t96 23.5l29 101l54 -10l-27 -95q29 -5 50.5 -16.5t41.5 -27.5l-52 -94q-17 15 -32.5 24.5t-35.5 13.5l-76 -270q29 2 57.5 14t51.5 27l28 -90q-26 -20 -70.5 -36.5t-95.5 -16.5l-30 -109l-54 10l29 105q-62 15 -98 62.5 t-36 117.5zM147 288q0 -32 11 -51t31 -29l73 258q-23 -6 -44 -21.5t-36.5 -39t-25 -53t-9.5 -64.5z" />
<glyph unicode="&#xa3;" horiz-adv-x="500" d="M-9 65q39 28 65.5 59.5t43 64t23.5 65.5t7 64h-74l15 65h56q-2 24 -4.5 47.5t-2.5 46.5q0 59 21 100.5t55 67.5t77 38t87 12q52 0 93 -14t67 -36l-59 -100q-14 14 -42.5 25.5t-65.5 11.5q-46 0 -74.5 -28t-28.5 -91q0 -20 2 -40t5 -40h133l-15 -65h-112v-10 q0 -24 -4.5 -47.5t-17.5 -46t-36 -43.5t-60 -42l6 -10q11 6 27 12t34 6q24 0 39 -5t28 -10.5t27 -10.5t37 -5t44 5.5t48 21.5l6 -2l-3 -106q-12 -9 -27.5 -15.5t-31 -11t-30 -6.5t-26.5 -2q-26 0 -43.5 6.5t-34.5 14.5t-36 14.5t-47 6.5q-38 0 -76.5 -14t-67.5 -28z" />
<glyph unicode="&#xa4;" horiz-adv-x="620" d="M84 464.5q4 12.5 13.5 22.5t22 14.5t20.5 -3.5l46 -47q27 20 60 31t69 11t68 -10t58 -29l43 45q8 9 21.5 3.5t24.5 -17t16 -25t-3 -21.5l-45 -43q18 -26 28 -57.5t10 -66.5q0 -37 -11 -69.5t-31 -60.5l48 -46q9 -9 5 -21.5t-13.5 -23t-22 -15t-20.5 4.5l-50 50 q-55 -40 -126 -40q-35 0 -66.5 9.5t-57.5 26.5l-42 -44q-9 -9 -22.5 -5t-25 14.5t-16 23.5t4.5 22l44 43q-40 55 -40 131q0 35 10.5 67.5t29.5 59.5l-45 44q-9 9 -5 21.5zM164 271q0 -35 11 -64t30.5 -51t47.5 -34t63 -12q31 0 58.5 12t47 34t31 51t11.5 64q0 36 -11.5 66 t-31.5 51t-47 33t-59 12q-36 0 -64 -12.5t-47.5 -34.5t-29.5 -51.5t-10 -63.5z" />
<glyph unicode="&#xa5;" horiz-adv-x="580" d="M70 675l141 10l96 -263h2l169 253l151 9l4 -5l-282 -389l-1 -3h93l-11 -65h-94l-7 -39h94l-12 -65h-93l-7 -39l-3 -74l-145 -10l21 123h-95l12 65h94l7 39h-94l11 65h94l1 3z" />
<glyph unicode="&#xa6;" d="M216 120h98v-350h-98v350zM216 400v350h98v-350h-98z" />
<glyph unicode="&#xa7;" horiz-adv-x="570" d="M-12 -103l49 102q32 -23 79 -40t98 -17q45 0 74 17t29 50q0 48 -122 97q-66 26 -104 66t-38 97q0 42 25 87t73 80q-45 38 -45 91q0 30 14 60t42 54t70.5 39t100.5 15q31 0 59 -5t53 -13.5t45 -18.5t35 -20l-51 -97q-15 11 -33.5 20.5t-38 16.5t-39 11t-36.5 4 q-48 0 -71.5 -14.5t-23.5 -36.5q0 -19 23.5 -38.5t85.5 -45.5q46 -19 76.5 -40t49 -43.5t26.5 -47t8 -50.5q0 -48 -24 -90t-70 -72q36 -42 36 -93q0 -47 -20 -81.5t-53 -57t-75 -33.5t-85 -11q-78 0 -137 18.5t-85 39.5zM180 294q0 -12 5.5 -25.5t19.5 -27.5t37.5 -28.5 t60.5 -29.5l32 -15q20 19 28.5 43t8.5 46q0 30 -20 55t-71 49l-52 25q-23 -19 -36 -43t-13 -49z" />
<glyph unicode="&#xa8;" horiz-adv-x="500" d="M104 524q0 26 19.5 45t44.5 19q26 0 44.5 -19t18.5 -45q0 -25 -18.5 -43.5t-44.5 -18.5q-25 0 -44.5 18.5t-19.5 43.5zM281 524q0 26 19 45t45 19q12 0 23 -5t20 -14t14.5 -20.5t5.5 -24.5q0 -12 -5.5 -23.5t-14.5 -20t-20 -13.5t-23 -5q-26 0 -45 18.5t-19 43.5z" />
<glyph unicode="&#xa9;" horiz-adv-x="790" d="M83 323q0 64 24.5 121t67.5 99.5t99.5 67t121.5 24.5q67 0 124.5 -24.5t98.5 -67t64.5 -99.5t23.5 -121q0 -65 -22.5 -121.5t-63.5 -99.5t-98.5 -67.5t-126.5 -24.5q-65 0 -121.5 23t-99.5 64.5t-67.5 99t-24.5 126.5zM142 321q0 -56 19.5 -103t53.5 -81t80.5 -53 t101.5 -19q54 0 100 19t79.5 53t52.5 81t19 103q0 58 -19.5 106t-53.5 82.5t-80 53.5t-99 19t-99 -19.5t-80.5 -54.5t-54.5 -82.5t-20 -104.5zM228 320q0 43 14.5 77t38.5 57.5t56 36t68 12.5q38 0 70 -11.5t49 -22.5l-16 -61q-6 3 -16 8.5t-23.5 11t-30 9t-34.5 3.5 q-20 0 -39.5 -7t-34.5 -21.5t-24 -36.5t-9 -53q0 -48 30 -79.5t78 -31.5q33 0 59 10.5t49 24.5l18 -60q-22 -16 -56 -27t-71 -11q-39 0 -71.5 13.5t-56 37t-36 54.5t-12.5 67z" />
<glyph unicode="&#xaa;" horiz-adv-x="360" d="M24 432q16 24 40.5 42.5t54 31t63 18.5t66.5 5l4 19q6 25 -10 35.5t-36 10.5q-21 0 -47 -11t-57 -31l-34 75q32 24 77 39.5t89 15.5q28 0 53.5 -8.5t43 -24.5t26 -39.5t2.5 -53.5l-29 -149q-5 -23 0 -40.5t15 -25.5v-8l-78 -46q-19 8 -26 23t-9 32h-4q-19 -27 -47.5 -40 t-57.5 -13q-54 0 -81 38t-18 105zM126 427q-2 -29 11 -41.5t31 -12.5q6 0 17 3t21.5 12.5t19 27.5t10.5 48q-28 4 -60.5 -6.5t-49.5 -30.5z" />
<glyph unicode="&#xab;" horiz-adv-x="620" d="M46 219l2 9l257 231l51 -53l-185 -190l92 -175l-64 -45zM256 219l2 9l257 231l51 -53l-185 -190l92 -175l-64 -45z" />
<glyph unicode="&#xac;" d="M33 245v68h457v-261h-68v193h-389z" />
<glyph unicode="&#xad;" horiz-adv-x="340" d="M22 176l10 117l250 10l-10 -117z" />
<glyph unicode="&#xae;" horiz-adv-x="560" d="M56 471q0 48 17.5 89t48 71t71.5 47t87 17q48 0 89 -17t71 -47t47 -71t17 -89t-17.5 -89t-48 -71t-71.5 -47t-87 -17t-87 16t-71.5 45.5t-48 70.5t-17.5 92zM108 470q0 -39 13 -71t36 -55t54.5 -35.5t69.5 -12.5q35 0 66 12.5t54.5 35.5t37 55t13.5 71t-13.5 71.5 t-37 55.5t-55 36t-66.5 13q-40 0 -71.5 -14t-54 -38t-34.5 -56t-12 -68zM197 354v249h83q42 0 64.5 -18.5t22.5 -53.5q0 -26 -15.5 -45.5t-45.5 -24.5l87 -103v-4h-54l-85 104h-8v-104h-49zM246 501h40q14 0 23 7t9 23q0 15 -10 22t-25 7h-37v-59z" />
<glyph unicode="&#xaf;" horiz-adv-x="500" d="M148 483v85h244v-85h-244z" />
<glyph unicode="&#xb0;" horiz-adv-x="370" d="M63 551q0 30 11.5 56t31 45.5t45.5 31t55 11.5q30 0 56 -11.5t45.5 -31t31 -45.5t11.5 -56q0 -29 -11.5 -55t-31 -45.5t-45.5 -31t-56 -11.5q-29 0 -55 11.5t-45.5 31t-31 45.5t-11.5 55zM131 551q0 -33 20.5 -57.5t53.5 -24.5q34 0 55 24.5t21 57.5q0 34 -21 59t-55 25 q-33 0 -53.5 -25t-20.5 -59z" />
<glyph unicode="&#xb1;" d="M43 28v80h444v-80h-444zM43 351v80h182v192h80v-192h182v-80h-182v-192h-80v192h-182z" />
<glyph unicode="&#xb2;" horiz-adv-x="290" d="M26 410l3 38q57 45 98 78.5t68 61t39.5 50t12.5 45.5q0 17 -12 25.5t-32 8.5t-45.5 -10t-45.5 -21l-18 70q7 5 20.5 12t31 13.5t38 11t42.5 4.5q48 0 80.5 -21t32.5 -71q0 -46 -43 -101.5t-125 -110.5l2 -4l129 12l-14 -81z" />
<glyph unicode="&#xb3;" horiz-adv-x="290" d="M49 427l18 75h2q20 -9 42.5 -13.5t44.5 -4.5q26 0 47.5 10.5t21.5 36.5q0 18 -12.5 28t-35.5 10l-67 -3l19 76l58 -3q25 -1 41.5 14t16.5 32q0 19 -13.5 26.5t-33.5 7.5q-21 0 -40 -6.5t-31 -13.5h-4l-20 70q18 8 49.5 18t74.5 10q48 0 79 -21t31 -63q0 -41 -24 -68.5 t-62 -38.5l-1 -5q27 -9 44.5 -27t17.5 -47q0 -25 -11 -46.5t-32 -38t-52 -26t-71 -9.5q-33 0 -56 5t-41 15z" />
<glyph unicode="&#xb4;" horiz-adv-x="500" d="M187 453l2 8l120 164h139l-2 -10l-178 -162h-81z" />
<glyph unicode="&#xb5;" d="M34 -157q0 15 1.5 46t3 71.5t3 87.5t1.5 93v9v303h130v-266q0 -42 15 -60.5t43 -18.5q23 0 44 16t32 46v283h130v-342q0 -14 4.5 -23.5t16.5 -9.5q8 0 14.5 11.5t9.5 22.5l38 -11q-21 -66 -50.5 -88.5t-67.5 -22.5q-10 0 -21.5 2t-23.5 8.5t-23 19.5t-19 34h-6 q-21 -28 -54 -48.5t-75 -20.5q-34 0 -61 13q5 -47 10.5 -86.5t5.5 -60.5q0 -19 -5 -31t-12.5 -18.5t-16.5 -8.5t-18 -2q-26 0 -37.5 15t-11.5 37z" />
<glyph unicode="&#xb6;" horiz-adv-x="640" d="M60 421q0 59 22.5 107t60.5 81.5t87.5 52t103.5 18.5h334l-14 -82h-59l-119 -672l-4 -78l-110 -10l133 760h-55l-120 -674l-3 -76l-110 -10l70 405q-48 0 -88 12t-68.5 35t-44.5 56t-16 75zM206 424q0 -43 22 -68.5t65 -25.5l47 268q-26 0 -50 -13t-43 -36t-30 -55 t-11 -70z" />
<glyph unicode="&#xb7;" horiz-adv-x="270" d="M54 277q0 32 22.5 54.5t54.5 22.5t54.5 -22.5t22.5 -54.5t-22.5 -54.5t-54.5 -22.5t-54.5 22.5t-22.5 54.5z" />
<glyph unicode="&#xb8;" horiz-adv-x="500" d="M152 -95l77 115h67l-53 -75q19 0 37 -3.5t31.5 -12t22 -21.5t8.5 -31q0 -38 -49.5 -65.5t-137.5 -35.5l-1 45q37 5 64.5 18t27.5 33q0 14 -17 21t-43 7q-6 0 -15.5 -0.5t-15.5 -1.5z" />
<glyph unicode="&#xb9;" horiz-adv-x="290" d="M115 705l11 76l144 15l8 -7l-52 -297l-3 -73l-95 -8l51 300z" />
<glyph unicode="&#xba;" horiz-adv-x="400" d="M35 436q0 51 15.5 96t44 78t68.5 52.5t89 19.5q33 0 60 -11.5t46.5 -32t30.5 -48t11 -58.5q0 -50 -15.5 -93.5t-44 -76.5t-68 -52t-87.5 -19q-31 0 -58.5 10.5t-47.5 30t-32 46t-12 58.5zM144 454q0 -34 15 -52.5t41 -18.5q21 0 38 12.5t29 32t18 43.5t6 47q0 32 -13 52 t-42 20q-19 0 -36 -12t-29.5 -31t-19.5 -43.5t-7 -49.5z" />
<glyph unicode="&#xbb;" horiz-adv-x="620" d="M24 49l185 190l-92 175l64 45l153 -223l-2 -9l-257 -231zM234 49l185 190l-92 175l64 45l153 -223l-2 -9l-257 -231z" />
<glyph unicode="&#xbc;" horiz-adv-x="740" d="M42 -19l308 364l288 358l46 -31l-299 -349l-298 -375zM125 605l11 76l144 15l8 -7l-52 -297l-3 -73l-95 -8l51 300zM344 53v43l177 232l100 10l-35 -203l40 2l-13 -74l-40 -2l-9 -44l-3 -52l-90 -10l18 103zM437 127l1 -2l64 3l21 117l-2 1z" />
<glyph unicode="&#xbd;" horiz-adv-x="740" d="M42 -19l308 364l288 358l46 -31l-299 -349l-298 -375zM125 605l11 76l144 15l8 -7l-52 -297l-3 -73l-95 -8l51 300zM348 -45l3 38q57 45 98 78.5t68 61t39.5 50t12.5 45.5q0 17 -12 25.5t-32 8.5t-45.5 -10t-45.5 -21l-18 70q7 5 20.5 12t31 13.5t38 11t42.5 4.5 q48 0 80.5 -21t32.5 -71q0 -46 -43 -101.5t-125 -110.5l2 -4l129 12l-14 -81z" />
<glyph unicode="&#xbe;" horiz-adv-x="740" d="M42 -19l308 364l288 358l46 -31l-299 -349l-298 -375zM59 327l18 75h2q20 -9 42.5 -13.5t44.5 -4.5q26 0 47.5 10.5t21.5 36.5q0 18 -12.5 28t-35.5 10l-67 -3l19 76l58 -3q25 -1 41.5 14t16.5 32q0 19 -13.5 26.5t-33.5 7.5q-21 0 -40 -6.5t-31 -13.5h-4l-20 70 q18 8 49.5 18t74.5 10q48 0 79 -21t31 -63q0 -41 -24 -68.5t-62 -38.5l-1 -5q27 -9 44.5 -27t17.5 -47q0 -25 -11 -46.5t-32 -38t-52 -26t-71 -9.5q-33 0 -56 5t-41 15zM344 53v43l177 232l100 10l-35 -203l40 2l-13 -74l-40 -2l-9 -44l-3 -52l-90 -10l18 103zM437 127l1 -2 l64 3l21 117l-2 1z" />
<glyph unicode="&#xbf;" horiz-adv-x="450" d="M-5 18q0 41 19.5 70t49 50.5t64 37.5t64 29t49 25.5t19.5 28.5q0 25 -29 25t-54 -18l-21 79q26 14 53.5 19.5t56.5 5.5q50 0 85 -23.5t35 -67.5q0 -38 -19 -64.5t-47 -46t-61.5 -34.5t-61.5 -30.5t-47 -33t-19 -41.5q0 -20 15.5 -29t37.5 -9q61 0 137 41l29 -101 q-35 -20 -84.5 -34t-104.5 -14q-33 0 -63.5 8.5t-53 25.5t-36 42.5t-13.5 58.5zM246 508q0 32 22.5 54.5t54.5 22.5t54.5 -22.5t22.5 -54.5t-22.5 -54.5t-54.5 -22.5t-54.5 22.5t-22.5 54.5z" />
<glyph unicode="&#xc0;" horiz-adv-x="680" d="M-41 6l450 674h80l114 -675l-133 -10l-22 141l-260 -7l-80 -124l-145 -9zM263 246l168 7l-28 201h-7zM326 862l2 10h129l79 -124l-1 -8h-76z" />
<glyph unicode="&#xc1;" horiz-adv-x="680" d="M-41 6l450 674h80l114 -675l-133 -10l-22 141l-260 -7l-80 -124l-145 -9zM263 246l168 7l-28 201h-7zM386 740l1 8l113 124h139l-2 -10l-170 -122h-81z" />
<glyph unicode="&#xc2;" horiz-adv-x="680" d="M-41 6l450 674h80l114 -675l-133 -10l-22 141l-260 -7l-80 -124l-145 -9zM263 246l168 7l-28 201h-7zM323 740l1 8l154 124h61l98 -124l-1 -8h-77l-64 53l-87 -53h-85z" />
<glyph unicode="&#xc3;" horiz-adv-x="680" d="M-41 6l450 674h80l114 -675l-133 -10l-22 141l-260 -7l-80 -124l-145 -9zM263 246l168 7l-28 201h-7zM318 747q0 63 29 96.5t70 33.5q20 0 36 -8.5t29 -18.5t24.5 -18.5t23.5 -8.5q17 0 26 16t9 36h70q0 -26 -7 -49.5t-20 -41.5t-31 -28.5t-40 -10.5q-21 0 -36.5 8.5 t-27.5 18t-23 18t-24 8.5q-19 0 -29.5 -15t-10.5 -36h-68z" />
<glyph unicode="&#xc4;" horiz-adv-x="680" d="M-41 6l450 674h80l114 -675l-133 -10l-22 141l-260 -7l-80 -124l-145 -9zM263 246l168 7l-28 201h-7zM319 801q0 26 19.5 45t44.5 19q26 0 44.5 -19t18.5 -45q0 -25 -18.5 -43.5t-44.5 -18.5q-25 0 -44.5 18.5t-19.5 43.5zM496 801q0 26 19 45t45 19q12 0 23 -5t20 -14 t14.5 -20.5t5.5 -24.5q0 -12 -5.5 -23.5t-14.5 -20t-20 -13.5t-23 -5q-26 0 -45 18.5t-19 43.5z" />
<glyph unicode="&#xc5;" horiz-adv-x="680" d="M-41 6l450 674h80l114 -675l-133 -10l-22 141l-260 -7l-80 -124l-145 -9zM263 246l168 7l-28 201h-7zM364 834q0 24 9 44.5t24 35.5t35.5 24t44.5 9t44.5 -9t35.5 -24t24 -35.5t9 -44.5t-9 -44.5t-24 -35.5t-35.5 -24t-44.5 -9t-44.5 9t-35.5 24t-24 35.5t-9 44.5z M430 834q0 -21 12.5 -35.5t33.5 -14.5q20 0 33.5 14.5t13.5 35.5q0 20 -13.5 36t-33.5 16q-21 0 -33.5 -16t-12.5 -36z" />
<glyph unicode="&#xc6;" horiz-adv-x="900" d="M-41 6l539 669h9l412 10l-31 -124l-257 -9l-26 -148l240 10l-32 -124l-230 -10l-28 -161l277 10l-31 -124l-403 -10l26 141l-210 -6l-96 -125l-155 -9zM303 247l143 6l18 92l23 134h-12z" />
<glyph unicode="&#xc7;" horiz-adv-x="660" d="M36 272q0 90 33 167.5t88.5 134.5t129.5 89t156 32q74 0 128 -24.5t91 -60.5l-73 -104h-6q-22 24 -59 43t-89 19q-51 0 -96.5 -20t-80 -56t-55.5 -87t-24 -114q0 -42 13 -75t36 -56.5t54 -35.5t66 -12q53 0 99.5 18t84.5 49h6l57 -101q-44 -37 -102.5 -62t-130.5 -30 l-29 -41q19 0 37 -3.5t31.5 -12t22 -21.5t8.5 -31q0 -38 -49.5 -65.5t-137.5 -35.5l-1 45q37 5 64.5 18t27.5 33q0 14 -17 21t-43 7q-6 0 -15.5 -0.5t-15.5 -1.5l-3 7l54 82q-60 6 -108.5 30.5t-82 62.5t-51.5 87.5t-18 104.5z" />
<glyph unicode="&#xc8;" horiz-adv-x="510" d="M8 -5l66 350l35 226l8 104l412 10l-31 -124l-257 -9l-26 -148l240 10l-32 -124l-230 -10l-28 -161l277 10l-31 -124zM186 862l2 10h129l79 -124l-1 -8h-76z" />
<glyph unicode="&#xc9;" horiz-adv-x="510" d="M8 -5l66 350l35 226l8 104l412 10l-31 -124l-257 -9l-26 -148l240 10l-32 -124l-230 -10l-28 -161l277 10l-31 -124zM246 740l1 8l113 124h139l-2 -10l-170 -122h-81z" />
<glyph unicode="&#xca;" horiz-adv-x="510" d="M8 -5l66 350l35 226l8 104l412 10l-31 -124l-257 -9l-26 -148l240 10l-32 -124l-230 -10l-28 -161l277 10l-31 -124zM183 740l1 8l154 124h61l98 -124l-1 -8h-77l-64 53l-87 -53h-85z" />
<glyph unicode="&#xcb;" horiz-adv-x="510" d="M8 -5l66 350l35 226l8 104l412 10l-31 -124l-257 -9l-26 -148l240 10l-32 -124l-230 -10l-28 -161l277 10l-31 -124zM179 801q0 26 19.5 45t44.5 19q26 0 44.5 -19t18.5 -45q0 -25 -18.5 -43.5t-44.5 -18.5q-25 0 -44.5 18.5t-19.5 43.5zM356 801q0 26 19 45t45 19 q12 0 23 -5t20 -14t14.5 -20.5t5.5 -24.5q0 -12 -5.5 -23.5t-14.5 -20t-20 -13.5t-23 -5q-26 0 -45 18.5t-19 43.5z" />
<glyph unicode="&#xcc;" horiz-adv-x="270" d="M10 -5l66 359l35 213l8 108l151 10l-66 -347l-34 -210l-10 -123zM61 862l2 10h129l79 -124l-1 -8h-76z" />
<glyph unicode="&#xcd;" horiz-adv-x="270" d="M10 -5l66 359l35 213l8 108l151 10l-66 -347l-34 -210l-10 -123zM121 740l1 8l113 124h139l-2 -10l-170 -122h-81z" />
<glyph unicode="&#xce;" horiz-adv-x="270" d="M10 -5l66 359l35 213l8 108l151 10l-66 -347l-34 -210l-10 -123zM58 740l1 8l154 124h61l98 -124l-1 -8h-77l-64 53l-87 -53h-85z" />
<glyph unicode="&#xcf;" horiz-adv-x="270" d="M10 -5l66 359l35 213l8 108l151 10l-66 -347l-34 -210l-10 -123zM54 801q0 26 19.5 45t44.5 19q26 0 44.5 -19t18.5 -45q0 -25 -18.5 -43.5t-44.5 -18.5q-25 0 -44.5 18.5t-19.5 43.5zM231 801q0 26 19 45t45 19q12 0 23 -5t20 -14t14.5 -20.5t5.5 -24.5 q0 -12 -5.5 -23.5t-14.5 -20t-20 -13.5t-23 -5q-26 0 -45 18.5t-19 43.5z" />
<glyph unicode="&#xd0;" horiz-adv-x="670" d="M-6 297l12 69l70 2l33 201l7 106l189 8q70 3 130 -16t104.5 -57t70 -93.5t25.5 -125.5q0 -84 -33 -154.5t-89 -122t-129 -80.5t-152 -29l-222 -10l54 304zM167 124l82 5q48 3 92 21.5t78 51t54 78.5t20 104q0 45 -16.5 79t-42.5 56t-58.5 32t-65.5 8l-66 -4l-34 -183 l124 4l-12 -69l-124 -4z" />
<glyph unicode="&#xd1;" horiz-adv-x="750" d="M8 -5l67 370l52 313l85 4l316 -445h6l58 331l9 107l144 10l-67 -364l-52 -319l-82 -4l-319 453h-5l-57 -332l-10 -114zM277 747q0 63 29 96.5t70 33.5q20 0 36 -8.5t29 -18.5t24.5 -18.5t23.5 -8.5q17 0 26 16t9 36h70q0 -26 -7 -49.5t-20 -41.5t-31 -28.5t-40 -10.5 q-21 0 -36.5 8.5t-27.5 18t-23 18t-24 8.5q-19 0 -29.5 -15t-10.5 -36h-68z" />
<glyph unicode="&#xd2;" horiz-adv-x="770" d="M36 278q0 87 32.5 163t88 132.5t128 89t152.5 32.5q63 0 117.5 -20.5t95 -59t64 -94t23.5 -125.5q0 -90 -32.5 -165.5t-87.5 -130t-127.5 -85t-153.5 -30.5q-66 0 -121 21.5t-94.5 60.5t-62 92.5t-22.5 118.5zM179 289q0 -43 13.5 -76t36.5 -55.5t53.5 -34t65.5 -11.5 q52 0 97.5 21.5t79 58.5t52.5 87.5t19 107.5q0 42 -12 75.5t-34 57t-53 36t-68 12.5q-48 0 -93 -21t-80 -58.5t-56 -88.5t-21 -111zM319 862l2 10h129l79 -124l-1 -8h-76z" />
<glyph unicode="&#xd3;" horiz-adv-x="770" d="M36 278q0 87 32.5 163t88 132.5t128 89t152.5 32.5q63 0 117.5 -20.5t95 -59t64 -94t23.5 -125.5q0 -90 -32.5 -165.5t-87.5 -130t-127.5 -85t-153.5 -30.5q-66 0 -121 21.5t-94.5 60.5t-62 92.5t-22.5 118.5zM179 289q0 -43 13.5 -76t36.5 -55.5t53.5 -34t65.5 -11.5 q52 0 97.5 21.5t79 58.5t52.5 87.5t19 107.5q0 42 -12 75.5t-34 57t-53 36t-68 12.5q-48 0 -93 -21t-80 -58.5t-56 -88.5t-21 -111zM379 740l1 8l113 124h139l-2 -10l-170 -122h-81z" />
<glyph unicode="&#xd4;" horiz-adv-x="770" d="M36 278q0 87 32.5 163t88 132.5t128 89t152.5 32.5q63 0 117.5 -20.5t95 -59t64 -94t23.5 -125.5q0 -90 -32.5 -165.5t-87.5 -130t-127.5 -85t-153.5 -30.5q-66 0 -121 21.5t-94.5 60.5t-62 92.5t-22.5 118.5zM179 289q0 -43 13.5 -76t36.5 -55.5t53.5 -34t65.5 -11.5 q52 0 97.5 21.5t79 58.5t52.5 87.5t19 107.5q0 42 -12 75.5t-34 57t-53 36t-68 12.5q-48 0 -93 -21t-80 -58.5t-56 -88.5t-21 -111zM316 740l1 8l154 124h61l98 -124l-1 -8h-77l-64 53l-87 -53h-85z" />
<glyph unicode="&#xd5;" horiz-adv-x="770" d="M36 278q0 87 32.5 163t88 132.5t128 89t152.5 32.5q63 0 117.5 -20.5t95 -59t64 -94t23.5 -125.5q0 -90 -32.5 -165.5t-87.5 -130t-127.5 -85t-153.5 -30.5q-66 0 -121 21.5t-94.5 60.5t-62 92.5t-22.5 118.5zM179 289q0 -43 13.5 -76t36.5 -55.5t53.5 -34t65.5 -11.5 q52 0 97.5 21.5t79 58.5t52.5 87.5t19 107.5q0 42 -12 75.5t-34 57t-53 36t-68 12.5q-48 0 -93 -21t-80 -58.5t-56 -88.5t-21 -111zM311 747q0 63 29 96.5t70 33.5q20 0 36 -8.5t29 -18.5t24.5 -18.5t23.5 -8.5q17 0 26 16t9 36h70q0 -26 -7 -49.5t-20 -41.5t-31 -28.5 t-40 -10.5q-21 0 -36.5 8.5t-27.5 18t-23 18t-24 8.5q-19 0 -29.5 -15t-10.5 -36h-68z" />
<glyph unicode="&#xd6;" horiz-adv-x="770" d="M36 278q0 87 32.5 163t88 132.5t128 89t152.5 32.5q63 0 117.5 -20.5t95 -59t64 -94t23.5 -125.5q0 -90 -32.5 -165.5t-87.5 -130t-127.5 -85t-153.5 -30.5q-66 0 -121 21.5t-94.5 60.5t-62 92.5t-22.5 118.5zM179 289q0 -43 13.5 -76t36.5 -55.5t53.5 -34t65.5 -11.5 q52 0 97.5 21.5t79 58.5t52.5 87.5t19 107.5q0 42 -12 75.5t-34 57t-53 36t-68 12.5q-48 0 -93 -21t-80 -58.5t-56 -88.5t-21 -111zM312 801q0 26 19.5 45t44.5 19q26 0 44.5 -19t18.5 -45q0 -25 -18.5 -43.5t-44.5 -18.5q-25 0 -44.5 18.5t-19.5 43.5zM489 801q0 26 19 45 t45 19q12 0 23 -5t20 -14t14.5 -20.5t5.5 -24.5q0 -12 -5.5 -23.5t-14.5 -20t-20 -13.5t-23 -5q-26 0 -45 18.5t-19 43.5z" />
<glyph unicode="&#xd7;" d="M49 136l159 160l-159 160l56 56l160 -159l160 159l56 -56l-159 -160l159 -160l-56 -56l-160 159l-160 -159z" />
<glyph unicode="&#xd8;" horiz-adv-x="770" d="M34 -11l79 85q-37 38 -57 90t-20 114q0 87 32.5 163t88 132.5t128 89t152.5 32.5q112 0 192 -63l76 82l41 -37l-77 -83q32 -38 50 -87.5t18 -110.5q0 -90 -32.5 -165.5t-87.5 -130t-127.5 -85t-153.5 -30.5q-53 0 -98.5 13.5t-82.5 39.5l-80 -86zM179 289q0 -65 31 -110 l326 353q-44 36 -107 36q-48 0 -93 -21t-80 -58.5t-56 -88.5t-21 -111zM249 141q43 -29 99 -29q52 0 97.5 21.5t79 58.5t52.5 87.5t19 107.5q0 29 -6.5 55t-17.5 47z" />
<glyph unicode="&#xd9;" horiz-adv-x="690" d="M48 150.5q-6 44.5 2 86.5l56 317l12 121l145 10l-76 -422q-6 -31 -2.5 -58t17 -47.5t39 -32.5t64.5 -12q29 0 57.5 8t52 26.5t40.5 48t24 72.5l44 268l15 139l144 10l-75 -434q-12 -66 -41 -116t-71.5 -83.5t-96.5 -50t-115 -16.5q-79 0 -128 24t-75 60.5t-32 81z M272 862l2 10h129l79 -124l-1 -8h-76z" />
<glyph unicode="&#xda;" horiz-adv-x="690" d="M48 150.5q-6 44.5 2 86.5l56 317l12 121l145 10l-76 -422q-6 -31 -2.5 -58t17 -47.5t39 -32.5t64.5 -12q29 0 57.5 8t52 26.5t40.5 48t24 72.5l44 268l15 139l144 10l-75 -434q-12 -66 -41 -116t-71.5 -83.5t-96.5 -50t-115 -16.5q-79 0 -128 24t-75 60.5t-32 81z M332 740l1 8l113 124h139l-2 -10l-170 -122h-81z" />
<glyph unicode="&#xdb;" horiz-adv-x="690" d="M48 150.5q-6 44.5 2 86.5l56 317l12 121l145 10l-76 -422q-6 -31 -2.5 -58t17 -47.5t39 -32.5t64.5 -12q29 0 57.5 8t52 26.5t40.5 48t24 72.5l44 268l15 139l144 10l-75 -434q-12 -66 -41 -116t-71.5 -83.5t-96.5 -50t-115 -16.5q-79 0 -128 24t-75 60.5t-32 81z M269 740l1 8l154 124h61l98 -124l-1 -8h-77l-64 53l-87 -53h-85z" />
<glyph unicode="&#xdc;" horiz-adv-x="690" d="M48 150.5q-6 44.5 2 86.5l56 317l12 121l145 10l-76 -422q-6 -31 -2.5 -58t17 -47.5t39 -32.5t64.5 -12q29 0 57.5 8t52 26.5t40.5 48t24 72.5l44 268l15 139l144 10l-75 -434q-12 -66 -41 -116t-71.5 -83.5t-96.5 -50t-115 -16.5q-79 0 -128 24t-75 60.5t-32 81z M265 801q0 26 19.5 45t44.5 19q26 0 44.5 -19t18.5 -45q0 -25 -18.5 -43.5t-44.5 -18.5q-25 0 -44.5 18.5t-19.5 43.5zM442 801q0 26 19 45t45 19q12 0 23 -5t20 -14t14.5 -20.5t5.5 -24.5q0 -12 -5.5 -23.5t-14.5 -20t-20 -13.5t-23 -5q-26 0 -45 18.5t-19 43.5z" />
<glyph unicode="&#xdd;" horiz-adv-x="590" d="M63 675l140 10l101 -263h2l183 253l147 9l6 -8l-286 -386l-38 -215l-3 -70l-145 -10l51 295zM278 740l1 8l113 124h139l-2 -10l-170 -122h-81z" />
<glyph unicode="&#xde;" horiz-adv-x="520" d="M6 -5l109 616v64l145 5l-21 -115h44q103 0 159.5 -48t56.5 -137q0 -55 -21.5 -101.5t-58.5 -80.5t-85.5 -53t-103.5 -19h-69l-7 -41l-3 -80zM183 248h52q22 0 43.5 6.5t38.5 20t28 34t11 49.5q0 43 -24.5 64t-61.5 21h-52z" />
<glyph unicode="&#xdf;" horiz-adv-x="550" d="M9 -94l75 435h-64l15 87l70 32l5 31q8 49 31 86.5t55 63t70 38.5t76 13q64 0 107 -23.5t63.5 -66t18 -101.5t-27.5 -130q-24 3 -43 3q-24 0 -38.5 -5.5t-23 -13t-11 -16t-2.5 -14.5q0 -19 17 -34.5t37 -35t37 -48t17 -73.5q0 -37 -14 -65t-37 -46.5t-52.5 -27.5t-60.5 -9 q-38 0 -69.5 10.5t-48.5 24.5l49 99q16 -11 32 -18t38 -7q18 0 32.5 8t14.5 25q0 22 -18 40t-39.5 38t-39.5 44.5t-18 60.5q0 35 11.5 63t31 47.5t45.5 31.5t54 15q14 48 -4 79t-58 31q-43 0 -70 -30.5t-35 -72.5l-85 -472l-3 -87z" />
<glyph unicode="&#xe0;" horiz-adv-x="450" d="M-9 160q19 29 49.5 52t67 38.5t77 22.5t81.5 6l5 24q6 30 -13 43t-43 13q-26 0 -58 -14t-70 -38l-42 92q40 30 95 49t109 19q35 0 66 -10t53 -30t31.5 -49t2.5 -66l-35 -183q-5 -28 0.5 -49.5t18.5 -31.5v-9l-91 -57q-23 11 -32 28.5t-11 39.5h-5q-30 -25 -67.5 -43 t-66.5 -23q-27 3 -51.5 16t-42 35.5t-25.5 54t-3 70.5zM111 665l2 10h129l72 -164l-2 -8h-76zM114 154q-2 -24 10 -39.5t34 -20.5q10 1 22 4.5t23.5 9t21.5 11.5t16 11l12 69q-17 3 -37 0.5t-39 -8.5t-36 -15.5t-27 -21.5z" />
<glyph unicode="&#xe1;" horiz-adv-x="450" d="M-9 160q19 29 49.5 52t67 38.5t77 22.5t81.5 6l5 24q6 30 -13 43t-43 13q-26 0 -58 -14t-70 -38l-42 92q40 30 95 49t109 19q35 0 66 -10t53 -30t31.5 -49t2.5 -66l-35 -183q-5 -28 0.5 -49.5t18.5 -31.5v-9l-91 -57q-23 11 -32 28.5t-11 39.5h-5q-30 -25 -67.5 -43 t-66.5 -23q-27 3 -51.5 16t-42 35.5t-25.5 54t-3 70.5zM114 154q-2 -24 10 -39.5t34 -20.5q10 1 22 4.5t23.5 9t21.5 11.5t16 11l12 69q-17 3 -37 0.5t-39 -8.5t-36 -15.5t-27 -21.5zM188 503l2 8l120 164h139l-2 -10l-178 -162h-81z" />
<glyph unicode="&#xe2;" horiz-adv-x="450" d="M-9 160q19 29 49.5 52t67 38.5t77 22.5t81.5 6l5 24q6 30 -13 43t-43 13q-26 0 -58 -14t-70 -38l-42 92q40 30 95 49t109 19q35 0 66 -10t53 -30t31.5 -49t2.5 -66l-35 -183q-5 -28 0.5 -49.5t18.5 -31.5v-9l-91 -57q-23 11 -32 28.5t-11 39.5h-5q-30 -25 -67.5 -43 t-66.5 -23q-27 3 -51.5 16t-42 35.5t-25.5 54t-3 70.5zM114 154q-2 -24 10 -39.5t34 -20.5q10 1 22 4.5t23.5 9t21.5 11.5t16 11l12 69q-17 3 -37 0.5t-39 -8.5t-36 -15.5t-27 -21.5zM120 503l2 8l138 164h61l74 -164l-2 -8h-77l-43 73l-68 -73h-85z" />
<glyph unicode="&#xe3;" horiz-adv-x="450" d="M-9 160q19 29 49.5 52t67 38.5t77 22.5t81.5 6l5 24q6 30 -13 43t-43 13q-26 0 -58 -14t-70 -38l-42 92q40 30 95 49t109 19q35 0 66 -10t53 -30t31.5 -49t2.5 -66l-35 -183q-5 -28 0.5 -49.5t18.5 -31.5v-9l-91 -57q-23 11 -32 28.5t-11 39.5h-5q-30 -25 -67.5 -43 t-66.5 -23q-27 3 -51.5 16t-42 35.5t-25.5 54t-3 70.5zM104 520q0 63 29 96.5t70 33.5q20 0 36 -8.5t29 -18.5t24.5 -18.5t23.5 -8.5q17 0 26 16t9 36h70q0 -26 -7 -49.5t-20 -41.5t-31 -28.5t-40 -10.5q-21 0 -36.5 8.5t-27.5 18t-23 18t-24 8.5q-19 0 -29.5 -15t-10.5 -36 h-68zM114 154q-2 -24 10 -39.5t34 -20.5q10 1 22 4.5t23.5 9t21.5 11.5t16 11l12 69q-17 3 -37 0.5t-39 -8.5t-36 -15.5t-27 -21.5z" />
<glyph unicode="&#xe4;" horiz-adv-x="450" d="M-9 160q19 29 49.5 52t67 38.5t77 22.5t81.5 6l5 24q6 30 -13 43t-43 13q-26 0 -58 -14t-70 -38l-42 92q40 30 95 49t109 19q35 0 66 -10t53 -30t31.5 -49t2.5 -66l-35 -183q-5 -28 0.5 -49.5t18.5 -31.5v-9l-91 -57q-23 11 -32 28.5t-11 39.5h-5q-30 -25 -67.5 -43 t-66.5 -23q-27 3 -51.5 16t-42 35.5t-25.5 54t-3 70.5zM105 574q0 26 19.5 45t44.5 19q26 0 44.5 -19t18.5 -45q0 -25 -18.5 -43.5t-44.5 -18.5q-25 0 -44.5 18.5t-19.5 43.5zM114 154q-2 -24 10 -39.5t34 -20.5q10 1 22 4.5t23.5 9t21.5 11.5t16 11l12 69q-17 3 -37 0.5 t-39 -8.5t-36 -15.5t-27 -21.5zM282 574q0 26 19 45t45 19q12 0 23 -5t20 -14t14.5 -20.5t5.5 -24.5q0 -12 -5.5 -23.5t-14.5 -20t-20 -13.5t-23 -5q-26 0 -45 18.5t-19 43.5z" />
<glyph unicode="&#xe5;" horiz-adv-x="450" d="M-9 160q19 29 49.5 52t67 38.5t77 22.5t81.5 6l5 24q6 30 -13 43t-43 13q-26 0 -58 -14t-70 -38l-42 92q40 30 95 49t109 19q35 0 66 -10t53 -30t31.5 -49t2.5 -66l-35 -183q-5 -28 0.5 -49.5t18.5 -31.5v-9l-91 -57q-23 11 -32 28.5t-11 39.5h-5q-30 -25 -67.5 -43 t-66.5 -23q-27 3 -51.5 16t-42 35.5t-25.5 54t-3 70.5zM114 154q-2 -24 10 -39.5t34 -20.5q10 1 22 4.5t23.5 9t21.5 11.5t16 11l12 69q-17 3 -37 0.5t-39 -8.5t-36 -15.5t-27 -21.5zM150 607q0 24 9 44.5t24 35.5t35.5 24t44.5 9t44.5 -9t35.5 -24t24 -35.5t9 -44.5 t-9 -44.5t-24 -35.5t-35.5 -24t-44.5 -9t-44.5 9t-35.5 24t-24 35.5t-9 44.5zM216 607q0 -21 12.5 -35.5t33.5 -14.5q20 0 33.5 14.5t13.5 35.5q0 20 -13.5 36t-33.5 16q-21 0 -33.5 -16t-12.5 -36z" />
<glyph unicode="&#xe6;" horiz-adv-x="700" d="M-9 160q19 29 49.5 52t67 38.5t77 22.5t81.5 6l5 24q4 15 0 25.5t-12.5 17.5t-20 10t-23.5 3q-26 0 -58 -14t-70 -38l-42 92q40 30 95 49t109 19q35 0 65 -14.5t47 -43.5q31 27 67 42.5t73 15.5q45 0 80.5 -17.5t57 -47.5t28 -69t-6.5 -82q-22 -17 -57 -31t-74 -23.5 t-79 -13.5t-73 -2q-2 -26 6 -43t20.5 -26.5t28 -13t29.5 -3.5q29 0 63.5 11t60.5 31h4l38 -92q-32 -26 -84.5 -43t-105.5 -17q-48 0 -92.5 20t-69.5 66q-39 -42 -78 -59.5t-85 -27.5q-27 3 -51.5 15.5t-41.5 34.5t-25 53.5t-3 72.5zM114 154q-2 -24 10 -39.5t34 -20.5 q11 1 24.5 5.5t26.5 11t24.5 13.5t17.5 13q-2 12 -1.5 27t3.5 35q-17 3 -37 0.5t-39 -8.5t-36 -15.5t-27 -21.5zM389 262q44 -2 87 5t74 23q2 29 -15.5 49t-47.5 20q-32 0 -60.5 -26.5t-37.5 -70.5z" />
<glyph unicode="&#xe7;" horiz-adv-x="400" d="M-1 170q0 69 22 124.5t58.5 93.5t83 58.5t95.5 20.5q48 0 84 -15t60 -37l-58 -94h-4q-19 20 -40.5 28t-42.5 8q-24 0 -46 -13.5t-39.5 -37t-28 -54.5t-10.5 -66q0 -48 24 -69.5t53 -21.5q53 0 102 35h4l38 -94q-29 -22 -68.5 -35t-79.5 -15l-28 -41q19 0 37 -3.5 t31.5 -12t22 -21.5t8.5 -31q0 -38 -49.5 -65.5t-137.5 -35.5l-1 45q37 5 64.5 18t27.5 33q0 14 -17 21t-43 7q-6 0 -15.5 -0.5t-15.5 -1.5l-3 7l56 85q-71 14 -107.5 64t-36.5 116z" />
<glyph unicode="&#xe8;" horiz-adv-x="450" d="M-1 164q0 63 22 118.5t57.5 96.5t80.5 64.5t92 23.5q45 0 80.5 -17.5t57 -47.5t28 -69t-6.5 -82q-22 -17 -57 -31t-74 -23.5t-79 -13.5t-73 -2q-2 -26 6 -43t20.5 -26.5t28 -13t29.5 -3.5q29 0 63.5 11t60.5 31h4l38 -92q-32 -26 -84.5 -43t-105.5 -17q-34 0 -67.5 10 t-60.5 31.5t-43.5 55.5t-16.5 82zM110 665l2 10h129l72 -164l-2 -8h-76zM139 262q44 -2 87 5t74 23q2 29 -15.5 49t-47.5 20q-32 0 -60.5 -26.5t-37.5 -70.5z" />
<glyph unicode="&#xe9;" horiz-adv-x="450" d="M-1 164q0 63 22 118.5t57.5 96.5t80.5 64.5t92 23.5q45 0 80.5 -17.5t57 -47.5t28 -69t-6.5 -82q-22 -17 -57 -31t-74 -23.5t-79 -13.5t-73 -2q-2 -26 6 -43t20.5 -26.5t28 -13t29.5 -3.5q29 0 63.5 11t60.5 31h4l38 -92q-32 -26 -84.5 -43t-105.5 -17q-34 0 -67.5 10 t-60.5 31.5t-43.5 55.5t-16.5 82zM139 262q44 -2 87 5t74 23q2 29 -15.5 49t-47.5 20q-32 0 -60.5 -26.5t-37.5 -70.5zM187 503l2 8l120 164h139l-2 -10l-178 -162h-81z" />
<glyph unicode="&#xea;" horiz-adv-x="450" d="M-1 164q0 63 22 118.5t57.5 96.5t80.5 64.5t92 23.5q45 0 80.5 -17.5t57 -47.5t28 -69t-6.5 -82q-22 -17 -57 -31t-74 -23.5t-79 -13.5t-73 -2q-2 -26 6 -43t20.5 -26.5t28 -13t29.5 -3.5q29 0 63.5 11t60.5 31h4l38 -92q-32 -26 -84.5 -43t-105.5 -17q-34 0 -67.5 10 t-60.5 31.5t-43.5 55.5t-16.5 82zM119 503l2 8l138 164h61l74 -164l-2 -8h-77l-43 73l-68 -73h-85zM139 262q44 -2 87 5t74 23q2 29 -15.5 49t-47.5 20q-32 0 -60.5 -26.5t-37.5 -70.5z" />
<glyph unicode="&#xeb;" horiz-adv-x="450" d="M-1 164q0 63 22 118.5t57.5 96.5t80.5 64.5t92 23.5q45 0 80.5 -17.5t57 -47.5t28 -69t-6.5 -82q-22 -17 -57 -31t-74 -23.5t-79 -13.5t-73 -2q-2 -26 6 -43t20.5 -26.5t28 -13t29.5 -3.5q29 0 63.5 11t60.5 31h4l38 -92q-32 -26 -84.5 -43t-105.5 -17q-34 0 -67.5 10 t-60.5 31.5t-43.5 55.5t-16.5 82zM104 574q0 26 19.5 45t44.5 19q26 0 44.5 -19t18.5 -45q0 -25 -18.5 -43.5t-44.5 -18.5q-25 0 -44.5 18.5t-19.5 43.5zM139 262q44 -2 87 5t74 23q2 29 -15.5 49t-47.5 20q-32 0 -60.5 -26.5t-37.5 -70.5zM281 574q0 26 19 45t45 19 q12 0 23 -5t20 -14t14.5 -20.5t5.5 -24.5q0 -12 -5.5 -23.5t-14.5 -20t-20 -13.5t-23 -5q-26 0 -45 18.5t-19 43.5z" />
<glyph unicode="&#xec;" horiz-adv-x="230" d="M-9 -5l61 352l6 93l143 16l-65 -373l-5 -78zM-9 665l2 10h129l72 -164l-2 -8h-76z" />
<glyph unicode="&#xed;" horiz-adv-x="230" d="M-9 -5l61 352l6 93l143 16l-65 -373l-5 -78zM68 503l2 8l120 164h139l-2 -10l-178 -162h-81z" />
<glyph unicode="&#xee;" horiz-adv-x="230" d="M-9 -5l61 352l6 93l143 16l-65 -373l-5 -78zM0 503l2 8l138 164h61l74 -164l-2 -8h-77l-43 73l-68 -73h-85z" />
<glyph unicode="&#xef;" horiz-adv-x="230" d="M-15 574q0 26 19.5 45t44.5 19q26 0 44.5 -19t18.5 -45q0 -25 -18.5 -43.5t-44.5 -18.5q-25 0 -44.5 18.5t-19.5 43.5zM-9 -5l61 352l6 93l143 16l-65 -373l-5 -78zM162 574q0 26 19 45t45 19q12 0 23 -5t20 -14t14.5 -20.5t5.5 -24.5q0 -12 -5.5 -23.5t-14.5 -20 t-20 -13.5t-23 -5q-26 0 -45 18.5t-19 43.5z" />
<glyph unicode="&#xf0;" horiz-adv-x="490" d="M-1 177q0 61 22 114t57 92t80 61.5t90 22.5q48 0 81 -25l5 2q-10 29 -28.5 54.5t-43.5 45.5l-78 -70l-39 43l68 61q-33 19 -70 30l47 82q57 -19 99 -43l73 66l40 -43l-62 -56q60 -46 90 -111t30 -153q0 -76 -19.5 -142t-55 -115.5t-84.5 -78t-109 -28.5q-43 0 -78.5 14 t-61 39t-39.5 60t-14 78zM132 187q0 -41 18 -65t52 -24q23 0 44 14t36.5 37t24.5 52t8 60q0 42 -18.5 66.5t-53.5 24.5q-21 0 -40.5 -13t-35.5 -35.5t-25.5 -52.5t-9.5 -64z" />
<glyph unicode="&#xf1;" horiz-adv-x="480" d="M-15 -5l60 343l9 110l120 10l2 -64h6q27 33 63.5 53t78.5 20q26 0 49 -10t38.5 -29t22 -47t0.5 -64l-39 -224l-6 -88l-140 -10l47 275q7 43 -5.5 58.5t-34.5 15.5q-23 0 -47 -14t-43 -37l-36 -202l-5 -86zM115 520q0 63 29 96.5t70 33.5q20 0 36 -8.5t29 -18.5 t24.5 -18.5t23.5 -8.5q17 0 26 16t9 36h70q0 -26 -7 -49.5t-20 -41.5t-31 -28.5t-40 -10.5q-21 0 -36.5 8.5t-27.5 18t-23 18t-24 8.5q-19 0 -29.5 -15t-10.5 -36h-68z" />
<glyph unicode="&#xf2;" horiz-adv-x="490" d="M-1 164q0 63 19 118t54.5 96.5t84.5 65t109 23.5q41 0 74.5 -14.5t57.5 -39t37.5 -58.5t13.5 -73q0 -61 -19.5 -115t-54.5 -94.5t-84 -64t-107 -23.5q-38 0 -72 13t-59 37t-39.5 57t-14.5 72zM133 186q0 -42 19 -65t51 -23q26 0 47 15.5t35.5 40t22 54t7.5 57.5 q0 38 -16.5 63.5t-51.5 25.5q-24 0 -44.5 -14.5t-36 -38.5t-24.5 -54t-9 -61zM136 665l2 10h129l72 -164l-2 -8h-76z" />
<glyph unicode="&#xf3;" horiz-adv-x="490" d="M-1 164q0 63 19 118t54.5 96.5t84.5 65t109 23.5q41 0 74.5 -14.5t57.5 -39t37.5 -58.5t13.5 -73q0 -61 -19.5 -115t-54.5 -94.5t-84 -64t-107 -23.5q-38 0 -72 13t-59 37t-39.5 57t-14.5 72zM133 186q0 -42 19 -65t51 -23q26 0 47 15.5t35.5 40t22 54t7.5 57.5 q0 38 -16.5 63.5t-51.5 25.5q-24 0 -44.5 -14.5t-36 -38.5t-24.5 -54t-9 -61zM213 503l2 8l120 164h139l-2 -10l-178 -162h-81z" />
<glyph unicode="&#xf4;" horiz-adv-x="490" d="M-1 164q0 63 19 118t54.5 96.5t84.5 65t109 23.5q41 0 74.5 -14.5t57.5 -39t37.5 -58.5t13.5 -73q0 -61 -19.5 -115t-54.5 -94.5t-84 -64t-107 -23.5q-38 0 -72 13t-59 37t-39.5 57t-14.5 72zM133 186q0 -42 19 -65t51 -23q26 0 47 15.5t35.5 40t22 54t7.5 57.5 q0 38 -16.5 63.5t-51.5 25.5q-24 0 -44.5 -14.5t-36 -38.5t-24.5 -54t-9 -61zM145 503l2 8l138 164h61l74 -164l-2 -8h-77l-43 73l-68 -73h-85z" />
<glyph unicode="&#xf5;" horiz-adv-x="490" d="M-1 164q0 63 19 118t54.5 96.5t84.5 65t109 23.5q41 0 74.5 -14.5t57.5 -39t37.5 -58.5t13.5 -73q0 -61 -19.5 -115t-54.5 -94.5t-84 -64t-107 -23.5q-38 0 -72 13t-59 37t-39.5 57t-14.5 72zM129 520q0 63 29 96.5t70 33.5q20 0 36 -8.5t29 -18.5t24.5 -18.5t23.5 -8.5 q17 0 26 16t9 36h70q0 -26 -7 -49.5t-20 -41.5t-31 -28.5t-40 -10.5q-21 0 -36.5 8.5t-27.5 18t-23 18t-24 8.5q-19 0 -29.5 -15t-10.5 -36h-68zM133 186q0 -42 19 -65t51 -23q26 0 47 15.5t35.5 40t22 54t7.5 57.5q0 38 -16.5 63.5t-51.5 25.5q-24 0 -44.5 -14.5t-36 -38.5 t-24.5 -54t-9 -61z" />
<glyph unicode="&#xf6;" horiz-adv-x="490" d="M-1 164q0 63 19 118t54.5 96.5t84.5 65t109 23.5q41 0 74.5 -14.5t57.5 -39t37.5 -58.5t13.5 -73q0 -61 -19.5 -115t-54.5 -94.5t-84 -64t-107 -23.5q-38 0 -72 13t-59 37t-39.5 57t-14.5 72zM130 574q0 26 19.5 45t44.5 19q26 0 44.5 -19t18.5 -45q0 -25 -18.5 -43.5 t-44.5 -18.5q-25 0 -44.5 18.5t-19.5 43.5zM133 186q0 -42 19 -65t51 -23q26 0 47 15.5t35.5 40t22 54t7.5 57.5q0 38 -16.5 63.5t-51.5 25.5q-24 0 -44.5 -14.5t-36 -38.5t-24.5 -54t-9 -61zM307 574q0 26 19 45t45 19q12 0 23 -5t20 -14t14.5 -20.5t5.5 -24.5 q0 -12 -5.5 -23.5t-14.5 -20t-20 -13.5t-23 -5q-26 0 -45 18.5t-19 43.5z" />
<glyph unicode="&#xf7;" d="M33 261v80h464v-80h-464zM202 137q0 26 18.5 44.5t44.5 18.5t44.5 -18.5t18.5 -44.5t-18.5 -44.5t-44.5 -18.5t-44.5 18.5t-18.5 44.5zM202 465q0 26 18.5 44.5t44.5 18.5t44.5 -18.5t18.5 -44.5t-18.5 -44.5t-44.5 -18.5t-44.5 18.5t-18.5 44.5z" />
<glyph unicode="&#xf8;" horiz-adv-x="490" d="M-3 -13l48 56q-22 23 -34 54t-12 67q0 63 19 118t54.5 96.5t84.5 65t109 23.5q32 0 60 -9t51 -26l43 51l35 -31l-45 -53q39 -50 39 -117q0 -61 -19.5 -115t-54.5 -94.5t-84 -64t-107 -23.5q-29 0 -55.5 7.5t-49.5 21.5l-49 -57zM133 186q0 -22 4 -35l156 184 q-17 19 -46 19q-24 0 -44.5 -14.5t-36 -38.5t-24.5 -54t-9 -61zM162 111q16 -13 41 -13q26 0 47 15.5t35.5 40t22 54t7.5 57.5q0 5 -0.5 11t-1.5 11z" />
<glyph unicode="&#xf9;" horiz-adv-x="480" d="M8 77q-6 31 2 73l35 198l8 100l140 10l-49 -271q-8 -42 5.5 -60.5t41.5 -18.5q23 0 47 16t41 46l31 183l7 95l140 10l-66 -381l-3 -72l-115 -10l-3 64h-6q-27 -30 -64.5 -52t-81.5 -22q-27 0 -50 10t-38.5 30.5t-21.5 51.5zM122 665l2 10h129l72 -164l-2 -8h-76z" />
<glyph unicode="&#xfa;" horiz-adv-x="480" d="M8 77q-6 31 2 73l35 198l8 100l140 10l-49 -271q-8 -42 5.5 -60.5t41.5 -18.5q23 0 47 16t41 46l31 183l7 95l140 10l-66 -381l-3 -72l-115 -10l-3 64h-6q-27 -30 -64.5 -52t-81.5 -22q-27 0 -50 10t-38.5 30.5t-21.5 51.5zM199 503l2 8l120 164h139l-2 -10l-178 -162 h-81z" />
<glyph unicode="&#xfb;" horiz-adv-x="480" d="M8 77q-6 31 2 73l35 198l8 100l140 10l-49 -271q-8 -42 5.5 -60.5t41.5 -18.5q23 0 47 16t41 46l31 183l7 95l140 10l-66 -381l-3 -72l-115 -10l-3 64h-6q-27 -30 -64.5 -52t-81.5 -22q-27 0 -50 10t-38.5 30.5t-21.5 51.5zM131 503l2 8l138 164h61l74 -164l-2 -8h-77 l-43 73l-68 -73h-85z" />
<glyph unicode="&#xfc;" horiz-adv-x="480" d="M8 77q-6 31 2 73l35 198l8 100l140 10l-49 -271q-8 -42 5.5 -60.5t41.5 -18.5q23 0 47 16t41 46l31 183l7 95l140 10l-66 -381l-3 -72l-115 -10l-3 64h-6q-27 -30 -64.5 -52t-81.5 -22q-27 0 -50 10t-38.5 30.5t-21.5 51.5zM116 574q0 26 19.5 45t44.5 19q26 0 44.5 -19 t18.5 -45q0 -25 -18.5 -43.5t-44.5 -18.5q-25 0 -44.5 18.5t-19.5 43.5zM293 574q0 26 19 45t45 19q12 0 23 -5t20 -14t14.5 -20.5t5.5 -24.5q0 -12 -5.5 -23.5t-14.5 -20t-20 -13.5t-23 -5q-26 0 -45 18.5t-19 43.5z" />
<glyph unicode="&#xfd;" horiz-adv-x="440" d="M-42 -171q22 18 41 38t36 44.5t33.5 54.5t33.5 68l-76 414l128 10l38 -249h6l112 239l142 10l3 -3l-257 -476l-85 -171l-152 -15zM178 503l2 8l120 164h139l-2 -10l-178 -162h-81z" />
<glyph unicode="&#xfe;" horiz-adv-x="490" d="M-51 -204l140 811l3 74l147 12l-58 -290h4q10 11 25 21.5t32.5 19.5t36 15.5t35.5 8.5q62 -11 98.5 -58t36.5 -118q0 -86 -25 -144.5t-60.5 -94.5t-74 -52t-66.5 -16q-38 0 -60.5 14t-39.5 37h-5l-22 -142l-5 -86zM135 135q6 -15 21 -26t39 -11q17 0 37.5 11.5t38 33 t29.5 51.5t12 67t-16 57.5t-33 25.5q-26 0 -55.5 -18t-46.5 -42z" />
<glyph unicode="&#xff;" horiz-adv-x="440" d="M-42 -171q22 18 41 38t36 44.5t33.5 54.5t33.5 68l-76 414l128 10l38 -249h6l112 239l142 10l3 -3l-257 -476l-85 -171l-152 -15zM95 574q0 26 19.5 45t44.5 19q26 0 44.5 -19t18.5 -45q0 -25 -18.5 -43.5t-44.5 -18.5q-25 0 -44.5 18.5t-19.5 43.5zM272 574q0 26 19 45 t45 19q12 0 23 -5t20 -14t14.5 -20.5t5.5 -24.5q0 -12 -5.5 -23.5t-14.5 -20t-20 -13.5t-23 -5q-26 0 -45 18.5t-19 43.5z" />
<glyph unicode="&#x152;" horiz-adv-x="920" d="M36 278q0 87 32 163t86 132.5t124.5 89t148.5 32.5q54 0 103 -20l409 10l-31 -124l-257 -9l-26 -148l240 10l-32 -124l-230 -10l-28 -161l277 10l-31 -124l-394 -10q-23 -5 -45.5 -7.5t-45.5 -2.5q-66 0 -121 21.5t-94.5 60.5t-62 92.5t-22.5 118.5zM179 289 q0 -43 13.5 -76t36.5 -55.5t53.5 -34t65.5 -11.5q51 0 96 21l40 212l29 189q-40 34 -94 34q-46 0 -89 -21t-76.5 -58.5t-54 -88.5t-20.5 -111z" />
<glyph unicode="&#x153;" horiz-adv-x="770" d="M-1 164q0 63 19 118t54.5 96.5t84.5 65t109 23.5q50 0 87 -22.5t59 -60.5q33 38 74.5 60.5t84.5 22.5q45 0 80.5 -17.5t57 -47.5t28 -69t-6.5 -82q-22 -17 -57 -31t-74 -23.5t-79 -13.5t-73 -2q-2 -26 6 -43t20.5 -26.5t28 -13t29.5 -3.5q29 0 63.5 11t60.5 31h4l38 -92 q-32 -26 -84.5 -43t-105.5 -17q-44 0 -85 17.5t-67 57.5q-32 -35 -75.5 -55t-95.5 -20q-38 0 -72 13t-59 37t-39.5 57t-14.5 72zM133 186q0 -42 19 -65t51 -23q26 0 47 15.5t35.5 40t22 54t7.5 57.5q0 38 -16.5 63.5t-51.5 25.5q-24 0 -44.5 -14.5t-36 -38.5t-24.5 -54 t-9 -61zM459 262q44 -2 87 5t74 23q2 29 -15.5 49t-47.5 20q-32 0 -60.5 -26.5t-37.5 -70.5z" />
<glyph unicode="&#x178;" horiz-adv-x="590" d="M63 675l140 10l101 -263h2l183 253l147 9l6 -8l-286 -386l-38 -215l-3 -70l-145 -10l51 295zM211 801q0 26 19.5 45t44.5 19q26 0 44.5 -19t18.5 -45q0 -25 -18.5 -43.5t-44.5 -18.5q-25 0 -44.5 18.5t-19.5 43.5zM388 801q0 26 19 45t45 19q12 0 23 -5t20 -14 t14.5 -20.5t5.5 -24.5q0 -12 -5.5 -23.5t-14.5 -20t-20 -13.5t-23 -5q-26 0 -45 18.5t-19 43.5z" />
<glyph unicode="&#x2c6;" horiz-adv-x="500" d="M119 453l2 8l138 164h61l74 -164l-2 -8h-77l-43 73l-68 -73h-85z" />
<glyph unicode="&#x2dc;" horiz-adv-x="500" d="M103 470q0 63 29 96.5t70 33.5q20 0 36 -8.5t29 -18.5t24.5 -18.5t23.5 -8.5q17 0 26 16t9 36h70q0 -26 -7 -49.5t-20 -41.5t-31 -28.5t-40 -10.5q-21 0 -36.5 8.5t-27.5 18t-23 18t-24 8.5q-19 0 -29.5 -15t-10.5 -36h-68z" />
<glyph unicode="&#x2000;" horiz-adv-x="473" />
<glyph unicode="&#x2001;" horiz-adv-x="947" />
<glyph unicode="&#x2002;" horiz-adv-x="473" />
<glyph unicode="&#x2003;" horiz-adv-x="947" />
<glyph unicode="&#x2004;" horiz-adv-x="315" />
<glyph unicode="&#x2005;" horiz-adv-x="236" />
<glyph unicode="&#x2006;" horiz-adv-x="157" />
<glyph unicode="&#x2007;" horiz-adv-x="157" />
<glyph unicode="&#x2008;" horiz-adv-x="118" />
<glyph unicode="&#x2009;" horiz-adv-x="189" />
<glyph unicode="&#x200a;" horiz-adv-x="52" />
<glyph unicode="&#x2010;" horiz-adv-x="340" d="M22 176l10 117l250 10l-10 -117z" />
<glyph unicode="&#x2011;" horiz-adv-x="340" d="M22 176l10 117l250 10l-10 -117z" />
<glyph unicode="&#x2012;" horiz-adv-x="340" d="M22 176l10 117l250 10l-10 -117z" />
<glyph unicode="&#x2013;" horiz-adv-x="480" d="M24 173l10 117l390 16l-10 -117z" />
<glyph unicode="&#x2014;" horiz-adv-x="1000" d="M74 195v90h816v-90h-816z" />
<glyph unicode="&#x2018;" horiz-adv-x="280" d="M46 424l1 7l86 131l101 118h83l-1 -8l-86 -140l-46 -108h-138z" />
<glyph unicode="&#x2019;" horiz-adv-x="280" d="M36 424l1 8l86 140l46 108h138l-1 -7l-86 -131l-101 -118h-83z" />
<glyph unicode="&#x201a;" horiz-adv-x="280" d="M-37 -141l1 8l86 140l46 108h138l-1 -7l-86 -131l-101 -118h-83z" />
<glyph unicode="&#x201c;" horiz-adv-x="470" d="M46 424l1 7l86 131l101 118h83l-1 -8l-86 -140l-46 -108h-138zM236 424l1 7l86 131l101 118h83l-1 -8l-86 -140l-46 -108h-138z" />
<glyph unicode="&#x201d;" horiz-adv-x="470" d="M36 424l1 8l86 140l46 108h138l-1 -7l-86 -131l-101 -118h-83zM226 424l1 8l86 140l46 108h138l-1 -7l-86 -131l-101 -118h-83z" />
<glyph unicode="&#x201e;" horiz-adv-x="470" d="M-37 -141l1 8l86 140l46 108h138l-1 -7l-86 -131l-101 -118h-83zM153 -141l1 8l86 140l46 108h138l-1 -7l-86 -131l-101 -118h-83z" />
<glyph unicode="&#x2022;" horiz-adv-x="480" d="M104 264q0 28 10.5 53t29 43.5t43.5 29t53 10.5t53 -10.5t43.5 -29t29 -43.5t10.5 -53t-10.5 -53t-29 -43.5t-43.5 -29t-53 -10.5t-53 10.5t-43.5 29t-29 43.5t-10.5 53z" />
<glyph unicode="&#x2026;" horiz-adv-x="910" d="M18 70q0 32 22.5 54.5t54.5 22.5t54.5 -22.5t22.5 -54.5t-22.5 -54.5t-54.5 -22.5t-54.5 22.5t-22.5 54.5zM338 70q0 32 22.5 54.5t54.5 22.5t54.5 -22.5t22.5 -54.5t-22.5 -54.5t-54.5 -22.5t-54.5 22.5t-22.5 54.5zM658 70q0 32 22.5 54.5t54.5 22.5t54.5 -22.5 t22.5 -54.5t-22.5 -54.5t-54.5 -22.5t-54.5 22.5t-22.5 54.5z" />
<glyph unicode="&#x202f;" horiz-adv-x="189" />
<glyph unicode="&#x2039;" horiz-adv-x="410" d="M46 219l2 9l257 231l51 -53l-185 -190l92 -175l-64 -45z" />
<glyph unicode="&#x203a;" horiz-adv-x="410" d="M24 49l185 190l-92 175l64 45l153 -223l-2 -9l-257 -231z" />
<glyph unicode="&#x205f;" horiz-adv-x="236" />
<glyph unicode="&#x20ac;" horiz-adv-x="610" d="M38 252l26 65h31q1 10 2 19.5t3 19.5h-44l28 65h34q22 62 59.5 112.5t86 86.5t104 55.5t113.5 19.5q47 0 88.5 -11t72.5 -32l-68 -115q-21 13 -48 22t-60 9q-29 0 -58 -10t-55.5 -28.5t-49 -46t-38.5 -62.5h260l-28 -65h-254l-6 -39h243l-26 -65h-217q6 -64 43 -102 t98 -38q73 0 128 32l37 -113q-39 -24 -86 -35t-93 -11q-61 0 -110 20t-83.5 55.5t-54.5 84.5t-23 107h-55z" />
<glyph unicode="&#x2122;" horiz-adv-x="690" d="M74 627v53h234v-53h-88v-207h-58v207h-88zM310 420l46 260h35l66 -153h4l65 153h34l46 -260h-59l-20 130h-5l-57 -132h-15l-57 132h-4l-21 -130h-58z" />
<glyph unicode="&#x25fc;" horiz-adv-x="460" d="M0 0v460h460v-460h-460z" />
</font>
</defs>
</svg>
